<svg width="26" height="23" viewBox="0 0 26 23" fill="none" xmlns="http://www.w3.org/2000/svg">
<path d="M25.3344 15.8754L21.2972 9.12534L17.2607 2.37466C16.8188 1.62846 16.1745 1.01275 15.397 0.593829C14.6636 0.203137 13.8393 -0.00119857 13.0016 7.65201e-06C12.1635 -0.00144128 11.3388 0.202903 10.6049 0.593829C9.82665 1.01229 9.18155 1.62807 8.73931 2.37466L4.70281 9.12534L0.665641 15.8754C0.231251 16.5945 0.00160564 17.4118 0 18.2443C0.000346137 18.8582 0.124075 19.4663 0.364329 20.0347C0.723027 20.8845 1.32621 21.6175 2.10261 22.147C2.50171 22.4184 2.94132 22.6295 3.40632 22.7731C3.89715 22.9244 4.40942 23.001 4.92468 23H21.0733C21.7545 23.002 22.4286 22.8676 23.0532 22.6052C23.9323 22.2314 24.6784 21.6169 25.1991 20.8376C25.7194 20.0658 25.9975 19.1652 26 18.2443C25.9981 17.4119 25.7685 16.5947 25.3344 15.8754ZM24.4153 19.5556C24.1536 20.1804 23.7122 20.7198 23.1431 21.1101C22.8526 21.3079 22.5325 21.4618 22.1939 21.5664C21.8331 21.6776 21.4566 21.7336 21.0779 21.7325H5.80433C6.75421 21.4473 7.83472 20.9359 9.0485 20.093C10.3266 19.2057 11.7537 17.9503 13.3384 16.1973C13.453 16.0708 13.5107 15.9055 13.499 15.7378C13.4874 15.5701 13.4071 15.4137 13.276 15.3031C13.2109 15.2485 13.1353 15.2069 13.0535 15.1805C12.9717 15.1542 12.8853 15.1437 12.7993 15.1495C12.7133 15.1554 12.6293 15.1776 12.5522 15.2148C12.4751 15.2521 12.4063 15.3036 12.3498 15.3665C10.3069 17.6264 8.57389 18.9827 7.16383 19.7666C6.5739 20.1027 5.94392 20.3685 5.2877 20.5581C4.83253 20.6906 4.36023 20.7601 3.88487 20.7647C3.416 20.7732 2.95095 20.6819 2.52274 20.4973C2.41552 20.4505 2.31273 20.3947 2.21552 20.3306C2.18466 20.3097 2.16366 20.2939 2.14987 20.285L2.142 20.2787C2.07092 20.2162 1.9864 20.1697 1.89451 20.1424C1.51609 19.5775 1.31354 18.9196 1.31093 18.2469C1.31246 17.6369 1.48143 17.0381 1.80064 16.5117L5.83781 9.76162L9.87628 3.00841C10.1989 2.46068 10.6713 2.00907 11.2417 1.70289C11.78 1.41638 12.3849 1.26656 12.9997 1.2675C13.1363 1.26803 13.2729 1.27586 13.4086 1.29095C13.2229 1.7669 12.9491 2.51028 12.6741 3.40577C12.4063 4.27008 12.1846 5.14707 12.0097 6.03328C11.8173 6.98245 11.715 7.94656 11.7038 8.91367C11.7009 9.41922 11.7413 9.92414 11.8246 10.4233C11.9049 10.9049 12.0464 11.3751 12.2461 11.8232C12.5743 12.5526 13.0889 13.2593 13.7126 13.9482C14.6487 14.9805 15.8428 15.9762 17.1058 16.8843C18.3267 17.7569 19.5979 18.5619 20.9132 19.2957C21.0637 19.3785 21.2419 19.4005 21.4092 19.3569C21.5764 19.3134 21.719 19.2078 21.8059 19.0631C21.8925 18.918 21.9161 18.7456 21.8714 18.5838C21.8268 18.4219 21.7176 18.2837 21.5676 18.1993C20.0046 17.3248 18.2244 16.191 16.7099 14.9736C15.9901 14.405 15.3174 13.7831 14.6979 13.1135C14.134 12.4924 13.7001 11.8771 13.4461 11.3149C13.2903 10.9622 13.1801 10.5922 13.1178 10.2135C13.0468 9.78366 13.0125 9.34892 13.0154 8.91367C13.027 8.02462 13.1219 7.1384 13.299 6.26587C13.5396 5.06723 13.8642 3.88575 14.2706 2.72956C14.4248 2.28594 14.5633 1.9209 14.6644 1.65789C14.6946 1.6731 14.7248 1.68704 14.7544 1.70289C15.3245 2.00944 15.7968 2.46096 16.1198 3.00841L20.1563 9.75909L24.1934 16.5091C24.5127 17.0356 24.6816 17.6343 24.6832 18.2443C24.6838 18.6939 24.5937 19.1392 24.418 19.5556H24.4153Z" fill="#00305B"/>
</svg>
