<svg width="33" height="41" viewBox="0 0 33 41" fill="none" xmlns="http://www.w3.org/2000/svg">
<path d="M27.9228 20.2084H25.2285C25.2678 19.7157 25.4757 19.2508 25.8181 18.8896L26.9736 17.6672C27.1697 17.4662 27.3006 17.2124 27.3497 16.9379C27.3989 16.6635 27.364 16.3808 27.2495 16.126C27.1392 15.8681 26.9535 15.6483 26.716 15.4946C26.4785 15.3409 26.2 15.2602 25.9159 15.2629H3.73904C3.45556 15.2601 3.1777 15.3407 2.94093 15.4942C2.70417 15.6478 2.51925 15.8674 2.4098 16.1249C2.29441 16.3798 2.25882 16.6628 2.30757 16.9377C2.35631 17.2126 2.48719 17.467 2.68346 17.6682L3.84546 18.8939C4.18814 19.2545 4.39608 19.7192 4.43515 20.2116H1.7354C1.50591 20.2113 1.27866 20.256 1.06687 20.343C0.855078 20.4301 0.66297 20.5577 0.501723 20.7185C0.180722 21.0384 0.000486208 21.4699 0 21.9196C0 22.3735 0.183064 22.8087 0.508922 23.1296C0.83478 23.4506 1.27674 23.6309 1.73757 23.6309H2.88111C2.1992 25.0867 1.84469 26.6704 1.84183 28.2737C1.84183 31.7325 3.46537 34.9711 6.3063 37.2321L5.75679 38.6534C5.63001 38.9768 5.60552 39.3303 5.68654 39.6676C5.76756 40.0049 5.95029 40.3102 6.21073 40.5433C6.53342 40.8359 6.95586 40.9985 7.39445 40.9989C7.66037 40.9989 7.92285 40.9397 8.16224 40.8257L10.8175 39.5604C12.1194 39.9537 13.4737 40.1534 14.8356 40.1529C16.1975 40.1537 17.5518 39.954 18.8537 39.5604L21.5057 40.8257C21.7451 40.9398 22.0075 40.9994 22.2735 41C22.7122 41 23.1348 40.8374 23.4572 40.5444C23.7174 40.3113 23.9 40.0063 23.9812 39.6693C24.0624 39.3322 24.0383 38.9789 23.9122 38.6556L23.3627 37.231C26.2026 34.9689 27.8229 31.7315 27.8229 28.2737C27.8199 26.6705 27.4658 25.0869 26.7847 23.6309H27.9271C28.3902 23.6305 28.8342 23.4493 29.1619 23.1271C29.4842 22.8059 29.6646 22.3723 29.6636 21.9207C29.6638 21.6956 29.6188 21.4727 29.5313 21.2647C29.4439 21.0568 29.3156 20.8679 29.1539 20.7088C28.9922 20.5498 28.8002 20.4237 28.589 20.3378C28.3777 20.2519 28.1513 20.2079 27.9228 20.2084ZM1.73648 22.3881C1.67353 22.3888 1.61107 22.3771 1.55277 22.3537C1.49447 22.3303 1.4415 22.2957 1.39699 22.2518C1.35247 22.208 1.3173 22.1558 1.29354 22.0984C1.26979 22.041 1.25793 21.9795 1.25865 21.9175C1.25854 21.794 1.30813 21.6756 1.39657 21.5881C1.44107 21.5438 1.494 21.5087 1.55233 21.4846C1.61067 21.4606 1.67325 21.4481 1.73648 21.4479H4.14954C4.10826 21.5324 4.06222 21.6145 4.01162 21.6939C3.85198 21.9143 3.71514 22.1218 3.58917 22.3207C3.57614 22.3421 3.55768 22.3656 3.54465 22.3881H1.73648ZM7.61165 39.7059C7.52227 39.7499 7.42131 39.7658 7.32244 39.7515C7.22358 39.7371 7.13157 39.6932 7.05889 39.6257C6.98428 39.5603 6.93194 39.4739 6.90901 39.3782C6.88608 39.2825 6.89367 39.1822 6.93074 39.0909L7.35753 37.9882C7.39554 38.0128 7.43681 38.0331 7.47482 38.0577C7.61599 38.1465 7.76043 38.2278 7.90921 38.3112C8.05799 38.3946 8.2274 38.4962 8.3903 38.5807C8.55319 38.6652 8.70741 38.7379 8.86705 38.8139C8.97021 38.862 9.06904 38.9208 9.17221 38.9625L7.61165 39.7059ZM22.5982 39.6267C22.5256 39.6944 22.4336 39.7384 22.3347 39.7528C22.2358 39.7671 22.1348 39.7511 22.0454 39.7069L20.4903 38.9658C20.5989 38.9166 20.7075 38.8588 20.8107 38.8085C20.9649 38.7358 21.1202 38.6631 21.2711 38.5839C21.4221 38.5048 21.5969 38.4053 21.7544 38.3123C21.9119 38.2192 22.0444 38.1465 22.1888 38.0577C22.2257 38.0342 22.2659 38.0139 22.2974 37.9903L22.7231 39.092C22.761 39.1827 22.7695 39.2827 22.7475 39.3784C22.7256 39.4741 22.6742 39.5608 22.6004 39.6267H22.5982ZM22.2225 36.5315C22.1616 36.5764 22.0965 36.6149 22.0346 36.6588C21.397 37.1105 20.7148 37.4978 19.9984 37.8149C19.8811 37.8663 19.766 37.9219 19.6465 37.9743C19.6183 37.9861 19.5879 37.9946 19.5596 38.0053C19.2794 38.1123 18.996 38.2192 18.706 38.3101C16.1811 39.1123 13.464 39.1123 10.9391 38.3101C10.8392 38.2791 10.7436 38.2385 10.6437 38.2032C9.49113 37.814 8.4073 37.25 7.43138 36.5315C4.67733 34.4994 3.09722 31.4887 3.09722 28.2748C3.0923 26.5305 3.56138 24.8166 4.45579 23.3111C4.63101 23.0013 4.82465 22.7021 5.0357 22.4148C5.35414 21.9738 5.56656 21.4673 5.65688 20.9335C5.74084 20.4181 5.70374 19.8906 5.54843 19.3915C5.39312 18.8923 5.12373 18.4349 4.76095 18.0543L3.59677 16.8276C3.5702 16.802 3.55237 16.7689 3.54576 16.7329C3.53914 16.6968 3.54407 16.6597 3.55985 16.6265C3.57339 16.5921 3.59751 16.5626 3.62885 16.5423C3.66019 16.522 3.69719 16.5118 3.73469 16.5131H25.9105C25.9487 16.5113 25.9867 16.5213 26.0188 16.5419C26.051 16.5624 26.0758 16.5924 26.0896 16.6276C26.1055 16.6612 26.1103 16.6989 26.1032 16.7354C26.0962 16.7718 26.0778 16.8052 26.0505 16.8308L24.8929 18.0543C24.5302 18.4354 24.2609 18.8932 24.1056 19.3927C23.9503 19.8921 23.9131 20.4199 23.997 20.9357C24.0823 21.4726 24.2947 21.9822 24.617 22.4234C24.7332 22.5849 24.8342 22.7378 24.9352 22.8886C25.0362 23.0394 25.1177 23.1785 25.1959 23.3164V23.3271C26.0865 24.8296 26.5533 26.5392 26.5479 28.279C26.5577 31.4865 24.9787 34.4973 22.2246 36.5315H22.2225ZM28.3974 21.9175C28.3971 22.0403 28.3493 22.1585 28.2638 22.248C28.1721 22.3373 28.0485 22.3876 27.9195 22.3881H26.1114C26.0983 22.3667 26.0799 22.3421 26.0668 22.3207C25.9398 22.1185 25.8019 21.9111 25.6411 21.6886C25.5909 21.611 25.5452 21.5307 25.5043 21.4479H27.9195C28.0461 21.4479 28.1674 21.4974 28.257 21.5854C28.3466 21.6734 28.3971 21.7928 28.3974 21.9175ZM9.35682 8.96549C9.86832 9.37832 10.4667 10.0029 10.4167 10.6436C10.3668 11.2842 9.69456 11.8008 9.43936 11.9484C9.36763 11.9889 9.30473 12.0429 9.25426 12.1073C9.20379 12.1718 9.16674 12.2455 9.14525 12.3241C9.12376 12.4027 9.11824 12.4847 9.12902 12.5654C9.13979 12.6461 9.16665 12.7239 9.20804 12.7944C9.26311 12.8883 9.34224 12.9664 9.43751 13.0208C9.53279 13.0753 9.64089 13.1041 9.75103 13.1046C9.86131 13.1046 9.96962 13.0758 10.0649 13.0211C10.1257 12.9869 11.5483 12.1655 11.6656 10.7484C11.7438 9.80293 11.2312 8.87993 10.1452 8.00612C9.63483 7.59435 9.03537 6.96974 9.08641 6.32803C9.13745 5.68631 9.80751 5.1708 10.0638 5.02321C10.2079 4.94074 10.3128 4.80532 10.3556 4.64669C10.3984 4.48806 10.3754 4.3192 10.2919 4.17721C10.2506 4.10676 10.1956 4.04502 10.1301 3.9955C10.0646 3.94598 9.98981 3.90965 9.91004 3.8886C9.83027 3.86754 9.74707 3.86217 9.66519 3.87279C9.58331 3.8834 9.50436 3.9098 9.43284 3.95047C9.37203 3.98576 7.94939 4.80609 7.8321 6.22322C7.76477 7.16868 8.27519 8.09168 9.359 8.96549H9.35682ZM14.4284 8.96549C14.9388 9.37726 15.5371 10.0029 15.4872 10.6436C15.4372 11.2842 14.765 11.8008 14.5098 11.9484C14.4381 11.9889 14.3752 12.0429 14.3247 12.1074C14.2743 12.1719 14.2373 12.2456 14.2159 12.3242C14.1945 12.4028 14.1891 12.4849 14.2 12.5656C14.211 12.6463 14.238 12.724 14.2796 12.7944C14.3347 12.8883 14.4138 12.9664 14.509 13.0208C14.6043 13.0753 14.7124 13.1041 14.8226 13.1046C14.9329 13.1047 15.0412 13.0759 15.1364 13.0211C15.1972 12.9869 16.6199 12.1655 16.7372 10.7484C16.8154 9.80293 16.3028 8.87993 15.2168 8.00612C14.7064 7.59435 14.108 6.96974 14.158 6.32803C14.2079 5.68631 14.879 5.17187 15.1353 5.02321C15.2066 4.98248 15.2691 4.92831 15.3192 4.86381C15.3692 4.7993 15.4059 4.72571 15.4271 4.64725C15.4482 4.56879 15.4535 4.487 15.4426 4.40653C15.4317 4.32606 15.4048 4.2485 15.3634 4.17828C15.3222 4.10775 15.2673 4.04589 15.2018 3.99627C15.1364 3.94664 15.0616 3.91021 14.9818 3.88905C14.902 3.8679 14.8188 3.86243 14.7369 3.87297C14.655 3.88351 14.576 3.90984 14.5044 3.95047C14.4436 3.98576 13.0209 4.80609 12.9036 6.22322C12.8352 7.16868 13.3456 8.09168 14.4305 8.96549H14.4284ZM12.9894 36.1946C8.54668 35.4032 6.79934 32.5582 6.11191 30.3122C6.08829 30.2341 6.04924 30.1614 5.99699 30.0983C5.94475 30.0351 5.88034 29.9827 5.80747 29.9442C5.73461 29.9056 5.65472 29.8816 5.57241 29.8735C5.49009 29.8655 5.40698 29.8735 5.32783 29.8972C5.16805 29.9447 5.03393 30.0527 4.95493 30.1975C4.87592 30.3422 4.85849 30.512 4.90647 30.6694C5.69381 33.2481 7.69636 36.5101 12.7657 37.4075C12.8015 37.414 12.8379 37.4173 12.8743 37.4171C13.0217 37.4169 13.1643 37.3659 13.2774 37.2729C13.3905 37.1799 13.4669 37.0508 13.4933 36.908C13.521 36.7481 13.484 36.5839 13.3902 36.4505C13.2964 36.3172 13.1533 36.2253 12.9916 36.1946H12.9894ZM5.09977 28.6662C5.26647 28.6547 5.42172 28.5785 5.53146 28.4544C5.6412 28.3303 5.69646 28.1684 5.68512 28.0042C5.66555 27.759 5.65902 27.5131 5.66557 27.2673C5.67324 27.1032 5.61457 26.9429 5.5024 26.8214C5.39023 26.6999 5.23373 26.6271 5.06719 26.6191C4.98462 26.6148 4.90199 26.6266 4.82408 26.6539C4.74616 26.6812 4.6745 26.7234 4.61322 26.7781C4.55195 26.8327 4.50227 26.8988 4.46704 26.9725C4.43182 27.0462 4.41176 27.126 4.408 27.2074C4.39949 27.502 4.40638 27.7969 4.42864 28.0908C4.44014 28.2471 4.51122 28.3934 4.62763 28.5003C4.74403 28.6072 4.89717 28.6669 5.05633 28.6673L5.09977 28.6662ZM32.0321 0.119424C31.8408 0.0409643 31.6357 0.000378298 31.4285 2.63226e-06C31.2212 -0.000373034 31.0159 0.039465 30.8243 0.11723C30.6327 0.194996 30.4585 0.309169 30.3117 0.453234C30.1649 0.597298 30.0484 0.768432 29.9688 0.95686L26.2949 9.65533L19.3761 6.82108C19.3124 6.79481 19.2441 6.78119 19.1751 6.78101C19.1061 6.78083 19.0378 6.7941 18.974 6.82005C18.9102 6.84599 18.8522 6.8841 18.8034 6.93218C18.7547 6.98027 18.716 7.03737 18.6898 7.10022L18.0262 8.6703C17.566 9.76409 17.565 10.993 18.0234 12.0875C18.4819 13.182 19.3624 14.0528 20.4719 14.5088C21.5824 14.9624 22.8304 14.9635 23.9418 14.512C25.0532 14.0604 25.9374 13.1931 26.4002 12.1003L30.9386 1.35365C30.9923 1.22728 31.0947 1.127 31.2233 1.0747C31.3519 1.0224 31.4962 1.02233 31.6249 1.07451C31.6887 1.10061 31.7466 1.13884 31.7953 1.18699C31.8441 1.23515 31.8827 1.29231 31.909 1.35518C31.9354 1.41805 31.9489 1.48541 31.9487 1.55342C31.9486 1.62142 31.9349 1.68875 31.9083 1.75152L31.7074 2.22853C31.6537 2.35519 31.6533 2.49765 31.7063 2.6246C31.7592 2.75156 31.8612 2.85261 31.9898 2.90554C32.1186 2.95776 32.2631 2.95772 32.3919 2.90543C32.5207 2.85314 32.6232 2.75284 32.6772 2.62639L32.8781 2.14832C33.0389 1.7694 33.0407 1.3432 32.8832 0.96297C32.7256 0.582739 32.4216 0.279437 32.0376 0.119424H32.0321ZM20.878 13.5527C20.1616 13.2581 19.5653 12.7367 19.1836 12.0709C18.8018 11.4052 18.6563 10.6331 18.7701 9.87673L25.0113 12.434C24.5473 13.0457 23.8896 13.4878 23.1421 13.6904C22.3946 13.893 21.5999 13.8445 20.8834 13.5527H20.878ZM25.5119 11.5206L19.0818 8.88206L19.4651 7.9751L25.8996 10.6104L25.5119 11.5206Z" fill="#00305B"/>
</svg>
