<svg width="24" height="42" viewBox="0 0 24 42" fill="none" xmlns="http://www.w3.org/2000/svg">
<path fill-rule="evenodd" clip-rule="evenodd" d="M21.4957 1.71341L20.7091 3.48774L22.0019 4.06076C22.9615 4.48609 23.3962 5.61271 22.9708 6.57233L21.426 10.0574C21.3371 10.2584 21.2167 10.436 21.0742 10.588L21.1982 10.643C21.9122 10.9592 22.2357 11.7977 21.9192 12.5118L21.3299 13.8414C21.1719 14.1983 20.883 14.4578 20.5447 14.5883C20.2064 14.7188 19.8183 14.7205 19.4613 14.5622L18.773 14.2572C19.2717 15.4267 19.3045 16.7914 18.7499 18.0426C18.6267 18.3207 18.4785 18.5828 18.3093 18.8276C18.4986 18.8793 18.6615 19.0162 18.7374 19.213L19.8035 21.9764C19.9302 22.3049 19.7667 22.6745 19.4379 22.8013L18.0561 23.3343C16.7021 23.8567 15.2967 24.0222 13.9441 23.8773C14.1776 24.2643 14.3574 24.6875 14.4753 25.1379C14.5644 25.4788 14.3609 25.8268 14.0194 25.9164C13.6785 26.0057 13.3299 25.8015 13.2406 25.4606C12.9734 24.4385 12.2695 23.6062 11.3085 23.1731L11.2933 23.1665L11.2663 23.1544C10.4246 22.7883 9.49085 22.7678 8.6335 23.0986C7.76895 23.4321 7.08601 24.0827 6.71029 24.9299C6.33466 25.7774 6.31157 26.7202 6.64519 27.585C6.97477 28.4393 7.61374 29.1158 8.44619 29.494L8.45733 29.4983C8.46462 29.501 8.47185 29.5037 8.4789 29.5068L8.48553 29.5099L8.49592 29.5153L8.49595 29.5153C8.49996 29.5174 8.50397 29.5195 8.50806 29.5215C9.48375 29.9427 10.5789 29.898 11.52 29.396C11.8297 29.2293 12.2172 29.3474 12.3833 29.6581C12.5491 29.969 12.432 30.3556 12.1209 30.5215C11.9455 30.6153 11.7657 30.6976 11.5831 30.768C10.6128 31.1423 9.55792 31.1854 8.56192 30.8943L8.14273 31.8401L10.3514 32.8193C10.673 32.9618 10.9196 33.2209 11.0462 33.549C11.1729 33.8773 11.164 34.2352 11.0214 34.5566L10.4902 35.7556C10.343 36.0872 10.0746 36.3284 9.75996 36.4497C9.44534 36.5711 9.08476 36.5726 8.75295 36.4258L8.74061 36.4201L7.07979 40.1676C6.75063 40.9098 6.15222 41.4797 5.39464 41.772C4.63705 42.0642 3.81096 42.0439 3.06862 41.7151C1.53629 41.0357 0.842135 39.2364 1.52127 37.7041L3.18232 33.9565L3.17008 33.9511C2.50627 33.6569 2.20557 32.8774 2.49988 32.2138L3.0311 31.0149C3.32555 30.351 4.10485 30.0506 4.76858 30.3446L6.976 31.3232L7.39505 30.3777C6.51234 29.8367 5.83354 29.0265 5.45462 28.0443C4.99829 26.8614 5.02995 25.5718 5.54346 24.4128C6.0572 23.2537 6.99155 22.3643 8.17444 21.9079C8.4379 21.8063 8.70673 21.7304 8.97835 21.6769C7.96187 20.7718 7.13988 19.6188 6.61724 18.2641L6.08421 16.8824C5.95745 16.5538 6.12127 16.1842 6.44984 16.0575L9.21301 14.9915C9.41043 14.9153 9.62206 14.9446 9.78747 15.0506C9.85393 14.7624 9.9477 14.4765 10.0717 14.1962C10.5856 13.0373 11.5198 12.1477 12.7027 11.6914C12.7449 11.6751 12.7873 11.6604 12.8297 11.6456L12.8297 11.6456L12.8297 11.6456L12.8583 11.6356L12.1729 11.3318C11.4588 11.0153 11.1357 10.177 11.4519 9.46298L12.0412 8.13342C12.3577 7.41934 13.196 7.09595 13.9101 7.41245L14.0342 7.46744C14.051 7.25978 14.1019 7.05156 14.1907 6.85058L15.7356 3.36548C16.161 2.40585 17.2873 1.97132 18.2472 2.39656L19.5426 2.97072L20.329 1.19647C20.4718 0.874234 20.8488 0.72882 21.171 0.871644C21.493 1.01456 21.6383 1.39126 21.4957 1.71341ZM4.93534 40.5814C5.37482 40.4118 5.72224 40.0812 5.91296 39.6505L7.57388 35.9032L4.34892 34.4738L2.688 38.2211C2.29395 39.1101 2.69673 40.1542 3.58579 40.5482C4.01662 40.7392 4.49585 40.7509 4.93534 40.5814ZM9.85489 34.0392C9.85667 34.0352 9.86168 34.0239 9.85566 34.0083C9.84965 33.9927 9.83805 33.9876 9.83418 33.9859L4.25141 31.5114C4.24109 31.5068 4.23013 31.5068 4.22036 31.5106C4.21059 31.5143 4.20226 31.5218 4.19792 31.532L3.66647 32.7311C3.65747 32.7514 3.6668 32.7756 3.6871 32.7846L4.28196 33.0482L4.28227 33.0483L4.2826 33.0485L6.47857 34.0216L9.26988 35.259C9.29042 35.2679 9.31437 35.2587 9.3236 35.2383L9.85482 34.0393L9.85489 34.0392ZM17.5968 22.1438L18.3833 21.8404L17.7766 20.2678L16.9902 20.5712C15.491 21.1495 13.8974 21.0703 12.5286 20.4755C12.5226 20.4729 12.5164 20.4705 12.5102 20.468C12.5027 20.465 12.4951 20.462 12.4877 20.4587L12.4714 20.451C12.4688 20.4497 12.4661 20.4484 12.4635 20.4471C12.4593 20.4451 12.455 20.4431 12.4508 20.4412C11.0895 19.8265 9.95921 18.6984 9.38042 17.1981L9.07712 16.4119L7.50451 17.0186L7.80781 17.8048C8.55381 19.7385 10.0116 21.1914 11.7674 21.9812C11.7727 21.9835 11.778 21.9856 11.7834 21.9877L11.7835 21.9878L11.7835 21.9878C11.791 21.9908 11.7985 21.9937 11.8059 21.9971C11.8165 22.0018 11.8269 22.0066 11.8374 22.0115L11.8587 22.0213C13.6194 22.7857 15.6689 22.8875 17.5968 22.1438ZM15.66 19.357C16.5245 19.0235 17.2077 18.3728 17.5834 17.5256C18.3586 15.7762 17.5663 13.7225 15.8171 12.947C14.9696 12.5714 14.0266 12.5484 13.162 12.8819C12.2972 13.2156 11.614 13.866 11.2386 14.7134C10.4632 16.4628 11.2554 18.5165 13.0049 19.2919C13.8521 19.6676 14.7952 19.6906 15.66 19.357ZM20.1633 13.3241L20.7526 11.9946C20.7723 11.9506 20.7649 11.9121 20.7553 11.8872C20.7458 11.8626 20.7253 11.8288 20.6812 11.8095L18.9146 11.0263L15.1597 9.36215L13.3932 8.57918C13.349 8.55962 13.3104 8.56678 13.2855 8.57638C13.2608 8.58589 13.2272 8.60662 13.2078 8.65068L12.6184 9.98C12.5873 10.0508 12.6193 10.1338 12.6899 10.1653L19.9782 13.3955C20.0488 13.4268 20.1319 13.395 20.1633 13.3241ZM20.2595 9.5404L21.804 6.05516C21.8721 5.90201 21.8763 5.73155 21.816 5.57528C21.7557 5.41879 21.638 5.29533 21.4848 5.22758L17.7299 3.56315C17.5718 3.49326 17.4 3.49383 17.25 3.55169C17.1003 3.60946 16.9723 3.72452 16.9021 3.88251L15.3576 7.36775C15.2895 7.5209 15.2853 7.69136 15.3456 7.84786C15.4059 8.00412 15.5236 8.12781 15.6769 8.19556L19.4316 9.85976C19.7478 9.99987 20.1192 9.85684 20.2595 9.5404ZM2.84108 18.5449C2.95277 18.2929 2.95961 18.0122 2.86039 17.755C2.76109 17.4976 2.5678 17.2944 2.31549 17.1825C1.15157 16.6666 0.62445 15.3003 1.14033 14.1364C1.28325 13.8144 1.65995 13.669 1.9821 13.8116C2.30434 13.9545 2.44975 14.3314 2.30693 14.6536C2.19524 14.9056 2.1884 15.1863 2.28762 15.4435C2.38692 15.7009 2.58044 15.9041 2.83252 16.016C3.99635 16.5317 4.52356 17.8983 4.00767 19.0622C3.93617 19.2231 3.80629 19.34 3.65398 19.3987C3.50167 19.4575 3.32694 19.4581 3.16591 19.3869C2.84367 19.2441 2.69826 18.8672 2.84108 18.5449ZM7.41279 10.4613C7.51201 10.7185 7.50517 10.9992 7.39348 11.2512C7.25065 11.5734 7.39607 11.9504 7.71831 12.0932C7.87943 12.1646 8.05416 12.164 8.20647 12.1052C8.35878 12.0465 8.48866 11.9296 8.56007 11.7685C9.07572 10.6046 8.54861 9.23827 7.38491 8.7223C7.1326 8.61046 6.93932 8.4072 6.8401 8.15002C6.7408 7.89261 6.74772 7.61212 6.85932 7.35989C7.00215 7.03765 6.85682 6.66095 6.53459 6.51813C6.21235 6.3753 5.83565 6.52063 5.69259 6.84296C5.17685 8.00656 5.70405 9.37315 6.86775 9.88912C7.11997 10.0007 7.31357 10.2041 7.41279 10.4613ZM13.0551 27.742C13.1231 27.5886 13.2516 27.4658 13.4087 27.4052C13.5652 27.3448 13.7435 27.3492 13.8969 27.4172C14.0503 27.4852 14.1733 27.6143 14.2337 27.7708C14.2943 27.928 14.2896 28.1056 14.2216 28.259C14.1538 28.4128 14.0245 28.5354 13.868 28.5958C13.7111 28.6563 13.5334 28.6522 13.3799 28.5837C13.2267 28.5162 13.1038 28.3873 13.0431 28.2301C12.9827 28.0736 12.9872 27.8954 13.0551 27.742Z" fill="#00305B"/>
</svg>
