<svg width="34" height="41" viewBox="0 0 34 41" fill="none" xmlns="http://www.w3.org/2000/svg">
<path d="M10.4446 21.4503C10.0526 21.7614 9.60904 22.159 9.09179 22.1386C8.4622 22.123 8.65763 21.4839 8.97477 21.1632C9.70383 20.4725 10.4411 19.7517 10.8706 18.804C11.4405 17.4682 10.372 17.0514 9.26031 17.1403C9.03652 17.1519 8.81348 17.1756 8.59209 17.2112C8.36858 17.2448 8.03974 17.3313 7.98357 17.0442C7.96952 16.2838 8.68571 15.8309 9.09881 15.2255C9.4218 14.745 9.81617 14.0904 9.50021 13.4946C9.28488 13.1402 8.87295 12.9648 8.47975 12.9552C8.18846 13.0258 7.91129 13.1478 7.66058 13.3156C7.29429 13.5414 7.03098 13.9258 6.72438 14.1841C6.59799 14.2742 6.25628 14.2874 6.19543 14.1528C6.1653 14.04 6.16209 13.9213 6.18606 13.8069C6.35575 12.9912 6.93619 12.3078 7.47334 11.7023C7.88409 11.3035 8.45635 10.5155 7.72026 10.0975C7.29429 9.9029 6.79693 10.0206 6.41543 10.2633C6.1217 10.4579 5.75775 10.9191 5.41253 10.6044C5.24987 10.3894 5.49211 10.0975 5.60211 9.89449L6.03744 9.15093L6.90226 7.66021L5.97308 9.11009C5.80924 9.38637 5.43008 9.92813 5.28731 10.214C5.09773 10.5852 5.38093 10.9047 5.75541 10.8579C6.06553 10.8218 6.27149 10.5708 6.51256 10.4206C6.83204 10.2212 7.29429 10.1239 7.62781 10.2897C8.17197 10.62 7.59855 11.2278 7.29663 11.527C7.09652 11.7348 6.90343 11.951 6.72204 12.1792C6.36043 12.6501 6.01287 13.1402 5.89116 13.754C5.84318 13.9883 5.85137 14.3907 6.1334 14.5012C6.25477 14.5546 6.38657 14.5783 6.5184 14.5704C6.65022 14.5624 6.77843 14.5231 6.89289 14.4555C7.24397 14.1805 7.47217 13.8225 7.8408 13.5979C8.05683 13.4579 8.29416 13.356 8.54294 13.2964C8.87529 13.3396 9.27669 13.5258 9.28839 13.909C9.30009 14.2922 9.05434 14.6934 8.83317 15.0153C8.4622 15.533 7.84196 16.0063 7.67345 16.697C7.53653 17.1703 7.80335 17.64 8.31357 17.6003C8.85072 17.5391 9.3785 17.4298 9.91448 17.4994C11.382 17.6388 10.4434 19.0706 9.89692 19.7481C9.62188 20.0875 9.32599 20.4085 9.01104 20.7091C8.83097 20.8605 8.6757 21.0406 8.55114 21.2425C8.21878 21.7746 8.4189 22.4197 9.09413 22.4149C9.57744 22.4245 9.98937 22.135 10.3428 21.8443C10.4727 21.7434 10.6939 21.5223 10.8343 21.4743C11.0098 21.4154 11.0941 21.5716 11.0601 21.7494C11.0235 21.9513 10.9227 22.1351 10.7734 22.2719C10.3369 22.7524 9.76 23.1392 9.37967 23.6906C9.0286 24.1554 9.30478 24.666 9.8583 24.6732C10.0776 24.6604 10.2931 24.6084 10.4949 24.5194C10.291 24.5945 10.0761 24.6331 9.85947 24.6335C9.36212 24.5975 9.12222 24.153 9.46042 23.7506C9.86532 23.2161 10.4376 22.8881 10.9045 22.4016C11.0846 22.2401 11.2079 22.0223 11.2556 21.7818C11.3363 21.1992 10.805 21.1007 10.4446 21.4503ZM11.9566 14.2573L10.7372 10.1347L10.1403 8.11788C9.99601 7.62916 9.7591 7.17448 9.44322 6.77994C9.12733 6.3854 8.73867 6.05876 8.29953 5.81873C7.86089 5.5775 7.38013 5.42763 6.88488 5.37774C6.38963 5.32785 5.88966 5.37893 5.4137 5.52804C4.93754 5.67575 4.49452 5.91862 4.11013 6.24268C3.72573 6.56675 3.40754 6.96562 3.17385 7.41636C2.93831 7.86639 2.79173 8.35975 2.74253 8.86811C2.69332 9.37646 2.74247 9.88978 2.88713 10.3786L6.87534 23.8515C7.01924 24.3403 7.25585 24.795 7.57156 25.1896C7.88727 25.5842 8.27586 25.9108 8.71497 26.1507C9.15363 26.3918 9.63439 26.5417 10.1296 26.5916C10.6249 26.6414 11.1248 26.5904 11.6008 26.4414C12.0769 26.2934 12.5198 26.0505 12.9041 25.7264C13.2885 25.4024 13.6068 25.0036 13.8407 24.553C14.0756 24.1028 14.2216 23.6093 14.2702 23.1009C14.3188 22.5926 14.2691 22.0794 14.1239 21.5908L12.922 17.5307L11.9566 14.2573ZM13.1268 24.1566C12.9436 24.5099 12.6943 24.8224 12.393 25.0764C12.0918 25.3304 11.7446 25.5207 11.3714 25.6365C10.9986 25.7536 10.6069 25.7938 10.2189 25.7549C9.83085 25.7159 9.45417 25.5985 9.11051 25.4095C8.7661 25.2217 8.46129 24.9658 8.21365 24.6566C7.96601 24.3473 7.78043 23.9909 7.6676 23.6077L3.68056 10.1359C3.56648 9.75305 3.52729 9.35078 3.56524 8.95228C3.6032 8.55378 3.71756 8.16692 3.90174 7.81397C4.08491 7.46074 4.33429 7.14816 4.63553 6.89418C4.93678 6.64021 5.28396 6.44985 5.65711 6.33406C6.03003 6.21664 6.42191 6.17614 6.81015 6.2149C7.19839 6.25366 7.57531 6.37091 7.9192 6.55989C8.26361 6.74768 8.56842 7.00357 8.81606 7.31281C9.06371 7.62205 9.24929 7.97854 9.36212 8.36173L9.95894 10.3786L11.1795 14.5L12.1485 17.7745L13.3492 21.8335C13.4625 22.2169 13.5008 22.6196 13.4619 23.0183C13.4229 23.4171 13.3074 23.8039 13.1221 24.1566H13.1268ZM33.7466 7.53889L30.9731 6.33766L30.9239 6.32085L27.9386 5.46317L24.9849 4.18987C24.9331 4.16669 24.8771 4.15473 24.8205 4.15473C24.7639 4.15473 24.708 4.16669 24.6561 4.18987C24.6049 4.21396 24.5591 4.24856 24.5215 4.29153C24.4838 4.33451 24.4552 4.38494 24.4373 4.43973L21.9622 12.1396L21.2951 13.8513L21.4473 8.626V8.60197L21.2214 0.571782C21.2189 0.466243 21.1775 0.365598 21.1057 0.290062C21.0338 0.214526 20.9368 0.169692 20.8341 0.164567L17.8254 0H17.7727L14.6821 0.240245L11.4826 0.0768783C11.426 0.074026 11.3694 0.0832248 11.3165 0.103897C11.2635 0.12457 11.2153 0.15627 11.1748 0.197001C11.1358 0.238533 11.1054 0.287691 11.0853 0.341553C11.0652 0.395414 11.0558 0.452877 11.0578 0.510521L11.2486 7.33948L9.77054 2.81807C9.73771 2.71802 9.66942 2.6343 9.57922 2.58356C9.48903 2.53282 9.38354 2.51876 9.28371 2.54419L6.35809 3.28415C6.34099 3.28866 6.32418 3.29428 6.30777 3.30097L3.41726 4.45054L0.310248 5.24935C0.255394 5.26351 0.203987 5.28918 0.159275 5.32474C0.114562 5.3603 0.0775116 5.40498 0.0504532 5.45596C0.0232895 5.50672 0.00666508 5.56271 0.00162975 5.62039C-0.00340558 5.67807 0.00325744 5.7362 0.021197 5.79111L2.53255 13.4789L4.59219 21.2629L4.59921 21.2869L7.0895 28.9027C7.12155 29.0016 7.18834 29.0846 7.27683 29.1357C7.36531 29.1868 7.46916 29.2022 7.56813 29.179L10.4937 28.439C10.5105 28.4346 10.5269 28.429 10.5429 28.4222L11.7319 27.9489L15.0636 39.1972C15.0792 39.25 15.1049 39.2992 15.139 39.3419C15.1732 39.3846 15.2153 39.4199 15.2628 39.4459C15.3102 39.4719 15.3623 39.488 15.4158 39.4934C15.4694 39.4987 15.5235 39.4932 15.575 39.4771C15.6265 39.461 15.6744 39.4347 15.716 39.3996C15.7575 39.3645 15.792 39.3214 15.8173 39.2726C15.8426 39.2239 15.8583 39.1705 15.8635 39.1155C15.8687 39.0605 15.8633 39.005 15.8476 38.9521L12.5007 27.6438L13.4369 27.2714L15.9904 26.6143V36.9629C15.9904 37.0744 16.0336 37.1813 16.1104 37.2602C16.1872 37.339 16.2914 37.3833 16.4 37.3833C16.5086 37.3833 16.6128 37.339 16.6896 37.2602C16.7664 37.1813 16.8096 37.0744 16.8096 36.9629V27.7976L16.8295 27.8084L19.603 29.0156L19.6521 29.0324L20.8797 29.3856L16.9769 40.4368C16.9585 40.4887 16.9502 40.5438 16.9526 40.599C16.955 40.6542 16.968 40.7083 16.9908 40.7583C17.0137 40.8083 17.0459 40.8532 17.0857 40.8904C17.1255 40.9276 17.172 40.9563 17.2227 40.975C17.3248 41.0129 17.4374 41.0076 17.5357 40.9603C17.634 40.9129 17.71 40.8275 17.7469 40.7227L21.6708 29.6114L22.6374 29.8889L25.59 31.1634C25.6422 31.1856 25.6984 31.1966 25.755 31.1955C25.8116 31.1945 25.8673 31.1815 25.9188 31.1574C25.97 31.1336 26.0158 31.0993 26.0535 31.0565C26.0911 31.0137 26.1198 30.9634 26.1376 30.9087L28.6174 23.2089L31.5138 15.7108L31.5219 15.6868L33.9795 8.05902C34.0118 7.95816 34.0058 7.84847 33.9626 7.75199C33.9194 7.65551 33.8422 7.57937 33.7466 7.53889ZM21.0096 25.2305H21.0201C21.0662 25.3804 21.1581 25.511 21.2823 25.6029C21.4654 25.7281 21.6686 25.8192 21.8826 25.872C21.6751 25.8068 21.4799 25.7057 21.3057 25.5729C21.1994 25.4831 21.1219 25.3625 21.0833 25.2269C21.1719 25.2138 21.254 25.1717 21.3174 25.1068C21.3563 25.0655 21.3868 25.0165 21.4069 24.9629C21.427 24.9092 21.4363 24.8519 21.4344 24.7945V24.6359C21.4566 24.6281 21.4793 24.6217 21.5023 24.6167C22.1389 24.4377 22.7895 24.5266 23.4461 24.4245C23.6851 24.4073 23.9119 24.3093 24.0909 24.1458C24.5016 23.7326 24.1342 23.3266 23.6415 23.3854C23.1453 23.3927 22.5578 23.4383 22.1564 23.1044C21.6614 22.7032 22.1916 22.3128 22.6351 22.2539C23.6228 22.1482 24.6339 22.0245 25.5303 21.5332C26.7672 20.8124 26.1552 19.8226 25.2131 19.2112C25.0247 19.0827 24.8375 18.9709 24.6362 18.8508C24.4349 18.7307 24.1225 18.6106 24.2465 18.3439C24.6795 17.7253 25.5209 17.807 26.202 17.5739C26.7415 17.3877 27.4389 17.1066 27.5337 16.4352C27.5688 16.0183 27.3418 15.6255 27.0329 15.3757C26.7563 15.2518 26.4609 15.1782 26.1599 15.1583C25.7351 15.1138 25.2997 15.2592 24.9007 15.2784C24.7485 15.2784 24.463 15.0694 24.4958 14.9288C24.5374 14.8197 24.604 14.7224 24.69 14.6453C25.3032 14.0976 26.1669 13.9066 26.9509 13.7528C27.5115 13.6868 28.4313 13.4081 28.0861 12.6213C27.8579 12.2032 27.391 11.9918 26.9439 11.951C26.5929 11.9258 26.0346 12.0711 25.9434 11.6062C25.9434 11.3348 26.3026 11.2459 26.5086 11.1558L27.2915 10.8278L28.8538 10.1672L27.2646 10.7558C26.972 10.8759 26.3518 11.0765 26.0698 11.217C25.7023 11.3972 25.7421 11.8273 26.0698 12.0195C26.3389 12.1816 26.6549 12.1071 26.9322 12.1396C27.3044 12.1756 27.7315 12.3798 27.9012 12.721C28.1434 13.3216 27.3301 13.4537 26.9135 13.5066C26.6315 13.551 26.3518 13.6051 26.0733 13.6759C25.508 13.8297 24.9405 14.0123 24.4876 14.4255C24.312 14.5841 24.0838 14.906 24.2453 15.1727C24.3115 15.29 24.4034 15.39 24.5137 15.4646C24.624 15.5392 24.7496 15.5865 24.8808 15.6027C25.3255 15.6027 25.714 15.4526 26.14 15.4994C26.3942 15.5208 26.6432 15.585 26.8772 15.6892C27.1113 15.9294 27.3301 16.3234 27.1113 16.6382C26.8924 16.9529 26.4653 17.1187 26.1025 17.2388C25.5022 17.425 24.7298 17.4214 24.1892 17.873C23.8042 18.1685 23.7433 18.7139 24.1751 18.9902C24.6432 19.2713 25.1265 19.5079 25.5151 19.8947C26.6081 20.9085 25.0212 21.4767 24.188 21.6821C23.7703 21.7845 23.3465 21.8591 22.9194 21.9055C22.6868 21.9154 22.4572 21.9637 22.2395 22.0485C21.6638 22.2707 21.4461 22.9098 21.9903 23.3206C22.3718 23.6257 22.8703 23.6473 23.3232 23.6329C23.4858 23.6329 23.7913 23.5873 23.9329 23.6329C24.1072 23.6942 24.0838 23.8731 23.9528 23.9933C23.8051 24.1315 23.6171 24.2159 23.418 24.2335C22.7872 24.3536 22.1003 24.3032 21.473 24.511C21.459 24.511 21.4461 24.5206 21.4321 24.5254L21.315 20.1241L24.8363 10.154C25.1053 9.39966 25.6544 8.78547 26.3635 8.44581C26.7163 8.27555 27.0983 8.17855 27.4878 8.16041C27.8772 8.14227 28.2663 8.20334 28.6326 8.34011C28.9996 8.47582 29.3368 8.68473 29.6248 8.9548C29.9128 9.22487 30.146 9.55077 30.3107 9.91371C30.4765 10.2761 30.5708 10.6685 30.5882 11.0685C30.6057 11.4684 30.546 11.8679 30.4125 12.2441L29.7104 14.2249L28.2815 18.2754L27.1452 21.4923L25.7409 25.4816C25.6085 25.8581 25.4049 26.2039 25.1418 26.4994C24.8787 26.7948 24.5613 27.0339 24.2079 27.2029C23.8548 27.373 23.4725 27.4699 23.0829 27.4878C22.6933 27.5057 22.3041 27.4444 21.9376 27.3074C21.5708 27.1715 21.2339 26.9625 20.9461 26.6925C20.6583 26.4224 20.4253 26.0966 20.2606 25.7338C20.1805 25.5567 20.117 25.372 20.0711 25.1825L21.0096 25.2305ZM13.2122 26.4642C13.1955 26.4683 13.1791 26.4735 13.1631 26.4798L10.2737 27.6306L7.74132 28.266L5.37508 21.0298L3.31545 13.2459L3.30842 13.2219L0.933989 5.95207L3.63609 5.25776L3.68524 5.24215L6.57459 4.09137L9.10817 3.45112L11.4744 10.6873L13.5364 18.476L13.5434 18.4989L15.9179 25.7687L13.2122 26.4642ZM15.8242 22.8461L15.4041 21.5608C15.525 21.5674 15.646 21.5674 15.7669 21.5608C15.6434 21.562 15.5199 21.556 15.3971 21.5428L15.046 20.4797C15.5738 20.1193 16.1893 19.9716 16.7546 19.6568C16.9729 19.5563 17.153 19.385 17.2671 19.1691C17.5164 18.6358 17.0331 18.3835 16.5931 18.6118C16.125 18.792 15.5914 19.0394 15.1034 18.8664C14.5054 18.6622 14.8693 18.1097 15.2707 17.8995C16.1648 17.455 17.0741 16.9853 17.7528 16.2069C18.6761 15.0982 17.7715 14.3811 16.6832 14.1336C16.4644 14.0796 16.249 14.0363 16.0232 14.0027C15.7973 13.969 15.4603 13.957 15.4884 13.6615C15.6908 12.9288 16.5088 12.7114 17.0705 12.2537C17.5164 11.8933 18.0793 11.3816 17.9447 10.7173C17.8394 10.3137 17.4953 10.023 17.1255 9.89689C16.8249 9.87746 16.5232 9.9116 16.2338 9.9978C15.8184 10.1047 15.4579 10.3942 15.0881 10.5492C14.943 10.5972 14.6072 10.5059 14.592 10.3618C14.5943 10.2446 14.6248 10.1299 14.6809 10.0278C15.0741 9.29868 15.8231 8.81699 16.5088 8.39777C17.0144 8.1395 17.7867 7.55691 17.2004 6.93707C16.8494 6.62356 16.338 6.58752 15.905 6.70524C15.5691 6.80494 15.0858 7.13648 14.8518 6.73287C14.7558 6.47821 15.0706 6.2728 15.2333 6.11063L15.8605 5.52924L17.1103 4.36045L15.8114 5.47038C15.5773 5.6854 15.0601 6.09141 14.8412 6.32205C14.5557 6.61995 14.7359 7.01035 15.1057 7.07762C15.4135 7.13528 15.6815 6.9575 15.9541 6.88422C16.3169 6.78932 16.7873 6.83497 17.0588 7.09323C17.486 7.57372 16.7651 7.98094 16.3918 8.17434C16.1414 8.31488 15.8956 8.46383 15.6569 8.6272C15.1771 8.96955 14.7043 9.33953 14.4164 9.88608C14.2994 10.0963 14.1976 10.4867 14.4363 10.6741C14.538 10.7595 14.6576 10.8197 14.7857 10.8499C14.9137 10.8801 15.0469 10.8796 15.1747 10.8483C15.5925 10.6909 15.9085 10.4146 16.3251 10.3101C16.57 10.2413 16.8241 10.2141 17.0776 10.2296C17.383 10.3714 17.7154 10.6681 17.6171 11.0381C17.5187 11.408 17.17 11.7192 16.8681 11.9618C16.3672 12.3462 15.6393 12.6141 15.2812 13.2267C15.0168 13.6399 15.1396 14.1672 15.6323 14.2826C16.1636 14.3835 16.6996 14.4363 17.1923 14.6634C18.5568 15.2339 17.2531 16.3234 16.5381 16.8087C16.1795 17.0507 15.8062 17.269 15.4205 17.4622C15.2069 17.5526 15.0092 17.6784 14.8354 17.8346C14.3673 18.2442 14.3743 18.9217 15.0226 19.1175C15.4825 19.2713 15.9588 19.1175 16.3789 18.9445C16.5311 18.8869 16.8014 18.7403 16.9547 18.7367C17.1384 18.7367 17.1759 18.9085 17.0928 19.0682C16.9999 19.2505 16.851 19.3962 16.6691 19.4827C16.1437 19.7974 15.5235 19.992 15.0168 20.3644L14.3228 18.2382L13.3246 14.4664V5.75747C13.3238 5.35714 13.4002 4.96061 13.5494 4.59075C13.6987 4.22088 13.9178 3.885 14.1941 3.60247C14.4693 3.31885 14.7965 3.09397 15.1569 2.94078C15.5172 2.7876 15.9035 2.70915 16.2935 2.70996C16.6835 2.70935 17.0697 2.78789 17.43 2.94106C17.7903 3.09423 18.1176 3.31901 18.3929 3.60247C18.669 3.88516 18.888 4.22107 19.0372 4.5909C19.1864 4.96073 19.263 5.35718 19.2624 5.75747V19.8382C19.2628 20.2385 19.1861 20.6349 19.0369 21.0047C18.8877 21.3745 18.6689 21.7104 18.3929 21.9932C18.1174 22.2765 17.7901 22.5011 17.4299 22.6543C17.0696 22.8074 16.6834 22.8861 16.2935 22.8857C16.1363 22.8851 15.9793 22.8714 15.8242 22.8449V22.8461ZM16.3122 24.3416L16.1098 23.7206C16.1706 23.7206 16.2268 23.7278 16.2923 23.7278C16.7898 23.7282 17.2825 23.6278 17.7422 23.4323C18.2019 23.2369 18.6194 22.9504 18.971 22.589C19.323 22.2281 19.6022 21.7995 19.7926 21.3277C19.983 20.8559 20.0808 20.3501 20.0804 19.8394V5.75747C20.0809 5.24676 19.9831 4.74099 19.7928 4.26914C19.6024 3.7973 19.3231 3.36868 18.971 3.00787C18.6194 2.64654 18.2019 2.35996 17.7422 2.16456C17.2825 1.96915 16.7898 1.86875 16.2923 1.86911C15.7948 1.86855 15.302 1.96886 14.8423 2.16428C14.3827 2.3597 13.9651 2.64638 13.6136 3.00787C13.2611 3.36836 12.9816 3.79693 12.7912 4.26884C12.6008 4.74075 12.5032 5.24669 12.5042 5.75747V11.3756L12.2608 10.4591L12.2538 10.435L12.0619 9.84644L12.097 8.6308V8.60558L11.884 0.94176L14.6669 1.08351C14.6836 1.0847 14.7004 1.0847 14.7172 1.08351L17.8078 0.843261L20.4128 0.986205L20.6281 8.61639L20.394 16.679V16.7042L20.607 24.3669L17.8242 24.2251H17.7739L16.3122 24.3416ZM16.8084 26.6396V26.2564C16.8578 26.1562 16.8667 26.0401 16.833 25.9332L16.8131 25.8636V25.1428L17.3058 25.1044L16.8084 26.6396ZM30.7484 15.4129L27.8509 22.9122L27.8427 22.935L25.5022 30.2144L22.9276 29.1069L22.8797 29.0901L19.8944 28.2324L17.493 27.1873L18.1682 25.0888L19.2215 25.1416C19.2796 25.4706 19.3791 25.7904 19.5175 26.093C19.7279 26.5558 20.0253 26.9714 20.3926 27.3159C20.7599 27.6603 21.1899 27.9269 21.6579 28.1003C22.1254 28.275 22.622 28.3532 23.1191 28.3304C23.6161 28.3075 24.1039 28.184 24.5543 27.9669C25.0049 27.7505 25.4095 27.4447 25.7447 27.0673C26.0799 26.6898 26.3391 26.2481 26.5074 25.7675L27.9117 21.7794L29.048 18.5625L30.4781 14.512L31.1802 12.53C31.3505 12.0501 31.4267 11.5404 31.4044 11.0302C31.3821 10.5199 31.2618 10.0193 31.0503 9.55695C30.8398 9.09425 30.5424 8.67876 30.1751 8.33431C29.8078 7.98986 29.3778 7.72323 28.9099 7.5497C28.4424 7.37491 27.9459 7.29671 27.4488 7.31959C26.9517 7.34247 26.464 7.46599 26.0136 7.68303C25.5627 7.89896 25.1578 8.20422 24.8223 8.58126C24.4867 8.9583 24.227 9.39969 24.0581 9.88008L21.2437 17.849L21.2109 16.6934L21.2214 16.321L22.7217 12.4387L22.7299 12.4159L25.0704 5.13524L27.6449 6.24277L27.6929 6.25958L30.6782 7.11726L33.0795 8.16232L30.7484 15.4129Z" fill="#00305B"/>
</svg>
