<svg width="32" height="34" viewBox="0 0 32 34" fill="none" xmlns="http://www.w3.org/2000/svg">
<path d="M28.0983 20.8368C28.1535 19.9153 28.0768 18.9906 27.8703 18.0905C27.7378 17.5332 27.5711 16.9845 27.3712 16.4473C31.8302 22.0233 26.8029 30.656 19.7041 29.6186C24.3127 28.9278 27.772 25.504 28.0983 20.8368ZM15.8292 11.1661C15.6768 11.1661 15.5308 11.1061 15.4231 10.9993C15.3154 10.8924 15.2548 10.7475 15.2548 10.5965C15.2548 10.4453 15.3153 10.3003 15.423 10.1934C15.5307 10.0864 15.6768 10.0263 15.8292 10.0261C15.9815 10.0263 16.1276 10.0864 16.2353 10.1934C16.343 10.3003 16.4035 10.4453 16.4035 10.5965C16.4036 10.6713 16.3888 10.7455 16.36 10.8147C16.3311 10.8839 16.2889 10.9468 16.2355 10.9997C16.1822 11.0527 16.1188 11.0947 16.0491 11.1234C15.9794 11.1521 15.9046 11.1668 15.8292 11.1668V11.1661ZM18.6731 7.93663C18.7486 7.93663 18.8232 7.95136 18.8929 7.97999C18.9626 8.00862 19.0259 8.05057 19.0793 8.10347C19.1326 8.15637 19.1749 8.21917 19.2037 8.28828C19.2326 8.35739 19.2475 8.43146 19.2475 8.50627C19.2475 8.65742 19.187 8.80239 19.0793 8.90933C18.9716 9.01628 18.8255 9.07646 18.6731 9.07665C18.5976 9.07665 18.5229 9.0619 18.4531 9.03323C18.3833 9.00457 18.3199 8.96256 18.2665 8.90959C18.2131 8.85663 18.1708 8.79375 18.1419 8.72455C18.113 8.65535 18.0981 8.58117 18.0981 8.50627C18.0985 8.35525 18.1592 8.21055 18.267 8.1039C18.3749 7.99726 18.5209 7.93737 18.6731 7.93737V7.93663ZM18.8422 11.1957C18.9535 11.1957 19.0603 11.2394 19.139 11.3174C19.2178 11.3954 19.2622 11.5012 19.2624 11.6116C19.2624 11.7221 19.2181 11.8281 19.1393 11.9063C19.0605 11.9844 18.9537 12.0283 18.8422 12.0283C18.7308 12.0283 18.624 11.9844 18.5452 11.9063C18.4664 11.8281 18.4221 11.7221 18.4221 11.6116C18.4225 11.5014 18.467 11.3957 18.5457 11.3179C18.6244 11.2401 18.7311 11.1964 18.8422 11.1964V11.1957ZM8.35343 22.6026L9.14972 23.3909C9.19757 23.4383 9.23555 23.4945 9.26145 23.5565C9.28736 23.6184 9.3007 23.6848 9.3007 23.7519C9.3007 23.8189 9.28736 23.8853 9.26145 23.9472C9.23555 24.0092 9.19757 24.0654 9.14972 24.1128C9.10179 24.16 9.04494 24.1973 8.98244 24.2227C8.91993 24.248 8.85299 24.2609 8.78546 24.2606C8.71805 24.2608 8.65125 24.2479 8.58887 24.2226C8.52649 24.1972 8.46977 24.1599 8.42195 24.1128L7.6279 23.3252C7.58004 23.2778 7.54207 23.2216 7.51616 23.1596C7.49025 23.0977 7.47692 23.0313 7.47692 22.9643C7.47692 22.8972 7.49025 22.8308 7.51616 22.7689C7.54207 22.707 7.58004 22.6507 7.6279 22.6033C7.72424 22.5081 7.85468 22.4547 7.99066 22.4547C8.12665 22.4547 8.25709 22.5081 8.35343 22.6033V22.6026ZM10.863 19.9199L11.657 20.7075C11.7533 20.8033 11.8074 20.9331 11.8074 21.0684C11.8074 21.2037 11.7533 21.3335 11.657 21.4293C11.6091 21.4765 11.5522 21.5138 11.4897 21.5392C11.4272 21.5645 11.3603 21.5774 11.2928 21.5771C11.2253 21.5775 11.1585 21.5646 11.0961 21.5392C11.0337 21.5139 10.977 21.4765 10.9293 21.4293L10.1352 20.6417C10.0873 20.5944 10.0494 20.5381 10.0235 20.4762C9.99756 20.4142 9.98422 20.3478 9.98422 20.2808C9.98422 20.2137 9.99756 20.1473 10.0235 20.0854C10.0494 20.0235 10.0873 19.9672 10.1352 19.9199C10.2318 19.8244 10.3627 19.7707 10.4991 19.7707C10.6355 19.7707 10.7663 19.8244 10.863 19.9199ZM11.9684 22.6455L13.3092 23.4124C13.3677 23.4458 13.419 23.4904 13.4602 23.5435C13.5013 23.5966 13.5315 23.6573 13.549 23.722C13.5665 23.7867 13.571 23.8542 13.5622 23.9206C13.5534 23.987 13.5314 24.0511 13.4976 24.1091C13.4524 24.1869 13.3873 24.2516 13.3088 24.2965C13.2303 24.3414 13.1413 24.3649 13.0507 24.3647C12.9604 24.3647 12.8718 24.341 12.7937 24.296L11.4529 23.5298C11.3348 23.462 11.2487 23.3505 11.2133 23.2197C11.178 23.089 11.1964 22.9497 11.2645 22.8324C11.2983 22.7739 11.3435 22.7226 11.3974 22.6815C11.4514 22.6404 11.513 22.6103 11.5787 22.593C11.6444 22.5756 11.7129 22.5713 11.7803 22.5803C11.8477 22.5893 11.9126 22.6114 11.9714 22.6455H11.9684ZM4.77795 24.3677C4.73002 24.4149 4.67318 24.4522 4.61067 24.4776C4.54816 24.5029 4.48122 24.5158 4.41369 24.5155C4.34628 24.5158 4.27946 24.5029 4.21708 24.4776C4.1547 24.4522 4.09798 24.4149 4.05019 24.3677C4.00233 24.3203 3.96436 24.2641 3.93845 24.2021C3.91254 24.1402 3.8992 24.0738 3.8992 24.0068C3.8992 23.9397 3.91254 23.8733 3.93845 23.8114C3.96436 23.7495 4.00233 23.6932 4.05019 23.6458L4.98801 22.7156C5.03575 22.6682 5.09247 22.6305 5.15491 22.6048C5.21735 22.5791 5.28429 22.5659 5.35189 22.5659C5.41949 22.5659 5.48643 22.5791 5.54887 22.6048C5.61131 22.6305 5.66802 22.6682 5.71577 22.7156C5.76363 22.763 5.8016 22.8192 5.82751 22.8812C5.85341 22.9431 5.86675 23.0095 5.86675 23.0766C5.86675 23.1436 5.85341 23.21 5.82751 23.2719C5.8016 23.3339 5.76363 23.3901 5.71577 23.4375L4.77795 24.3677ZM0.155153 25.125C0.222836 25.0599 0.307283 25.0144 0.399254 24.9937C0.491222 24.973 0.587164 24.9778 0.676579 25.0075L0.830769 25.0578C0.786421 24.7281 0.764025 24.3959 0.763727 24.0633C0.763727 24.0411 0.763727 24.0197 0.763727 23.9975C0.657354 23.9553 0.568409 23.8788 0.511211 23.7803C0.443144 23.663 0.424755 23.5237 0.460083 23.3929C0.495411 23.2622 0.581572 23.1507 0.699669 23.0828L0.838964 23.003C0.997862 21.9108 1.39783 20.8667 2.01034 19.9454C2.62285 19.0241 3.4328 18.2482 4.38241 17.6731C4.34831 17.5439 4.36705 17.4066 4.43455 17.2911C4.50294 17.1739 4.61537 17.0885 4.74719 17.0534C4.879 17.0184 5.01945 17.0366 5.13773 17.1042L5.30161 17.198C5.69091 17.0299 6.09384 16.8947 6.5061 16.7938C6.67866 16.4058 6.87211 16.0272 7.08562 15.6597L7.92735 14.2131L14.9204 2.20027C15.3178 1.50894 15.8981 0.938454 16.5986 0.550448C17.26 0.188243 18.0033 -0.00117825 18.7588 6.46404e-06C19.5143 -0.00127553 20.2577 0.188152 20.919 0.550448C21.6209 0.938082 22.2028 1.50856 22.6017 2.20027L29.594 14.2131L30.4357 15.6597C31.4561 17.3911 31.9958 19.3596 32 21.365C31.9889 24.3366 30.8251 27.19 28.75 29.3334C27.7109 30.4117 26.4672 31.2757 25.0904 31.8758C23.625 32.5087 22.0428 32.8326 20.4445 32.8267H17.0776C16.2282 32.8271 15.3813 32.7362 14.5517 32.5555C14.3437 32.9903 14.015 33.3571 13.6041 33.613C13.1932 33.8688 12.7172 34.0031 12.2321 33.9999H4.40327C3.84538 34.003 3.30182 33.8248 2.85565 33.4926C2.40948 33.1604 2.08523 32.6924 1.93246 32.1602L0.0210743 25.6348C-0.00563431 25.5451 -0.0069809 25.4498 0.0171909 25.3594C0.0413628 25.269 0.0901146 25.1869 0.158131 25.122L0.155153 25.125ZM6.45842 17.8629L6.47258 17.8711C6.59062 17.9388 6.67677 18.0501 6.7121 18.1808C6.74743 18.3114 6.72907 18.4506 6.66104 18.5678C6.61581 18.6456 6.55066 18.7103 6.47219 18.7552C6.39371 18.8001 6.30469 18.8236 6.2141 18.8234C6.12382 18.8235 6.03514 18.7998 5.95711 18.7547L5.25393 18.3521C4.45307 18.7757 3.74974 19.3598 3.1886 20.0673C2.62745 20.7749 2.22074 21.5904 1.99429 22.4622C2.07291 22.472 2.14817 22.4998 2.2142 22.5432C2.28023 22.5867 2.33524 22.6447 2.37493 22.7127C2.40883 22.7707 2.43085 22.8348 2.43973 22.9013C2.4486 22.9678 2.44416 23.0354 2.42665 23.1002C2.40915 23.165 2.37892 23.2257 2.3377 23.2789C2.29649 23.3321 2.24509 23.3767 2.18647 23.4101L1.80732 23.6274C1.79739 23.7717 1.79242 23.917 1.79242 24.0633C1.79261 24.4546 1.82851 24.845 1.89969 25.2299L2.58201 25.0083C2.68628 24.9743 2.79879 24.9743 2.90306 25.0083L3.85652 25.3193L4.80923 25.0083C4.9135 24.9743 5.02601 24.9743 5.13028 25.0083L6.08374 25.3193L7.03646 25.0083C7.14073 24.9743 7.25324 24.9743 7.35751 25.0083L8.31097 25.3193L9.26369 25.0083C9.36821 24.9742 9.48095 24.9742 9.58547 25.0083L10.5382 25.3193L11.4909 25.0083C11.5954 24.9742 11.7082 24.9742 11.8127 25.0083L12.7654 25.3193L13.7181 25.0083C13.8227 24.9742 13.9354 24.9742 14.0399 25.0083L14.7222 25.2299C14.7938 24.8451 14.8297 24.4546 14.8295 24.0633C14.8308 22.9764 14.554 21.9069 14.025 20.955L13.9073 21.0725C13.8104 21.1675 13.6794 21.2206 13.5431 21.2202C13.4068 21.2206 13.2758 21.1675 13.1788 21.0725C13.0825 20.9765 13.0284 20.8466 13.0284 20.7112C13.0284 20.5757 13.0825 20.4458 13.1788 20.3499L13.4462 20.0854C12.8597 19.3416 12.117 18.7332 11.2697 18.3025L10.5248 19.0414C10.4278 19.1364 10.2969 19.1895 10.1605 19.1892C10.0244 19.1895 9.89373 19.1364 9.79703 19.0414C9.7005 18.9455 9.64629 18.8156 9.64629 18.6801C9.64629 18.5446 9.7005 18.4147 9.79703 18.3188L10.232 17.8873C9.60889 17.6962 8.96025 17.5993 8.30799 17.5999C7.68292 17.5992 7.06101 17.6878 6.4614 17.8629H6.45842ZM7.42678 16.6276C7.60704 16.6069 7.78954 16.5924 7.97428 16.584C7.79308 16.5534 7.60707 16.5676 7.43274 16.6254L7.42678 16.6276ZM17.0716 31.5706H20.4385C21.8622 31.5764 23.2716 31.2885 24.5772 30.7254C26.4105 29.9232 27.9662 28.6051 29.0517 26.9344C30.14 25.2771 30.7218 23.3429 30.727 21.365C30.7237 19.5803 30.2433 17.8283 29.3348 16.2877L28.4931 14.8411L21.5008 2.82829C21.2176 2.33257 20.8024 1.92362 20.3007 1.64614C19.828 1.38965 19.2976 1.25596 18.7588 1.25751C18.2184 1.25679 17.6866 1.39202 17.2132 1.65057C16.7119 1.92831 16.297 2.33722 16.0139 2.83272L9.0216 14.8455L8.17986 16.2922C8.12251 16.3897 8.06739 16.4887 8.0145 16.5877C8.11208 16.584 8.20966 16.5818 8.31246 16.5818C9.24767 16.5809 10.1748 16.7533 11.0462 17.0901C11.1444 17.0054 11.2713 16.9608 11.4014 16.9652C11.5314 16.9696 11.655 17.0227 11.7472 17.1138C11.7956 17.1624 11.8337 17.2201 11.8593 17.2835C11.8849 17.347 11.8974 17.4149 11.8961 17.4832C12.7735 17.954 13.549 18.5914 14.1785 19.3591L14.3975 19.1419C14.4941 19.0464 14.6249 18.9927 14.7614 18.9927C14.8978 18.9927 15.0286 19.0464 15.1252 19.1419C15.2215 19.2377 15.2756 19.3675 15.2756 19.5028C15.2756 19.6381 15.2215 19.7679 15.1252 19.8637L14.7789 20.2073C15.487 21.3707 15.8606 22.7043 15.8589 24.0633C15.8588 24.3959 15.8361 24.7281 15.7912 25.0578L15.9461 25.0075C16.0355 24.9778 16.1315 24.973 16.2234 24.9937C16.3154 25.0144 16.3998 25.0599 16.4675 25.125C16.5348 25.1895 16.5831 25.271 16.6073 25.3607C16.6314 25.4503 16.6305 25.5449 16.6046 25.6341L14.9405 31.3556C15.6436 31.4993 16.3597 31.5714 17.0776 31.5706H17.0716ZM2.9187 31.875C3.00738 32.196 3.20113 32.4787 3.46947 32.6785C3.73782 32.8783 4.06552 32.984 4.40103 32.9789H12.2298C12.5662 32.9839 12.8946 32.8777 13.1633 32.677C13.432 32.4764 13.6256 32.1926 13.7137 31.8706L15.3398 26.2776L15.1513 26.3389C15.047 26.3729 14.9345 26.3729 14.8303 26.3389L13.8768 26.0286L12.9241 26.3389C12.8196 26.3729 12.7068 26.3729 12.6023 26.3389L11.6496 26.0286L10.6969 26.3389C10.5923 26.3729 10.4796 26.3729 10.3751 26.3389L9.42234 26.0286L8.46963 26.3389C8.3651 26.3729 8.25236 26.3729 8.14783 26.3389L7.19512 26.0286L6.2424 26.3389C6.13788 26.3729 6.02514 26.3729 5.92061 26.3389L4.96789 26.0286L4.01518 26.3389C3.91066 26.3729 3.79791 26.3729 3.69339 26.3389L2.74067 26.0286L1.78795 26.3389C1.68343 26.3729 1.57068 26.3729 1.46616 26.3389L1.27994 26.2783L2.9187 31.875ZM5.07888 21.8911C5.01135 21.8914 4.94442 21.8786 4.88191 21.8532C4.81941 21.8279 4.76256 21.7905 4.71463 21.7433L3.93473 20.969C3.88687 20.9217 3.8489 20.8654 3.82299 20.8035C3.79708 20.7416 3.78375 20.6752 3.78375 20.6081C3.78375 20.541 3.79708 20.4747 3.82299 20.4127C3.8489 20.3508 3.88687 20.2945 3.93473 20.2472C3.98247 20.1997 4.03919 20.162 4.10163 20.1363C4.16407 20.1106 4.23101 20.0974 4.29861 20.0974C4.36621 20.0974 4.43315 20.1106 4.49559 20.1363C4.55803 20.162 4.61475 20.1997 4.66249 20.2472L5.44239 21.0215C5.49025 21.0688 5.52822 21.1251 5.55413 21.187C5.58004 21.249 5.59338 21.3154 5.59338 21.3824C5.59338 21.4495 5.58004 21.5159 5.55413 21.5778C5.52822 21.6397 5.49025 21.696 5.44239 21.7433C5.39442 21.7907 5.33747 21.8281 5.27482 21.8535C5.21217 21.8788 5.14506 21.8916 5.0774 21.8911H5.07888ZM8.80781 19.6184C8.85567 19.6658 8.89364 19.722 8.91955 19.784C8.94546 19.8459 8.9588 19.9123 8.9588 19.9794C8.9588 20.0464 8.94546 20.1128 8.91955 20.1747C8.89364 20.2367 8.85567 20.2929 8.80781 20.3403L7.86999 21.2712C7.82218 21.3183 7.76546 21.3557 7.70308 21.381C7.6407 21.4064 7.5739 21.4193 7.50648 21.419C7.43895 21.4193 7.37202 21.4065 7.30951 21.3811C7.24701 21.3557 7.19016 21.3184 7.14223 21.2712C7.09437 21.2239 7.0564 21.1676 7.03049 21.1057C7.00459 21.0437 6.99125 20.9773 6.99125 20.9103C6.99125 20.8432 7.00459 20.7768 7.03049 20.7149C7.0564 20.653 7.09437 20.5967 7.14223 20.5494L8.08005 19.6184C8.17642 19.523 8.30702 19.4694 8.44319 19.4694C8.57935 19.4694 8.70996 19.523 8.80632 19.6184H8.80781Z" fill="#00305B"/>
</svg>
