<svg width="27" height="30" viewBox="0 0 27 30" fill="none" xmlns="http://www.w3.org/2000/svg">
<path d="M6.44319 10.2767C6.28442 10.2767 6.12888 10.1918 6.01605 10.0445C5.90322 9.89601 5.83875 9.69132 5.83875 9.48122C5.83875 9.27229 5.90322 9.0677 6.01605 8.91912C6.12888 8.77064 6.28442 8.68579 6.44319 8.68579C6.60196 8.68579 6.75831 8.77064 6.87034 8.91912C6.98317 9.0676 7.04764 9.27229 7.04764 9.48122C7.04764 9.69121 6.98317 9.8959 6.87034 10.0445C6.75831 10.1918 6.60196 10.2767 6.44319 10.2767Z" fill="#00305B"/>
<path d="M13.2976 10.2767C13.1389 10.2767 12.9834 10.1918 12.8705 10.0445C12.7577 9.89601 12.6932 9.69132 12.6932 9.48122C12.6932 9.27229 12.7577 9.0677 12.8705 8.91912C12.9834 8.77064 13.1389 8.68579 13.2976 8.68579C13.4565 8.68579 13.6127 8.77064 13.7256 8.91912C13.8377 9.0676 13.9021 9.27229 13.9021 9.48122C13.9021 9.69121 13.8377 9.8959 13.7256 10.0445C13.6127 10.1918 13.4564 10.2767 13.2976 10.2767Z" fill="#00305B"/>
<path d="M20.1521 10.2767C19.9932 10.2767 19.8377 10.1918 19.7248 10.0445C19.6121 9.89601 19.5476 9.69132 19.5476 9.48122C19.5476 9.27229 19.6121 9.0677 19.7248 8.91912C19.8377 8.77064 19.9932 8.68579 20.1521 8.68579C20.3116 8.68579 20.4672 8.77064 20.5792 8.91912C20.6919 9.0676 20.7565 9.27229 20.7565 9.48122C20.7565 9.69121 20.6919 9.8959 20.5792 10.0445C20.4673 10.1918 20.3117 10.2767 20.1521 10.2767Z" fill="#00305B"/>
<path d="M10.0496 6.26762C9.89087 6.26762 9.73533 6.18277 9.6225 6.03525C9.50967 5.88687 9.44519 5.68218 9.44519 5.47219C9.44519 5.26325 9.50967 5.0575 9.6225 4.91008C9.73452 4.7616 9.89087 4.67676 10.0496 4.67676C10.2092 4.67676 10.3648 4.7616 10.4768 4.91008C10.5896 5.0575 10.6541 5.26325 10.6541 5.47219C10.6541 5.68218 10.5896 5.88687 10.4768 6.03525C10.3648 6.18277 10.2092 6.26762 10.0496 6.26762Z" fill="#00305B"/>
<path d="M16.5455 6.26762C16.3866 6.26762 16.2312 6.18277 16.1183 6.03525C16.0055 5.88687 15.941 5.68218 15.941 5.47219C15.941 5.26325 16.0055 5.0575 16.1183 4.91008C16.2311 4.7616 16.3866 4.67676 16.5455 4.67676C16.7051 4.67676 16.8606 4.7616 16.9726 4.91008C17.0854 5.0575 17.1499 5.26325 17.1499 5.47219C17.1499 5.68218 17.0854 5.88687 16.9726 6.03525C16.8607 6.18277 16.7051 6.26762 16.5455 6.26762Z" fill="#00305B"/>
<path d="M25.1213 23.0942C25.3421 22.6276 25.4706 22.0782 25.4706 21.4892C25.4706 20.4409 25.066 19.5147 24.4518 18.9663C24.8726 18.3708 25.1308 17.5738 25.1308 16.6983C25.1308 15.9336 24.9339 15.2288 24.6036 14.6657C25.7689 14.0599 26.5957 12.5641 26.5957 10.8178C26.5957 7.85036 25.171 5.09128 22.5844 3.04883C20.0944 1.08274 16.7963 0 13.2979 0C9.79938 0 6.50128 1.08274 4.01127 3.04883C1.42456 5.09128 0 7.85036 0 10.8178C0 12.5641 0.826884 14.0599 1.9921 14.6657C1.66183 15.2288 1.46486 15.9336 1.46486 16.6983C1.46486 17.5738 1.7234 18.3705 2.14418 18.966C1.52974 19.5144 1.12508 20.4407 1.12508 21.4892C1.12508 22.0782 1.25354 22.6276 1.47445 23.0942C0.752577 23.3396 0 23.9898 0 25.7139C0 27.8166 1.15667 29.5272 2.57849 29.5272H24.0172C25.439 29.5272 26.5957 27.8166 26.5957 25.7139C26.5957 23.9897 25.8432 23.3396 25.1213 23.0942ZM2.67375 16.6983C2.67375 15.7367 3.26837 14.9543 3.99919 14.9543H22.5965C23.3272 14.9543 23.9219 15.7367 23.9219 16.6983C23.9219 16.8798 23.9005 17.0548 23.8613 17.2194C23.3729 17.1326 23.087 16.8533 22.7416 16.5146C22.2654 16.0475 21.6727 15.466 20.5639 15.466C19.4552 15.466 18.8626 16.0473 18.3863 16.5146C17.9687 16.9242 17.6388 17.2478 16.9311 17.2478C16.2235 17.2478 15.8936 16.9242 15.476 16.5146C14.9996 16.0474 14.407 15.466 13.2982 15.466C12.1895 15.466 11.5968 16.0473 11.1205 16.5146C10.7029 16.9242 10.3731 17.2478 9.66536 17.2478C8.95751 17.2478 8.62764 16.9242 8.20993 16.5146C7.73362 16.0474 7.14086 15.466 6.03206 15.466C4.92326 15.466 4.3305 16.0473 3.8542 16.5145C3.50886 16.8532 3.22283 17.1326 2.73412 17.2192C2.69503 17.0549 2.67375 16.8798 2.67375 16.6983ZM22.7698 18.4259C22.713 18.4357 22.6553 18.4425 22.5966 18.4425H18.3327C18.6425 18.2463 18.8886 18.0063 19.109 17.7902C19.5266 17.3806 19.8564 17.057 20.5642 17.057C21.2719 17.057 21.6017 17.3806 22.0194 17.7902C22.2335 18.0004 22.472 18.233 22.7698 18.4259ZM15.5299 18.4426H11.0669C11.3767 18.2464 11.6228 18.0064 11.8432 17.7903C12.2609 17.3807 12.5906 17.0571 13.2984 17.0571C14.0061 17.0571 14.336 17.3807 14.7537 17.7903C14.9739 18.0063 15.2201 18.2464 15.5299 18.4426ZM8.26409 18.4426H3.99927C3.94019 18.4426 3.88241 18.4358 3.82543 18.4259C4.12362 18.233 4.3625 18.0005 4.57688 17.7903C4.99459 17.3807 5.32446 17.0571 6.03231 17.0571C6.74015 17.0571 7.0701 17.3807 7.48773 17.7903C7.70808 18.0063 7.95429 18.2464 8.26409 18.4426ZM3.44043 20.0335H23.1553C23.7653 20.0335 24.2617 20.6865 24.2617 21.4893C24.2617 22.2922 23.7654 22.9454 23.1553 22.9454H3.44043C2.83035 22.9454 2.33397 22.2923 2.33397 21.4893C2.33397 20.6865 2.83035 20.0335 3.44043 20.0335ZM1.20889 10.8178C1.20889 8.43113 2.42504 6.15652 4.63321 4.41294C6.93809 2.5931 10.0152 1.59086 13.2978 1.59086C16.5803 1.59086 19.6574 2.5931 21.9624 4.41294C24.1706 6.15641 25.3868 8.43113 25.3868 10.8178C25.3868 12.2214 24.519 13.3634 23.4526 13.3634H3.14313C2.07656 13.3634 1.20889 12.2215 1.20889 10.8178ZM24.0172 27.9363H2.57849C1.82326 27.9363 1.20889 26.9394 1.20889 25.7139C1.20889 25.0025 1.30424 24.5361 2.57849 24.5361H24.0172C25.2915 24.5361 25.3868 25.0025 25.3868 25.7139C25.3868 26.9394 24.7724 27.9363 24.0172 27.9363Z" fill="#00305B"/>
</svg>
