<svg width="27" height="26" viewBox="0 0 27 26" fill="none" xmlns="http://www.w3.org/2000/svg">
<path d="M26.1732 19.6402C26.3728 19.1053 26.6268 18.5875 26.7889 18.0419C27.1579 16.794 27.0747 15.5897 26.2871 14.4924C25.6991 13.6745 24.8986 13.096 24.0294 12.6112C22.9765 12.0235 21.9011 11.4749 20.8415 10.8988C19.4012 10.1154 18.0984 9.16769 17.243 7.74028C16.5919 6.65667 15.9834 5.54112 15.3548 4.44026C15.1721 4.1203 14.893 4.01686 14.6118 4.15935C14.3306 4.30183 14.2439 4.61571 14.422 4.94378C14.8874 5.79769 15.3456 6.65718 15.8315 7.49892C16.4985 8.64997 17.2779 9.71177 18.3493 10.5413C19.4894 11.4236 20.7809 12.0499 22.0396 12.7375C22.897 13.2055 23.7554 13.6867 24.5502 14.2496C25.5559 14.9595 26.0983 15.933 25.8843 17.2124C25.7706 17.876 25.5492 18.517 25.2286 19.1108C25.0233 18.9998 24.9356 18.8852 24.8853 18.4958C24.8227 18.007 24.8088 17.5121 24.7698 17.0202C24.6672 15.7383 23.8575 14.819 22.5917 14.5472C21.9154 14.4017 21.2494 14.4889 20.5865 14.6395C20.3361 14.6963 20.0846 14.745 19.7655 14.8109C20.0118 13.4129 19.6434 12.3014 18.5458 11.446C17.3929 10.5479 16.2189 10.805 14.9628 11.411C15.537 10.1245 15.7478 8.95371 14.8227 7.82547C13.8976 6.69724 12.7313 6.58365 11.3885 6.98677C11.645 6.47615 11.8821 6.03298 12.0863 5.57458C12.3721 4.93314 12.4403 4.27547 12.1458 3.61019C11.6635 2.52303 10.628 1.94192 9.32371 2.03573C8.82497 2.07123 8.32726 2.11889 7.82851 2.15286C7.73872 2.15895 7.61506 2.15794 7.56118 2.10571C7.39596 1.94598 7.25691 1.75989 7.10246 1.57785C8.38832 1.06824 10.2222 0.745235 11.6055 1.54134C11.8621 1.68991 12.1699 1.55705 12.2977 1.30555C12.428 1.04441 12.3321 0.753854 12.0509 0.599198C11.2079 0.13472 10.2986 -0.0397112 9.34065 0.0074464C8.27697 0.0581535 7.27333 0.351749 6.29329 0.744222C6.18445 0.786069 6.06344 0.784614 5.95566 0.740165C4.17055 -0.184226 2.04115 0.454176 1.01031 2.20002C0.240648 3.50573 0.278106 4.85859 0.874853 6.21704C0.936426 6.35699 0.930268 6.45283 0.853301 6.59329C0.637282 6.98677 0.424855 7.38786 0.270922 7.80721C0.138026 8.16774 0.0872286 8.55768 0 8.93444V10.3405C0.022203 10.3966 0.0393729 10.4544 0.051311 10.5135C0.1683 11.6965 0.507979 12.8232 0.979014 13.9108C2.44907 17.3006 4.70778 20.0971 7.63558 22.3581C10.3843 24.4833 13.4481 25.8569 16.9957 25.9913C18.1902 26.0374 19.3499 25.9162 20.3704 25.2337C20.6198 25.0669 20.8322 25.041 21.1191 25.1019C22.2654 25.3453 23.4147 25.393 24.5487 25.0248C27.0532 24.2135 27.6145 21.6198 26.185 19.9308C26.1352 19.8689 26.1414 19.7259 26.1732 19.6402ZM6.17681 3.48342C6.1948 3.41561 6.2262 3.35198 6.2692 3.29622C6.3122 3.24046 6.36595 3.19367 6.42734 3.15855C6.48874 3.12343 6.55657 3.10067 6.62691 3.09159C6.69725 3.08251 6.76872 3.08729 6.83718 3.10565C7.51141 3.29834 8.17794 3.15636 8.84909 3.12492C9.27683 3.10008 9.70593 3.11077 10.1319 3.15686C10.8107 3.24104 11.5142 4.10965 11.1842 4.93922C11.0344 5.31648 10.8405 5.67701 10.667 6.04565C10.5413 6.31186 10.3925 6.57047 10.2961 6.84682C10.0667 7.50601 10.4561 8.04909 11.1683 8.03489C11.5362 8.02301 11.9013 7.96734 12.2556 7.86908C13.5789 7.51768 14.7463 8.92886 14.3193 10.1048C14.2131 10.3978 14.1095 10.6919 14.0043 10.9855C13.9581 11.1159 13.9083 11.2457 13.8658 11.3775C13.5651 12.3181 14.2834 12.6868 14.9802 12.4971C15.3245 12.4038 15.6514 12.2476 15.9854 12.1188C17.4478 11.554 18.7839 12.4738 18.7824 14.0356C18.7629 14.2511 18.7444 14.4671 18.7229 14.6826C18.6249 15.6673 19.353 15.9036 19.9748 15.8301C20.4366 15.7758 20.883 15.6384 21.3418 15.5766C21.6627 15.5284 21.9889 15.5259 22.3105 15.569C23.17 15.7054 23.6795 16.2915 23.7159 17.1956C23.7467 17.9689 23.7719 18.7346 24.07 19.4678C24.1726 19.7153 23.972 20.0221 23.7108 20.1128C23.5724 20.1626 23.4198 20.1569 23.2856 20.097C23.1514 20.0371 23.0462 19.9278 22.9924 19.7924C22.7536 19.2322 22.6231 18.6328 22.6076 18.0252C22.6025 17.7488 22.6076 17.4674 22.5506 17.1982C22.4629 16.7651 22.0791 16.5344 21.6399 16.6216C21.0755 16.7342 20.5157 16.9086 19.9466 16.9659C19.0441 17.0562 18.3267 16.6581 17.7941 15.9518C17.553 15.6328 17.5453 15.2419 17.572 14.853C17.6039 14.5159 17.614 14.1772 17.6022 13.8388C17.5684 13.2887 17.1271 12.9768 16.5899 13.1289C16.2137 13.2438 15.8448 13.3808 15.4851 13.5391C14.3737 14.0016 13.4917 13.5478 12.8344 12.7106C12.504 12.2887 12.5327 11.7979 12.6805 11.3187C12.8041 10.9222 12.9642 10.5373 13.1017 10.1448C13.1592 9.9999 13.2007 9.84927 13.2254 9.69555C13.2767 9.25136 13.0273 8.95928 12.5779 8.98565C12.2043 9.00948 11.8338 9.09163 11.4644 9.15957C10.3458 9.36595 9.13694 8.50038 9.05638 7.38026C9.03278 7.04965 9.1354 6.6947 9.24675 6.37322C9.36425 6.03196 9.56744 5.72062 9.71983 5.39001C9.79339 5.24334 9.84358 5.08632 9.86864 4.92451C9.91276 4.55283 9.66339 4.24403 9.28164 4.242C8.82702 4.242 8.37087 4.32313 7.91728 4.31147C7.45595 4.30054 6.99656 4.24845 6.54471 4.1558C6.23787 4.09951 6.09523 3.77245 6.17681 3.48342ZM20.1847 24.0558C19.5505 24.6192 18.7855 24.8605 17.9527 24.9229C17.7346 24.9391 17.514 24.9229 17.2949 24.9229C14.9048 24.9112 12.6933 24.2394 10.6496 23.0559C6.69865 20.768 3.79308 17.5501 1.93288 13.4022C1.38694 12.1812 1.05649 10.8963 1.06727 9.5485C1.07497 8.57594 1.28637 7.64901 1.95905 6.89348C2.49525 6.29107 3.1392 5.88491 3.99969 5.95387C4.47329 5.99139 4.87198 6.20284 5.22448 6.50201C5.94283 7.1105 6.38616 7.90813 6.70583 8.77015C7.05577 9.7133 7.3934 10.658 7.9219 11.5251C9.12411 13.4971 10.7466 15.0746 12.6076 16.4315C14.5682 17.8584 16.7033 18.9668 18.9789 19.8167C19.3173 19.9343 19.6407 20.0905 19.9425 20.2822C21.3089 21.2045 21.4141 22.9615 20.1832 24.0558H20.1847ZM24.7806 23.7693C24.128 24.1379 23.4111 24.2378 22.6769 24.2221C22.3121 24.2145 21.9483 24.1653 21.5706 24.1334C21.7163 23.783 21.8785 23.4742 21.9734 23.1497C22.4403 21.5509 21.6809 19.909 20.0867 19.1438C19.2693 18.7518 18.4001 18.4669 17.5725 18.0947C15.0013 16.9396 12.6707 15.4341 10.7137 13.4017C9.42223 12.06 8.41859 10.5479 7.84031 8.76507C7.48575 7.66625 6.94237 6.65565 6.07778 5.8489C5.55031 5.35603 4.94176 5.01934 4.20904 4.91387C3.41013 4.79876 2.70255 5.02238 2.0391 5.4397C1.96008 5.49041 1.88209 5.54111 1.80101 5.59182C1.02365 3.88806 1.90928 1.67723 3.92478 1.39277C4.75601 1.27563 5.4718 1.57531 6.11986 2.12802C6.04238 2.16757 5.98337 2.19444 5.92796 2.22943C5.36764 2.55954 5.0685 3.05343 5.09261 3.69233C5.11827 4.3637 5.46359 4.85859 6.09625 5.12633C6.7674 5.40927 7.47652 5.4255 8.19128 5.36567C8.2939 5.35705 8.3996 5.34538 8.56175 5.32916C7.90291 6.55069 7.65457 7.73622 8.552 8.90401C9.39812 10.0059 10.4951 10.4891 11.977 10.1408C11.3136 11.6042 11.2705 12.9053 12.5881 13.9945C13.8468 15.035 15.1634 14.9463 16.5483 14.2374C16.5483 14.7292 16.5201 15.1709 16.5555 15.6065C16.5986 16.1354 16.8633 16.578 17.2425 16.9472C18.2339 17.9106 19.4089 18.2438 20.7671 17.9202C21.0123 17.8619 21.2576 17.8026 21.5208 17.7392C21.5516 18.0906 21.5475 18.4385 21.6188 18.7706C21.7174 19.2616 21.8547 19.7443 22.0293 20.2142C22.2731 20.8395 22.7903 21.1635 23.4558 21.1964C24.0679 21.2258 24.5595 20.9627 24.9012 20.4495C24.9346 20.3988 24.9659 20.3481 25.0151 20.2695C25.4395 20.6047 25.715 21.021 25.8294 21.5316C26.0326 22.4555 25.6396 23.2825 24.7791 23.7693H24.7806ZM13.5948 3.16498C13.6649 3.16432 13.7341 3.14999 13.7986 3.12283C13.863 3.09566 13.9214 3.05619 13.9703 3.00667C14.0193 2.95716 14.0579 2.89857 14.0839 2.83428C14.1099 2.77 14.1227 2.70127 14.1218 2.63205C14.1136 2.49682 14.055 2.3694 13.9573 2.27436C13.8596 2.17931 13.7297 2.12339 13.5928 2.11737C13.4512 2.11764 13.3155 2.17344 13.2156 2.27251C13.1156 2.37159 13.0595 2.50583 13.0597 2.64574C13.0585 2.71488 13.0716 2.78354 13.0981 2.84755C13.1246 2.91156 13.1639 2.96959 13.2138 3.01814C13.2636 3.06668 13.3229 3.10472 13.388 3.12996C13.4532 3.1552 13.5228 3.16712 13.5928 3.16498H13.5948ZM6.23787 17.0207C5.95566 17.0263 5.70065 17.2889 5.70988 17.5648C5.7186 17.7001 5.77757 17.8275 5.87549 17.9225C5.9734 18.0175 6.10337 18.0734 6.24044 18.0795C6.38221 18.0764 6.51741 18.0198 6.6182 17.9212C6.719 17.8226 6.77772 17.6896 6.78228 17.5496C6.77598 17.4097 6.71633 17.2775 6.61532 17.1793C6.51432 17.0812 6.37946 17.0245 6.23787 17.0207ZM10.1914 18.5835C9.90969 18.5886 9.65364 18.8517 9.66339 19.1276C9.67199 19.2628 9.73088 19.3901 9.82872 19.485C9.92657 19.5799 10.0565 19.6358 10.1934 19.6417C10.3352 19.6388 10.4705 19.5823 10.5714 19.4839C10.6722 19.3854 10.7311 19.2524 10.7358 19.1124C10.7368 18.835 10.4731 18.5784 10.1934 18.5835H10.1914ZM2.91908 10.6539C2.78236 10.6568 2.65179 10.7107 2.55358 10.8047C2.45537 10.8988 2.39677 11.026 2.38955 11.161C2.38953 11.3006 2.44493 11.4346 2.54386 11.5343C2.64278 11.6339 2.77733 11.6913 2.91857 11.6939C3.05999 11.6955 3.19634 11.6419 3.29792 11.5446C3.39951 11.4474 3.45809 11.3144 3.46092 11.1747C3.45784 11.0353 3.39957 10.9027 3.29864 10.8054C3.19772 10.708 3.06218 10.6536 2.92113 10.6539H2.91908ZM12.5296 21.9048C12.4618 21.9048 12.3946 21.9181 12.332 21.9439C12.2693 21.9698 12.2125 22.0076 12.1648 22.0553C12.1171 22.103 12.0794 22.1595 12.0539 22.2217C12.0285 22.2839 12.0158 22.3504 12.0165 22.4175C12.0128 22.4867 12.0236 22.5559 12.0483 22.6207C12.0731 22.6856 12.1111 22.7447 12.1601 22.7943C12.2091 22.8439 12.2679 22.8829 12.333 22.9089C12.398 22.9349 12.4677 22.9473 12.5378 22.9453C12.6079 22.9471 12.6777 22.9348 12.7429 22.9092C12.808 22.8836 12.8673 22.8453 12.917 22.7964C12.9668 22.7475 13.006 22.6892 13.0322 22.6249C13.0585 22.5607 13.0713 22.4918 13.0699 22.4225C13.0697 22.3534 13.0556 22.285 13.0283 22.2213C13.001 22.1577 12.9611 22.1 12.911 22.0518C12.8608 22.0036 12.8015 21.9657 12.7363 21.9405C12.6712 21.9153 12.6016 21.9031 12.5317 21.9048H12.5296ZM16.7048 21.6513C16.5681 21.6566 16.4385 21.7127 16.3419 21.8084C16.2453 21.9041 16.1889 22.0324 16.184 22.1675C16.1817 22.2367 16.1936 22.3057 16.219 22.3703C16.2445 22.4349 16.2829 22.4937 16.3319 22.5432C16.381 22.5927 16.4397 22.6319 16.5044 22.6584C16.5692 22.6849 16.6388 22.6981 16.7089 22.6974C16.7794 22.7004 16.8498 22.689 16.9156 22.6638C16.9815 22.6385 17.0412 22.6 17.0912 22.5507C17.1411 22.5014 17.1802 22.4423 17.2058 22.3773C17.2314 22.3123 17.243 22.2428 17.24 22.173C17.2405 22.1037 17.227 22.0349 17.2003 21.9708C17.1736 21.9067 17.1342 21.8485 17.0844 21.7996C17.0345 21.7508 16.9753 21.7123 16.9102 21.6864C16.8452 21.6604 16.7755 21.6477 16.7053 21.6487L16.7048 21.6513ZM6.30971 13.7116C6.30782 13.5714 6.2503 13.4376 6.14952 13.3389C6.04874 13.2403 5.91279 13.1847 5.77094 13.1842C5.63374 13.1867 5.50255 13.2403 5.40368 13.3343C5.30481 13.4284 5.24557 13.5559 5.23782 13.6913C5.22756 13.9666 5.48104 14.2298 5.76376 14.2369C6.04648 14.244 6.30663 13.9909 6.30971 13.7116Z" fill="#00305B"/>
</svg>
