<svg width="30" height="30" viewBox="0 0 30 30" fill="none" xmlns="http://www.w3.org/2000/svg">
<path d="M0.589762 28.8227H6.40948C3.68474 26.7159 1.97478 24.4505 1.2037 21.9375C1.17657 21.8496 1.17048 21.7565 1.18592 21.6658C1.20137 21.5751 1.2379 21.4893 1.29259 21.4153C1.34727 21.3413 1.41858 21.2812 1.50076 21.2398C1.58293 21.1984 1.67368 21.1769 1.76569 21.1771H3.23061V20.8827C3.2298 19.5161 3.60988 18.1763 4.32818 17.0137C5.04648 15.8511 6.07458 14.9117 7.29709 14.3009C8.5196 13.6902 9.88813 13.4322 11.2491 13.5559C12.6101 13.6797 13.9096 14.1804 15.0019 15.0017C15.9512 14.2865 17.0607 13.8138 18.234 13.6246V8.2363H17.8252C17.3149 8.23664 16.8107 8.12631 16.3472 7.91295C15.8837 7.69959 15.472 7.38826 15.1404 7.00042C14.919 6.74201 14.6442 6.53463 14.335 6.39256C14.0258 6.25048 13.6895 6.17708 13.3492 6.17739H2.09064C1.56547 6.1804 1.05861 5.98464 0.671789 5.62942C0.284966 5.27421 0.0468102 4.78584 0.00512695 4.26232C-0.0148048 3.98049 0.0235157 3.69757 0.117702 3.4312C0.211889 3.16483 0.359921 2.92073 0.552578 2.71407C0.745234 2.50742 0.978386 2.34264 1.2375 2.23004C1.49662 2.11744 1.77615 2.05941 2.05868 2.05957H13.3505C13.6898 2.05868 14.0249 1.98457 14.3328 1.8423C14.6408 1.70002 14.9145 1.49293 15.1351 1.2352C15.4669 0.847803 15.8787 0.536866 16.3422 0.323756C16.8057 0.110646 17.3098 0.000431303 17.8199 0.000666095H24.705C24.7846 -0.00312178 24.8641 0.00927471 24.9387 0.0371141C25.0133 0.0649534 25.0815 0.107646 25.1392 0.162617C25.1968 0.217589 25.2427 0.283693 25.2741 0.35692C25.3054 0.430147 25.3216 0.508971 25.3216 0.588629C25.3216 0.668288 25.3054 0.747129 25.2741 0.820355C25.2427 0.893582 25.1968 0.95967 25.1392 1.01464C25.0815 1.06961 25.0133 1.11232 24.9387 1.14016C24.8641 1.168 24.7846 1.1804 24.705 1.17661H17.8265C17.4861 1.17654 17.1498 1.2502 16.8406 1.3925C16.5314 1.53481 16.2567 1.74238 16.0353 2.00096C15.7035 2.38836 15.2917 2.69931 14.8282 2.91242C14.3647 3.12553 13.8606 3.23575 13.3505 3.23551H2.06001C1.93876 3.23538 1.81879 3.26026 1.7076 3.30859C1.5964 3.35692 1.49637 3.42766 1.41375 3.5164C1.33114 3.60514 1.26772 3.70997 1.22745 3.82434C1.18718 3.9387 1.17093 4.06014 1.17972 4.18106C1.20021 4.40757 1.30566 4.61794 1.47489 4.76987C1.64412 4.92181 1.86458 5.00406 2.09197 5.0001H13.3505C13.8608 4.99977 14.365 5.11009 14.8285 5.32345C15.292 5.53681 15.7038 5.84814 16.0353 6.23598C16.2567 6.4944 16.5315 6.70177 16.8407 6.84385C17.1499 6.98592 17.4862 7.05934 17.8265 7.05902H18.2354V5.88306H17.6467C17.4956 5.87587 17.3531 5.81079 17.2487 5.70131C17.1443 5.59183 17.0861 5.44637 17.0861 5.2951C17.0861 5.14383 17.1443 4.99835 17.2487 4.88887C17.3531 4.77939 17.4956 4.71431 17.6467 4.70712H18.2354V3.52984H17.6467C17.4956 3.52265 17.3531 3.45755 17.2487 3.34808C17.1443 3.2386 17.0861 3.09314 17.0861 2.94186C17.0861 2.79059 17.1443 2.64513 17.2487 2.53565C17.3531 2.42618 17.4956 2.36108 17.6467 2.35389H24.705C24.7846 2.3501 24.8641 2.36249 24.9387 2.39033C25.0133 2.41817 25.0815 2.46088 25.1392 2.51585C25.1968 2.57082 25.2427 2.63693 25.2741 2.71016C25.3054 2.78338 25.3216 2.86221 25.3216 2.94186C25.3216 3.02152 25.3054 3.10035 25.2741 3.17357C25.2427 3.2468 25.1968 3.31291 25.1392 3.36788C25.0815 3.42285 25.0133 3.46554 24.9387 3.49338C24.8641 3.52122 24.7846 3.53363 24.705 3.52984H24.1177V4.70712H24.705C24.7846 4.70333 24.8641 4.71573 24.9387 4.74357C25.0133 4.77141 25.0815 4.8141 25.1392 4.86907C25.1968 4.92404 25.2427 4.99015 25.2741 5.06337C25.3054 5.1366 25.3216 5.21544 25.3216 5.2951C25.3216 5.37476 25.3054 5.45358 25.2741 5.52681C25.2427 5.60004 25.1968 5.66614 25.1392 5.72111C25.0815 5.77608 25.0133 5.81878 24.9387 5.84662C24.8641 5.87445 24.7846 5.88685 24.705 5.88306H24.1177V7.05902H24.705C24.8611 7.05902 25.0108 7.12104 25.1212 7.23143C25.2316 7.34182 25.2936 7.49154 25.2936 7.64765C25.2936 7.80377 25.2316 7.9535 25.1212 8.06389C25.0108 8.17429 24.8611 8.2363 24.705 8.2363H24.1177V15.2374C24.9461 15.9264 25.6127 16.7894 26.07 17.7651C26.5274 18.7408 26.7642 19.8052 26.7639 20.8827V21.1771H28.2354C28.3278 21.1771 28.4189 21.1989 28.5013 21.2408C28.5837 21.2826 28.655 21.3433 28.7095 21.4179C28.764 21.4926 28.8001 21.579 28.8149 21.6702C28.8298 21.7614 28.8228 21.8548 28.7948 21.9428C27.8546 24.906 25.8649 27.1061 23.2987 28.8227H29.4114C29.5675 28.8227 29.7172 28.8847 29.8276 28.9951C29.938 29.1055 30 29.2553 30 29.4114C30 29.5675 29.938 29.7172 29.8276 29.8276C29.7172 29.938 29.5675 30 29.4114 30H0.589762C0.433647 30 0.283928 29.938 0.173538 29.8276C0.0631485 29.7172 0.00112724 29.5675 0.00112724 29.4114C0.00112724 29.2553 0.0631485 29.1055 0.173538 28.9951C0.283928 28.8847 0.433647 28.8227 0.589762 28.8227ZM6.22171 16.5146C5.64641 17.0869 5.19035 17.7677 4.87992 18.5175C4.56949 19.2673 4.41085 20.0712 4.4132 20.8827V21.1771H5.58913V20.8827C5.58899 19.9784 5.83416 19.0909 6.29853 18.3148C6.7629 17.5388 7.42908 16.9033 8.2261 16.4759C9.02312 16.0485 9.92113 15.8454 10.8245 15.8881C11.7278 15.9308 12.6027 16.2177 13.3559 16.7183C13.5791 16.3939 13.828 16.0879 14.1003 15.8034C12.9094 14.9868 11.4711 14.6111 10.033 14.7409C8.59494 14.8708 7.24713 15.498 6.22171 16.5146ZM7.94232 21.1757V20.8814C7.94108 20.3718 8.08708 19.8727 8.36277 19.4441C8.63847 19.0155 9.0321 18.6757 9.49635 18.4655C9.96059 18.2553 10.4757 18.1837 10.9796 18.2593C11.4836 18.335 11.955 18.5546 12.3371 18.8918C12.4483 18.4957 12.5931 18.1099 12.7699 17.7384C12.1963 17.341 11.5248 17.1082 10.8283 17.0651C10.1318 17.0221 9.43675 17.1705 8.81856 17.4943C8.20037 17.8181 7.68258 18.3049 7.3213 18.9019C6.96002 19.499 6.76904 20.1835 6.76905 20.8814V21.1757H7.94232ZM12.0587 21.1757V20.8814C12.0587 20.4915 11.9038 20.1175 11.6281 19.8418C11.3524 19.566 10.9784 19.4111 10.5885 19.4111C10.1986 19.4111 9.8246 19.566 9.54888 19.8418C9.27315 20.1175 9.11825 20.4915 9.11825 20.8814V21.1757H12.0587ZM19.4113 13.5287C19.8056 13.5284 20.1993 13.56 20.5886 13.6233V3.52851H19.4113V13.5287ZM22.9404 3.52851H21.7645V13.9163C22.1711 14.0535 22.5647 14.2269 22.9404 14.4343V3.52851ZM25.5879 20.8814C25.6 20.0627 25.4491 19.2498 25.1441 18.49C24.8391 17.7301 24.3861 17.0385 23.8115 16.4553C23.2368 15.8721 22.5519 15.409 21.7966 15.0929C21.0413 14.7768 20.2307 14.614 19.412 14.614C18.5932 14.614 17.7826 14.7768 17.0273 15.0929C16.2721 15.409 15.5872 15.8721 15.0125 16.4553C14.4378 17.0385 13.9848 17.7301 13.6798 18.49C13.3748 19.2498 13.224 20.0627 13.236 20.8814V21.1757H14.4119V20.8814C14.4011 20.2179 14.5224 19.5589 14.7689 18.9428C15.0153 18.3267 15.3818 17.7657 15.8472 17.2927C16.3126 16.8197 16.8674 16.444 17.4795 16.1875C18.0915 15.9311 18.7484 15.799 19.412 15.799C20.0755 15.799 20.7325 15.9311 21.3445 16.1875C21.9565 16.444 22.5114 16.8197 22.9767 17.2927C23.4421 17.7657 23.8087 18.3267 24.0551 18.9428C24.3015 19.5589 24.4228 20.2179 24.412 20.8814V21.1757H25.5879V20.8814ZM16.7651 21.1757V20.8814C16.7572 20.5288 16.8198 20.1782 16.9493 19.8501C17.0788 19.5221 17.2725 19.2232 17.519 18.971C17.7656 18.7189 18.06 18.5185 18.3851 18.3817C18.7102 18.245 19.0593 18.1745 19.412 18.1745C19.7646 18.1745 20.1138 18.245 20.4388 18.3817C20.7639 18.5185 21.0583 18.7189 21.3049 18.971C21.5515 19.2232 21.7452 19.5221 21.8746 19.8501C22.0041 20.1782 22.0667 20.5288 22.0588 20.8814V21.1757H23.2347V20.8814C23.2347 19.8673 22.8319 18.8948 22.1149 18.1778C21.3978 17.4607 20.4253 17.0579 19.4113 17.0579C18.3973 17.0579 17.4248 17.4607 16.7077 18.1778C15.9907 18.8948 15.5879 19.8673 15.5879 20.8814V21.1757H16.7651ZM20.8829 21.1757V20.8814C20.8829 20.4913 20.7279 20.1172 20.4521 19.8413C20.1762 19.5655 19.8021 19.4105 19.412 19.4105C19.0219 19.4105 18.6477 19.5655 18.3719 19.8413C18.096 20.1172 17.9411 20.4913 17.9411 20.8814V21.1757H20.8829ZM2.5967 22.3517C2.76058 22.7553 2.95007 23.1481 3.16402 23.5276H26.8291C27.0434 23.1481 27.2334 22.7553 27.3978 22.3517H2.5967ZM21.0267 28.8214C23.2161 27.6228 24.8888 26.2631 26.0567 24.7049H3.92578C4.99117 26.1446 6.47474 27.5016 8.41509 28.8214H21.0267Z" fill="#00305B"/>
</svg>
