<svg width="31" height="31" viewBox="0 0 31 31" fill="none" xmlns="http://www.w3.org/2000/svg">
<path fill-rule="evenodd" clip-rule="evenodd" d="M1.5494 14.4658H1.93795C1.93506 14.4612 1.93183 14.457 1.92858 14.4527L1.92857 14.4527C1.92486 14.4478 1.92111 14.4429 1.9178 14.4374C1.70121 14.0954 1.57551 13.7039 1.55263 13.2998C1.52976 12.8957 1.61045 12.4924 1.78708 12.1283L4.76789 5.94394C4.91757 5.62509 5.13994 5.34578 5.41713 5.12845C5.69432 4.91111 6.01861 4.7618 6.36396 4.6925C6.65156 4.63437 6.9479 4.63451 7.23545 4.69291C7.52299 4.7513 7.79591 4.86677 8.03805 5.03249L10.6634 0.950602C10.8498 0.659165 11.1065 0.419331 11.41 0.253203C11.7134 0.0870761 12.0538 0 12.3997 0C12.7457 0 13.086 0.0870761 13.3895 0.253203C13.6929 0.419331 13.9497 0.659165 14.1361 0.950602L16.7619 5.03249C17.0041 4.86684 17.277 4.75138 17.5645 4.6929C17.852 4.63442 18.1484 4.63411 18.436 4.69199C18.7692 4.75955 19.0827 4.90153 19.3533 5.10732C19.6239 5.3131 19.8444 5.57737 19.9985 5.88038L23.3157 3.48912C23.5966 3.28639 23.924 3.15753 24.2677 3.11439C24.6115 3.07125 24.9606 3.11521 25.2829 3.24223C25.6052 3.36926 25.8904 3.57527 26.1123 3.84133C26.3342 4.10738 26.4857 4.42495 26.5528 4.76484L27.4534 9.29883L30.2435 11.8353C30.5066 12.0694 30.7112 12.3619 30.841 12.6893C30.9707 13.0167 31.022 13.3699 30.9906 13.7207C30.953 14.1515 30.7884 14.5614 30.5179 14.8988C30.6716 15.0412 30.7939 15.2141 30.8771 15.4064C30.9603 15.5988 31.0025 15.8063 31.001 16.0159C30.9997 16.3353 30.8997 16.6466 30.7147 16.907C30.5297 17.1675 30.2688 17.3644 29.9676 17.4709V21.6995C29.9647 24.1653 28.9839 26.5292 27.2404 28.2728C25.4968 30.0163 23.1329 30.9971 20.6671 31H10.3332C7.86744 30.9971 5.50349 30.0163 3.75993 28.2728C2.01637 26.5292 1.03558 24.1653 1.03271 21.6995V17.4709C0.688235 17.3495 0.39782 17.1102 0.212898 16.7953C0.0279758 16.4803 -0.0395187 16.1101 0.0223678 15.7502C0.0842544 15.3903 0.271528 15.0638 0.551021 14.8288C0.830513 14.5937 1.18419 14.4651 1.5494 14.4658ZM6.56702 5.70574C6.3787 5.74431 6.20204 5.82646 6.05121 5.94562C5.90037 6.06479 5.77956 6.21763 5.69846 6.39191L2.71868 12.5757C2.61842 12.7824 2.57253 13.0113 2.58537 13.2407C2.59821 13.47 2.66934 13.6923 2.79205 13.8866C2.89862 14.0633 3.04905 14.2095 3.22875 14.311C3.40844 14.4124 3.61131 14.4658 3.81769 14.4658H9.17374C9.08189 14.3252 9.00467 14.1756 8.9433 14.0194C8.76787 13.5714 8.7339 13.0804 8.84596 12.6125C8.95801 12.1446 9.21071 11.7222 9.57005 11.4023L11.6218 9.57682L7.59162 5.98992C7.45498 5.86569 7.2911 5.77526 7.11314 5.7259C6.93518 5.67654 6.74813 5.66964 6.56702 5.70574ZM13.267 1.50657C13.174 1.36083 13.0458 1.24088 12.8942 1.15778C12.7427 1.07469 12.5726 1.03113 12.3997 1.03113C12.2269 1.03113 12.0568 1.07469 11.9052 1.15778C11.7536 1.24088 11.6254 1.36083 11.5325 1.50657L8.83066 5.70832L12.4 8.88548L15.9698 5.70884L13.267 1.50657ZM18.2329 5.70471C18.052 5.66882 17.8651 5.67583 17.6874 5.72518C17.5096 5.77453 17.3459 5.86485 17.2094 5.98889L10.2578 12.1742C10.054 12.3541 9.91097 12.5928 9.84851 12.8574C9.78604 13.122 9.80718 13.3994 9.909 13.6515C9.98974 13.8902 10.1437 14.0974 10.349 14.2436C10.5543 14.3898 10.8004 14.4675 11.0524 14.4658H20.9828C21.1897 14.4658 21.3931 14.4123 21.5732 14.3104C21.7533 14.2086 21.9039 14.0618 22.0105 13.8845C22.1325 13.691 22.2031 13.4696 22.2156 13.2412C22.2281 13.0128 22.182 12.785 22.0818 12.5793L19.1025 6.39294C19.0213 6.21837 18.9003 6.06522 18.7493 5.94572C18.5984 5.82622 18.4215 5.74369 18.2329 5.70471ZM25.5395 4.96687C25.5061 4.79669 25.4304 4.63766 25.3194 4.50442C25.2084 4.37119 25.0656 4.26804 24.9043 4.20447C24.7429 4.14091 24.5681 4.11897 24.3961 4.14069C24.224 4.16241 24.0602 4.22708 23.9197 4.32875L20.4578 6.8249L21.2665 8.50416L21.3553 8.20603C21.465 7.84052 21.666 7.509 21.9394 7.24276C22.2128 6.97652 22.5495 6.78434 22.9178 6.68436C23.3064 6.57528 23.7163 6.56695 24.109 6.66015C24.5017 6.75335 24.8642 6.94501 25.1623 7.21707L26.1678 8.12955L25.5395 4.96687ZM29.9619 13.6282C29.9782 13.4365 29.9492 13.2437 29.8774 13.0652C29.8057 12.8867 29.693 12.7276 29.5486 12.6005C29.5486 12.6005 24.983 8.44991 24.4694 7.98178C24.3004 7.82731 24.0948 7.71849 23.8721 7.6656C23.6493 7.61271 23.4167 7.6175 23.1963 7.67951C22.9958 7.73128 22.8121 7.83412 22.6631 7.97801C22.5142 8.1219 22.405 8.30192 22.3463 8.50054L21.933 9.8889L23.0129 12.1308C23.1892 12.494 23.27 12.8961 23.2476 13.2992C23.2252 13.7022 23.1003 14.0929 22.8847 14.4343C22.883 14.437 22.8812 14.4398 22.8792 14.4424L22.8724 14.4516C22.8688 14.4562 22.8653 14.4609 22.862 14.4658H29.4509H29.4762C29.6123 14.3689 29.726 14.2441 29.8098 14.0996C29.8936 13.9551 29.9454 13.7944 29.9619 13.6282ZM2.06609 19.9355L2.73418 19.2674C2.83107 19.1706 2.96247 19.1161 3.09948 19.1161C3.23649 19.1161 3.36789 19.1706 3.46479 19.2674L5.16626 20.9689L6.86773 19.2674C6.96463 19.1706 7.09603 19.1161 7.23304 19.1161C7.37005 19.1161 7.50145 19.1706 7.59834 19.2674L9.29982 20.9689L11.0013 19.2674C11.0982 19.1706 11.2296 19.1161 11.3666 19.1161C11.5036 19.1161 11.635 19.1706 11.7319 19.2674L13.4334 20.9689L15.1348 19.2674C15.2317 19.1706 15.3631 19.1161 15.5001 19.1161C15.6372 19.1161 15.7686 19.1706 15.8655 19.2674L17.5669 20.9689L19.2684 19.2674C19.3653 19.1706 19.4967 19.1161 19.6337 19.1161C19.7707 19.1161 19.9021 19.1706 19.999 19.2674L21.7005 20.9689L23.402 19.2674C23.4989 19.1706 23.6303 19.1161 23.7673 19.1161C23.9043 19.1161 24.0357 19.1706 24.1326 19.2674L25.834 20.9689L27.5355 19.2674C27.6324 19.1706 27.7638 19.1161 27.9008 19.1161C28.0378 19.1161 28.1692 19.1706 28.2661 19.2674L28.9342 19.9355V17.5659H2.06609V19.9355ZM10.3332 29.9666H20.6671C22.8589 29.964 24.9601 29.0922 26.51 27.5424C28.0598 25.9925 28.9316 23.8913 28.9342 21.6995V21.3967L27.9008 20.3633L26.1993 22.0648C26.1024 22.1617 25.971 22.2161 25.834 22.2161C25.697 22.2161 25.5656 22.1617 25.4687 22.0648L23.7673 20.3633L22.0658 22.0648C21.9689 22.1617 21.8375 22.2161 21.7005 22.2161C21.5635 22.2161 21.4321 22.1617 21.3352 22.0648L19.6337 20.3633L17.9322 22.0648C17.8353 22.1617 17.7039 22.2161 17.5669 22.2161C17.4299 22.2161 17.2985 22.1617 17.2016 22.0648L15.5001 20.3633L13.7987 22.0648C13.7018 22.1617 13.5704 22.2161 13.4334 22.2161C13.2964 22.2161 13.165 22.1617 13.0681 22.0648L11.3666 20.3633L9.66512 22.0648C9.56822 22.1617 9.43682 22.2161 9.29982 22.2161C9.16281 22.2161 9.03141 22.1617 8.93451 22.0648L7.23304 20.3633L5.53156 22.0648C5.43467 22.1617 5.30327 22.2161 5.16626 22.2161C5.02925 22.2161 4.89785 22.1617 4.80096 22.0648L3.09948 20.3633L2.06609 21.3967V21.6995C2.06869 23.8913 2.94052 25.9925 4.49034 27.5424C6.04017 29.0922 8.14143 29.964 10.3332 29.9666ZM1.5494 16.5326H29.4509C29.5879 16.5326 29.7194 16.4781 29.8163 16.3812C29.9132 16.2843 29.9676 16.1529 29.9676 16.0159C29.9676 15.8788 29.9132 15.7474 29.8163 15.6505C29.7194 15.5536 29.5879 15.4992 29.4509 15.4992H1.5494C1.41236 15.4992 1.28094 15.5536 1.18404 15.6505C1.08714 15.7474 1.03271 15.8788 1.03271 16.0159C1.03271 16.1529 1.08714 16.2843 1.18404 16.3812C1.28094 16.4781 1.41236 16.5326 1.5494 16.5326ZM18.0837 13.4324C17.7772 13.4324 17.4775 13.3415 17.2226 13.1712C16.9677 13.0009 16.769 12.7588 16.6517 12.4756C16.5343 12.1923 16.5036 11.8806 16.5634 11.58C16.6233 11.2793 16.7709 11.0031 16.9877 10.7863C17.2045 10.5695 17.4807 10.4219 17.7813 10.3621C18.082 10.3022 18.3937 10.3329 18.6769 10.4503C18.9602 10.5676 19.2023 10.7663 19.3726 11.0212C19.5429 11.2761 19.6338 11.5758 19.6338 11.8824C19.6338 12.2935 19.4705 12.6877 19.1798 12.9784C18.8891 13.2691 18.4949 13.4324 18.0837 13.4324ZM18.0837 11.3657C17.9816 11.3657 17.8817 11.396 17.7967 11.4527C17.7117 11.5095 17.6455 11.5902 17.6064 11.6846C17.5673 11.779 17.557 11.8829 17.577 11.9832C17.5969 12.0834 17.6461 12.1755 17.7184 12.2477C17.7907 12.32 17.8827 12.3692 17.9829 12.3891C18.0832 12.4091 18.1871 12.3988 18.2815 12.3597C18.3759 12.3206 18.4566 12.2544 18.5134 12.1694C18.5701 12.0844 18.6004 11.9846 18.6004 11.8824C18.6004 11.7453 18.546 11.6139 18.4491 11.517C18.3522 11.4201 18.2208 11.3657 18.0837 11.3657ZM13.9501 12.399C13.9501 12.6844 14.1814 12.9157 14.4667 12.9157C14.7521 12.9157 14.9834 12.6844 14.9834 12.399C14.9834 12.1137 14.7521 11.8823 14.4667 11.8823C14.1814 11.8823 13.9501 12.1137 13.9501 12.399ZM8.78328 10.3322C8.49791 10.3322 8.26658 10.1009 8.26658 9.81552C8.26658 9.53016 8.49791 9.29883 8.78328 9.29883C9.06864 9.29883 9.29997 9.53016 9.29997 9.81552C9.29997 10.1009 9.06864 10.3322 8.78328 10.3322ZM12.9167 5.68198C12.9167 5.96734 13.1481 6.19867 13.4334 6.19867C13.7188 6.19867 13.9501 5.96734 13.9501 5.68198C13.9501 5.39662 13.7188 5.16528 13.4334 5.16528C13.1481 5.16528 12.9167 5.39662 12.9167 5.68198ZM24.284 10.8488C23.9986 10.8488 23.7673 10.6175 23.7673 10.3321C23.7673 10.0468 23.9986 9.81543 24.284 9.81543C24.5694 9.81543 24.8007 10.0468 24.8007 10.3321C24.8007 10.6175 24.5694 10.8488 24.284 10.8488ZM24.8006 12.399C24.8006 12.6844 25.032 12.9157 25.3173 12.9157C25.6027 12.9157 25.834 12.6844 25.834 12.399C25.834 12.1137 25.6027 11.8823 25.3173 11.8823C25.032 11.8823 24.8006 12.1137 24.8006 12.399ZM12.4 4.6485C12.1146 4.6485 11.8833 4.41717 11.8833 4.13181C11.8833 3.84644 12.1146 3.61511 12.4 3.61511C12.6853 3.61511 12.9167 3.84644 12.9167 4.13181C12.9167 4.41717 12.6853 4.6485 12.4 4.6485ZM5.16624 12.9157C5.16624 13.2011 5.39757 13.4324 5.68293 13.4324C5.9683 13.4324 6.19963 13.2011 6.19963 12.9157C6.19963 12.6304 5.9683 12.399 5.68293 12.399C5.39757 12.399 5.16624 12.6304 5.16624 12.9157ZM6.19966 11.3657C5.9143 11.3657 5.68296 11.1343 5.68296 10.849C5.68296 10.5636 5.9143 10.3323 6.19966 10.3323C6.48502 10.3323 6.71635 10.5636 6.71635 10.849C6.71635 11.1343 6.48502 11.3657 6.19966 11.3657ZM16.5336 8.78207C16.5336 9.06744 16.7649 9.29877 17.0502 9.29877C17.3356 9.29877 17.5669 9.06744 17.5669 8.78207C17.5669 8.49671 17.3356 8.26538 17.0502 8.26538C16.7649 8.26538 16.5336 8.49671 16.5336 8.78207Z" fill="#00305B"/>
</svg>
