<svg width="36" height="34" viewBox="0 0 36 34" fill="none" xmlns="http://www.w3.org/2000/svg">
<path d="M23.2815 22.4012C22.2608 23.5138 20.9202 23.8877 20.2297 23.2542C18.6465 21.7086 22.1935 17.8435 23.8689 19.2874C24.5589 19.9204 24.3016 21.2893 23.2815 22.4012ZM20.6429 22.8038C20.933 23.0699 21.6085 22.9684 22.2867 22.4709C21.6602 22.5315 21.028 22.4083 20.4673 22.1164C20.4324 22.42 20.4934 22.6667 20.6423 22.8033L20.6429 22.8038ZM21.147 20.7062C21.4613 20.7112 21.7716 20.6424 22.0533 20.5056C22.4427 20.307 22.758 19.9896 22.9538 19.599C22.4636 19.6009 21.6543 20.0616 21.1413 20.7053L21.147 20.7062ZM22.3291 21.0564C21.8635 21.2825 21.3409 21.3675 20.8252 21.3011C20.8007 21.2978 20.7766 21.2917 20.7534 21.2829C20.7101 21.3623 20.6724 21.4414 20.6386 21.5188C21.4174 21.943 22.246 21.9949 22.9116 21.6612C23.0263 21.6037 23.1351 21.5353 23.2366 21.4569C23.6604 20.7866 23.741 20.1414 23.5297 19.8274C23.2746 20.3579 22.8515 20.7885 22.3255 21.0531L22.3291 21.0564ZM0.754074 15.755C0.660736 15.5373 0.625401 15.2996 0.651528 15.0653C0.683655 14.7836 0.781411 14.5139 0.93697 14.2778C0.998143 14.1819 1.06751 14.0916 1.14429 14.0077C1.25549 13.8869 1.38065 13.7796 1.51721 13.6882C1.70158 13.5619 1.90814 13.4712 2.12637 13.4208C2.23312 13.3964 2.343 13.3878 2.45254 13.3951C2.51189 13.3998 2.57062 13.4108 2.62772 13.428C2.69196 13.4483 2.75311 13.4775 2.80943 13.5146L2.56579 13.8802L2.81531 13.5189L18.5306 24.4418C17.4626 22.9205 18.4781 20.5405 19.7617 19.1699C21.0816 17.693 23.5596 16.4187 25.17 17.6644L12.6891 2.68486L12.6856 2.68159C12.6008 2.57054 12.5416 2.44225 12.5123 2.30601C12.4652 2.09313 12.4731 1.87227 12.5351 1.66422C12.6075 1.41896 12.7361 1.19438 12.9108 1.00822C13.1046 0.798048 13.3411 0.631576 13.6047 0.519722C13.8417 0.416731 14.0971 0.361759 14.3562 0.357965C14.476 0.35619 14.5957 0.370838 14.7118 0.401507C14.7725 0.417713 14.8313 0.440151 14.8875 0.468454C14.95 0.499741 15.0081 0.539487 15.0599 0.586568C15.0859 0.610415 15.1101 0.636222 15.1322 0.66375L14.7883 0.936242L15.1394 0.672544L35.1715 26.6732C35.3119 26.8531 35.3844 27.0764 35.3762 27.3033C35.368 27.5303 35.2795 27.7463 35.1266 27.9131C35.0925 27.9499 35.0559 27.9843 35.0169 28.016C34.8382 28.1577 34.6141 28.2307 34.3851 28.2216C34.156 28.2126 33.937 28.1222 33.7674 27.9667C33.7325 27.9345 33.7002 27.8997 33.6705 27.8627L29.1566 22.4448C29.1408 22.5821 29.0965 22.7144 29.0264 22.8332C29.0043 22.8681 28.9908 22.9078 28.9872 22.9491C28.9835 22.9903 28.9898 23.032 29.0054 23.0705C29.0798 23.2796 29.0848 23.5065 29.0197 23.7174C28.9545 23.9284 28.8227 24.112 28.6439 24.241C28.6037 24.2673 28.5715 24.3043 28.5509 24.3477C28.5302 24.3912 28.5219 24.4396 28.5268 24.4877C28.5425 24.6956 28.4945 24.9027 28.389 25.0815C28.2835 25.2603 28.1257 25.4022 27.9366 25.4883C27.8918 25.5071 27.853 25.5378 27.8245 25.577C27.796 25.6163 27.7788 25.6627 27.7747 25.7112C27.7509 25.9242 27.6603 26.1236 27.5159 26.2811C27.3714 26.4385 27.1805 26.5459 26.9704 26.588C26.9224 26.5963 26.8778 26.6176 26.8412 26.6495C26.8046 26.6814 26.7775 26.7227 26.7628 26.769C26.6933 26.9648 26.5655 27.1342 26.3964 27.2546C26.2273 27.3751 26.0251 27.4408 25.8166 27.443C25.7683 27.4423 25.7208 27.4547 25.6793 27.479C25.6377 27.5033 25.6037 27.5385 25.5809 27.5809C25.4678 27.7713 25.2957 27.9193 25.0903 28.0027C24.8849 28.0861 24.6574 28.1004 24.442 28.0435C24.4022 28.0316 24.3602 28.0291 24.3195 28.0363C24.2788 28.0435 24.2403 28.0601 24.2073 28.0849C24.1295 28.1397 24.0443 28.1833 23.9542 28.2143L29.7729 32.253C29.8117 32.2791 29.8486 32.3082 29.8831 32.34C30.0531 32.496 30.1622 32.7071 30.1906 32.9351C30.219 33.1632 30.1649 33.3932 30.038 33.5835C30.0106 33.6243 29.9802 33.663 29.9471 33.6993C29.7935 33.8664 29.585 33.973 29.3588 34.0002C29.1326 34.0273 28.9034 33.9732 28.7121 33.8474L1.10687 16.1826L1.10332 16.1793C1.0676 16.1557 1.03389 16.1291 1.00252 16.0999C0.89646 16.0035 0.811793 15.8859 0.754074 15.755ZM22.8145 17.9085C21.9078 18.1597 20.9853 18.7591 20.2182 19.5953C19.4511 20.4314 18.9332 21.402 18.7609 22.3269C18.406 24.1012 19.5463 25.1472 21.2834 24.6411C22.1901 24.39 23.1132 23.7911 23.8803 22.9549C24.6474 22.1188 25.1642 21.1482 25.3369 20.2227C25.6916 18.4439 24.5514 17.3979 22.8145 17.9085ZM34.3457 27.3114L34.3492 27.3147L34.3593 27.3239C34.3734 27.3366 34.3914 27.3439 34.4102 27.3446C34.4198 27.3454 34.4294 27.3442 34.4385 27.3413C34.4477 27.3383 34.4561 27.3335 34.4633 27.3273L34.4719 27.3179C34.4845 27.3039 34.4916 27.286 34.4922 27.2672C34.4935 27.2481 34.4873 27.2292 34.475 27.2145L14.4773 1.25737C14.4518 1.25259 14.4261 1.2496 14.4002 1.24843C14.2821 1.24717 14.1649 1.2659 14.0534 1.30381C13.9185 1.34799 13.7929 1.41626 13.6828 1.5053C13.6415 1.53923 13.6027 1.57598 13.5666 1.61529C13.4622 1.72069 13.3933 1.8561 13.3694 2.00291C13.3653 2.04065 13.3671 2.07886 13.3748 2.11614C13.3769 2.12476 13.3798 2.13319 13.3833 2.14133L34.3457 27.3114ZM23.3626 27.5742C23.432 27.6283 23.5167 27.6588 23.6043 27.6611C23.692 27.6635 23.7777 27.6375 23.8489 27.5871C23.955 27.5108 24.0771 27.4592 24.2061 27.4361C24.3352 27.4131 24.4681 27.4192 24.595 27.4539C24.6807 27.4764 24.7712 27.4706 24.8529 27.4374C24.9345 27.4041 25.003 27.3453 25.0481 27.2697C25.1244 27.1376 25.2342 27.0281 25.3666 26.9521C25.499 26.8761 25.6493 26.8363 25.8026 26.8367C25.8856 26.8354 25.9661 26.8089 26.0333 26.7607C26.1006 26.7126 26.1514 26.645 26.179 26.5669C26.2283 26.4208 26.3154 26.2906 26.4317 26.1896C26.548 26.0885 26.6892 26.0203 26.8411 25.9917C26.9246 25.975 27.0005 25.9322 27.0579 25.8696C27.1154 25.807 27.1514 25.7277 27.161 25.643C27.1763 25.4893 27.2323 25.3427 27.323 25.2183C27.4138 25.0938 27.5362 24.9959 27.6777 24.9345C27.7529 24.9 27.8157 24.8434 27.8578 24.7722C27.8999 24.701 27.9193 24.6186 27.9135 24.5358C27.8999 24.3831 27.9267 24.2299 27.991 24.0915C28.0553 23.9531 28.1549 23.8342 28.28 23.7468C28.3515 23.6954 28.4042 23.6221 28.4303 23.5379C28.4563 23.4537 28.4544 23.3631 28.4246 23.2796C28.3791 23.1561 28.3616 23.0243 28.3734 22.8937C28.3853 22.7631 28.4262 22.6371 28.4932 22.5248C28.5372 22.4496 28.5557 22.3619 28.5459 22.2748C28.536 22.1877 28.4983 22.1059 28.4385 22.0415C28.3509 21.9507 28.2839 21.8424 28.2418 21.7238C28.1998 21.6053 28.1837 21.4792 28.1947 21.3544C28.1957 21.3355 28.1956 21.3166 28.1943 21.2977L27.8821 20.9235L27.8734 20.921C27.7149 20.8875 27.5682 20.8112 27.4494 20.7003C27.3307 20.5895 27.2445 20.4484 27.2002 20.2925C27.1805 20.2249 27.1437 20.1633 27.0934 20.1139C27.043 20.0644 26.9807 20.0288 26.9127 20.0104C26.7731 19.9735 26.6443 19.9031 26.5377 19.8052C26.4311 19.7074 26.3498 19.5852 26.3011 19.4492C26.2787 19.3871 26.2415 19.3311 26.1927 19.2864C26.1439 19.2416 26.085 19.2093 26.0211 19.1924C26.0079 19.1889 25.9952 19.1848 25.9819 19.1803C26.2862 22.039 23.1794 25.4254 20.3057 25.3674L20.3206 25.406C20.343 25.4682 20.3802 25.5241 20.429 25.5689C20.4778 25.6136 20.5367 25.6459 20.6006 25.6629C20.7402 25.6998 20.869 25.7702 20.9756 25.868C21.0822 25.9658 21.1635 26.0881 21.2122 26.224C21.2319 26.2766 21.2622 26.3247 21.3012 26.3652L21.4349 26.4576C21.4613 26.4707 21.4892 26.4803 21.518 26.4861C21.6481 26.5116 21.771 26.5659 21.8777 26.645C21.9844 26.7241 22.0721 26.8261 22.1343 26.9433L22.7533 27.3725C22.9733 27.3594 23.1908 27.4298 23.3624 27.5696L23.3626 27.5742ZM29.1835 33.1169L29.1871 33.1201C29.2033 33.1305 29.2225 33.1352 29.2416 33.1333C29.2603 33.1311 29.2776 33.1224 29.2904 33.1088L29.299 33.0993C29.3097 33.0836 29.3145 33.0645 29.3123 33.0455C29.3099 33.0265 29.3009 33.009 29.2867 32.996L29.2748 32.9851L2.36466 14.2805C2.34818 14.2822 2.33183 14.2849 2.31568 14.2886C2.2284 14.3107 2.14513 14.3461 2.06874 14.3934C1.96922 14.4525 1.87887 14.5258 1.80047 14.6108C1.75805 14.6572 1.71962 14.707 1.68557 14.7599C1.58106 14.9078 1.5267 15.0855 1.53037 15.2673C1.53334 15.3173 1.5447 15.3665 1.56395 15.4129C1.56955 15.4266 1.57664 15.4396 1.58509 15.4518C1.58841 15.4553 1.59197 15.4585 1.59577 15.4615L29.1835 33.1169ZM26.8105 23.3777C26.8514 23.3331 26.9047 23.3018 26.9636 23.2877C27.0225 23.2736 27.0845 23.2772 27.1417 23.2983C27.1988 23.3193 27.2486 23.3568 27.2847 23.4059C27.3208 23.455 27.3416 23.5136 27.3445 23.5743C27.3474 23.6349 27.3322 23.6949 27.3009 23.7466C27.2696 23.7984 27.2235 23.8395 27.1686 23.8649C27.1136 23.8903 27.0522 23.8987 26.9922 23.8892C26.9321 23.8797 26.8761 23.8526 26.8311 23.8113C26.8007 23.7838 26.776 23.7506 26.7584 23.7136C26.7409 23.6766 26.7309 23.6366 26.7289 23.5958C26.727 23.555 26.7332 23.5143 26.7471 23.4761C26.7611 23.4379 26.7826 23.4029 26.8103 23.3731L26.8105 23.3777ZM26.352 22.826C26.3069 22.7848 26.2749 22.7313 26.2601 22.6723C26.2453 22.6133 26.2483 22.5514 26.2688 22.4944C26.2892 22.4374 26.3262 22.3878 26.375 22.3521C26.4239 22.3164 26.4823 22.296 26.543 22.2936C26.6037 22.2911 26.6639 22.3068 26.716 22.3385C26.7681 22.3702 26.8098 22.4166 26.8357 22.4717C26.8617 22.5269 26.8707 22.5883 26.8617 22.6483C26.8527 22.7083 26.8261 22.7641 26.7852 22.8086C26.7298 22.8675 26.6531 22.9019 26.5719 22.9043C26.4907 22.9067 26.4116 22.8769 26.3517 22.8214L26.352 22.826ZM23.6202 26.3193C23.661 26.2746 23.7142 26.2431 23.7731 26.2288C23.8321 26.2146 23.8941 26.2181 23.9513 26.2391C24.0086 26.26 24.0584 26.2974 24.0946 26.3465C24.1308 26.3956 24.1517 26.4542 24.1547 26.5149C24.1577 26.5755 24.1425 26.6356 24.1113 26.6874C24.08 26.7392 24.034 26.7804 23.979 26.8058C23.924 26.8312 23.8626 26.8397 23.8025 26.8302C23.7424 26.8207 23.6863 26.7936 23.6413 26.7523C23.6114 26.7248 23.5872 26.6916 23.5701 26.6548C23.553 26.618 23.5432 26.5782 23.5415 26.5378C23.5397 26.4973 23.5459 26.457 23.5598 26.4191C23.5737 26.3812 23.595 26.3465 23.6224 26.3169L23.6202 26.3193ZM27.3118 21.9262C27.3527 21.8816 27.4059 21.8503 27.4649 21.8362C27.5238 21.8221 27.5858 21.8257 27.643 21.8468C27.7001 21.8678 27.7499 21.9053 27.786 21.9544C27.8221 22.0035 27.8429 22.0621 27.8458 22.1228C27.8487 22.1834 27.8335 22.2434 27.8022 22.2951C27.7709 22.3469 27.7248 22.388 27.6699 22.4134C27.6149 22.4388 27.5535 22.4472 27.4935 22.4377C27.4334 22.4282 27.3773 22.4011 27.3324 22.3598C27.2723 22.3044 27.2364 22.2277 27.2326 22.1465C27.2287 22.0652 27.2572 21.986 27.3118 21.9262ZM22.5976 25.9215C22.6385 25.8769 22.6917 25.8456 22.7507 25.8315C22.8096 25.8174 22.8716 25.821 22.9287 25.8421C22.9859 25.8631 23.0357 25.9006 23.0718 25.9497C23.1079 25.9988 23.1287 26.0574 23.1316 26.1181C23.1345 26.1787 23.1193 26.2387 23.088 26.2904C23.0566 26.3422 23.0106 26.3833 22.9557 26.4087C22.9007 26.4341 22.8393 26.4425 22.7792 26.433C22.7192 26.4235 22.6631 26.3964 22.6182 26.3551C22.5581 26.2997 22.5222 26.223 22.5184 26.1418C22.5145 26.0605 22.543 25.9813 22.5976 25.9215Z" fill="#00305B"/>
</svg>
