<svg width="23" height="29" viewBox="0 0 23 29" fill="none" xmlns="http://www.w3.org/2000/svg">
<path d="M16.023 6.23643C16.0343 6.25635 16.0493 6.27385 16.0673 6.28793C16.0854 6.30201 16.106 6.3124 16.128 6.31849C16.1501 6.32459 16.1731 6.32627 16.1958 6.32345C16.2185 6.32063 16.2404 6.31335 16.2603 6.30205L16.9403 5.90718C16.9802 5.88434 17.0095 5.8466 17.0218 5.80223C17.0341 5.75786 17.0283 5.71046 17.0057 5.67039C16.9944 5.65048 16.9793 5.63301 16.9612 5.61896C16.9431 5.60492 16.9224 5.59459 16.9003 5.58856C16.8782 5.58254 16.8552 5.58093 16.8325 5.58385C16.8097 5.58676 16.7878 5.59413 16.7679 5.60553L16.0877 5.99921C16.0477 6.02219 16.0185 6.06005 16.0064 6.10451C15.9943 6.14898 16.0002 6.19641 16.023 6.23643ZM17.6505 8.36174C17.6835 8.39341 17.7275 8.4112 17.7733 8.41146C17.8191 8.41172 17.8633 8.39443 17.8968 8.36313C17.9231 8.33948 17.9507 8.31615 17.9793 8.29315C17.9929 8.28186 18.0072 8.27102 18.0215 8.26016L18.025 8.25413C18.0288 8.25081 18.0329 8.24778 18.0372 8.2451C18.0933 8.20371 18.1497 8.1639 18.2066 8.12568C18.3271 8.05082 18.4531 7.98542 18.5837 7.93006C18.6039 7.91865 18.6217 7.90331 18.6359 7.88493C18.6502 7.86655 18.6606 7.8455 18.6666 7.82304C18.6779 7.77914 18.6716 7.73258 18.6491 7.69327C18.6254 7.65406 18.5877 7.62541 18.5435 7.61321C18.4994 7.60101 18.4523 7.60618 18.4118 7.62766C18.1327 7.74772 17.8743 7.91112 17.6461 8.11183C17.6297 8.1282 17.6168 8.14766 17.608 8.16909C17.5992 8.19052 17.5948 8.21348 17.595 8.23662C17.5952 8.25977 17.6 8.28264 17.6091 8.3039C17.6183 8.32516 17.6316 8.34438 17.6482 8.36043L17.6505 8.36174ZM18.5918 10.5586C18.7732 10.5054 18.9565 10.4593 19.1415 10.4224C19.2315 10.4039 19.3217 10.3886 19.4109 10.3768L19.4802 10.3664L19.5041 10.3632L19.5218 10.3603L19.6693 10.3449C19.7152 10.3434 19.7587 10.3244 19.791 10.2918C19.8233 10.2592 19.8418 10.2155 19.8429 10.1696C19.8428 10.1467 19.8383 10.124 19.8294 10.1029C19.8206 10.0817 19.8077 10.0626 19.7914 10.0464C19.7751 10.0303 19.7559 10.0176 19.7346 10.009C19.7134 10.0003 19.6907 9.99596 19.6678 9.99612C19.2723 10.0383 18.8813 10.1154 18.4993 10.2265C18.4772 10.2325 18.4565 10.2427 18.4383 10.2566C18.4201 10.2706 18.4049 10.2879 18.3935 10.3078C18.382 10.3276 18.3746 10.3495 18.3716 10.3722C18.3686 10.3948 18.3701 10.4179 18.376 10.44C18.3889 10.4837 18.4183 10.5207 18.4581 10.5429C18.4978 10.5651 18.5447 10.5708 18.5887 10.5588L18.5918 10.5586ZM9.19056 2.74929C9.19147 2.75988 9.19474 2.77685 9.19056 2.74929V2.74929ZM13.8647 4.69665C13.8807 4.71294 13.8998 4.7259 13.9209 4.73478C13.942 4.74367 13.9646 4.74831 13.9875 4.74844C14.0103 4.74857 14.033 4.74418 14.0542 4.73554C14.0754 4.72689 14.0947 4.71415 14.1109 4.69804C14.2116 4.59327 14.3187 4.4949 14.4316 4.4035C14.4452 4.39221 14.4591 4.38212 14.4726 4.37083L14.498 4.35128C14.5241 4.33216 14.549 4.31336 14.5754 4.29543C14.6369 4.2515 14.6991 4.20994 14.7631 4.17045C14.803 4.14761 14.8323 4.10987 14.8446 4.0655C14.8568 4.02113 14.851 3.97374 14.8285 3.93366C14.8172 3.91375 14.8021 3.89624 14.7841 3.88216C14.7661 3.86808 14.7455 3.8577 14.7234 3.85161C14.7014 3.84551 14.6784 3.84383 14.6557 3.84665C14.633 3.84947 14.611 3.85674 14.5911 3.86805C14.3255 4.03251 14.0813 4.22933 13.8641 4.45399C13.8327 4.48623 13.815 4.52937 13.8147 4.57437C13.8144 4.61936 13.8315 4.66272 13.8624 4.69535L13.8647 4.69665ZM13.4945 10.6769C13.3404 10.5879 13.1573 10.5639 12.9855 10.6101C12.8136 10.6562 12.667 10.7688 12.5779 10.9231C12.4889 11.0774 12.4646 11.2607 12.5104 11.4327C12.5563 11.6048 12.6686 11.7515 12.8226 11.8407C12.9768 11.9297 13.1601 11.9538 13.3322 11.9075C13.5043 11.8613 13.6511 11.7486 13.7403 11.5941C13.7844 11.5175 13.813 11.4329 13.8244 11.3452C13.8358 11.2575 13.8298 11.1685 13.8068 11.0831C13.7838 10.9978 13.7441 10.9179 13.6901 10.8479C13.6361 10.778 13.5689 10.7194 13.4922 10.6756L13.4945 10.6769ZM22.1574 15.6784C22.3065 13.375 21.8992 11.0702 20.9699 8.95874C19.7415 6.14655 17.6456 3.80245 14.9888 2.26935C13.0598 1.15555 10.8996 0.501996 8.67604 0.359437C6.37408 0.213462 4.07019 0.623827 1.95886 1.55589C1.65716 1.68876 1.36404 1.82995 1.07953 1.97946L0.502989 2.28218L12.0333 28.5759L12.6459 28.3534C12.948 28.2442 13.2516 28.1238 13.5569 27.9933C16.3689 26.7616 18.7137 24.6615 20.2479 22.0008C21.3588 20.0669 22.0096 17.9033 22.1497 15.678L22.1574 15.6784ZM16.3154 24.6089C16.2612 24.4931 16.1937 24.384 16.1145 24.2837C16.0426 24.1889 15.9652 24.0969 15.8876 24.0069L15.8357 23.9437L15.8049 23.9048L15.789 23.8836L15.7739 23.8628L15.7463 23.8237L15.6927 23.7425C15.6815 23.7226 15.6664 23.7051 15.6484 23.691C15.6304 23.6769 15.6097 23.6666 15.5877 23.6605C15.5657 23.6544 15.5426 23.6527 15.5199 23.6555C15.4972 23.6583 15.4753 23.6656 15.4554 23.6769C15.4355 23.6882 15.418 23.7034 15.4039 23.7215C15.3899 23.7396 15.3795 23.7603 15.3735 23.7824C15.3674 23.8045 15.3658 23.8276 15.3687 23.8504C15.3716 23.8731 15.3789 23.895 15.3903 23.9149C15.5234 24.1115 15.6689 24.2993 15.826 24.4772L15.8502 24.5083L15.8548 24.5109L15.8593 24.5135L15.9052 24.5783C15.936 24.6229 15.9637 24.6695 15.9884 24.7178L16.0046 24.7523L16.0152 24.7775C16.0225 24.7978 16.0299 24.8182 16.036 24.8388C15.6048 25.1947 15.1506 25.5217 14.6764 25.8177C14.6003 25.6816 14.5168 25.5498 14.4262 25.4229C14.2559 25.1787 14.0716 24.9325 13.9901 24.6421C13.9292 24.4259 13.594 24.514 13.6537 24.7325C13.74 25.0388 13.9175 25.3002 14.098 25.5583C14.2006 25.6994 14.2943 25.8469 14.3785 25.9997C13.9307 26.2628 13.4678 26.4993 12.9923 26.7079C12.921 26.7392 12.8487 26.7688 12.7763 26.7985L2.30657 2.9212C2.37753 2.88876 2.44548 2.85458 2.5187 2.82344C4.42532 1.98128 6.50597 1.61033 8.58494 1.74194C10.5946 1.87086 12.5471 2.46159 14.2906 3.46827C16.6911 4.85656 18.5831 6.9784 19.6891 9.52265C20.0872 10.4305 20.3809 11.3808 20.5647 12.3553C20.5383 12.3491 20.5109 12.3494 20.4847 12.3564C20.388 12.383 20.2903 12.4061 20.1918 12.4236L20.1154 12.4358L20.102 12.4381L20.0749 12.4416C20.0235 12.4471 19.9691 12.4509 19.9221 12.454C19.8251 12.4603 19.7283 12.4627 19.6314 12.4601C19.58 12.4586 19.5321 12.458 19.4767 12.4512C19.4542 12.4503 19.4313 12.4482 19.4089 12.4453L19.3663 12.4408L19.3531 12.4392C19.3085 12.4287 19.2615 12.4357 19.2219 12.459C19.1823 12.4822 19.1532 12.5197 19.1405 12.5639C19.1347 12.586 19.1333 12.6091 19.1364 12.6318C19.1395 12.6544 19.1471 12.6763 19.1586 12.696C19.1702 12.7157 19.1855 12.733 19.2037 12.7468C19.222 12.7606 19.2428 12.7707 19.2649 12.7765C19.7037 12.8375 20.1505 12.8083 20.5779 12.6908C20.5941 12.6858 20.6095 12.6784 20.6237 12.6689C20.7313 13.3308 20.7875 14 20.7917 14.6707C20.4108 14.618 20.0274 14.5853 19.643 14.5727C19.6202 14.5729 19.5975 14.5776 19.5765 14.5865C19.5554 14.5954 19.5363 14.6084 19.5203 14.6248C19.5042 14.6411 19.4915 14.6604 19.4829 14.6816C19.4744 14.7029 19.47 14.7256 19.4702 14.7485C19.4705 14.7945 19.489 14.8386 19.5216 14.8711C19.5543 14.9035 19.5985 14.9216 19.6445 14.9215C20.0287 14.9334 20.4119 14.9666 20.7924 15.021C20.7886 15.2119 20.7797 15.4013 20.7658 15.589C20.7304 16.1283 20.6618 16.665 20.5601 17.196C20.1855 17.1874 19.8122 17.1472 19.4444 17.0757C19.4222 17.0699 19.3992 17.0686 19.3765 17.0717C19.3539 17.0748 19.332 17.0824 19.3123 17.094C19.2925 17.1056 19.2753 17.1209 19.2615 17.1392C19.2476 17.1574 19.2375 17.1782 19.2318 17.2004C19.2203 17.2451 19.227 17.2925 19.2504 17.3322C19.2738 17.3719 19.3119 17.4007 19.3566 17.4122C19.7298 17.4844 20.1082 17.527 20.4883 17.5396C20.3164 18.3253 20.0726 19.0935 19.76 19.8345C19.4099 19.6927 19.0597 19.5478 18.7119 19.4003C18.6804 19.3851 18.6454 19.3787 18.6106 19.3818C18.5757 19.3849 18.5424 19.3973 18.514 19.4178C19.7085 16.479 19.4796 13.0483 18.2177 10.1645C16.9866 7.28655 14.5293 4.77365 11.6069 3.67873C11.6444 3.67796 11.6808 3.66505 11.7104 3.64193C11.7401 3.6188 11.7614 3.5867 11.7713 3.55043C11.859 3.27846 11.9072 2.99533 11.9142 2.70972C11.9142 2.68681 11.9096 2.66414 11.9008 2.64301C11.8919 2.62187 11.879 2.6027 11.8627 2.58659C11.8465 2.57047 11.8272 2.55773 11.806 2.54909C11.7848 2.54045 11.7621 2.53608 11.7392 2.53624C11.6932 2.53673 11.6492 2.55542 11.6169 2.58822C11.5847 2.62101 11.5666 2.66526 11.5668 2.71128C11.5642 2.78017 11.5608 2.84862 11.5498 2.91467C11.5486 2.92903 11.547 2.9422 11.545 2.95613L11.5424 2.96065C11.5398 2.96518 11.5371 2.9697 11.5401 2.97846C11.5359 3.01019 11.5308 3.04149 11.5267 3.07128C11.5035 3.20196 11.4713 3.3309 11.4305 3.4572C11.4225 3.48788 11.4231 3.52015 11.4321 3.55052C11.4411 3.58088 11.4582 3.60821 11.4816 3.62954C10.7398 3.3597 9.9656 3.18864 9.17899 3.12075C9.20233 3.09965 9.21953 3.07262 9.22877 3.04254C9.238 3.01245 9.23892 2.98043 9.23142 2.94989C9.21712 2.89637 9.20488 2.84104 9.19534 2.78625L9.18873 2.74723L9.18602 2.72757L9.18801 2.73977C9.18458 2.71266 9.18203 2.68403 9.17979 2.65659C9.17242 2.5444 9.17559 2.43175 9.18925 2.32012L9.18633 2.34258C9.19525 2.29939 9.18887 2.25446 9.16829 2.2155C9.15678 2.19535 9.14137 2.17771 9.12294 2.16362C9.10451 2.14952 9.08344 2.13926 9.06099 2.13344C9.01736 2.12209 8.97102 2.12815 8.93172 2.15032C8.91105 2.16143 8.89299 2.17684 8.87875 2.1955C8.86451 2.21417 8.85441 2.23565 8.84915 2.25853C8.81256 2.52124 8.82899 2.78856 8.89746 3.04469C8.9041 3.06901 8.91621 3.09148 8.93286 3.11039C8.18894 3.07114 7.443 3.13157 6.71486 3.29006L6.71755 3.2715C6.72912 2.91496 6.65882 2.5606 6.51205 2.23568C6.50074 2.21577 6.48561 2.19829 6.46752 2.18424C6.44944 2.1702 6.42877 2.15987 6.40668 2.15385C6.38459 2.14782 6.36153 2.14622 6.33881 2.14914C6.31609 2.15205 6.29417 2.15942 6.2743 2.17082C6.2351 2.19466 6.2065 2.23262 6.19439 2.27689C6.18229 2.32116 6.18759 2.36837 6.20921 2.4088C6.21572 2.42362 6.22449 2.43974 6.22981 2.45488L6.23508 2.45793L6.24584 2.48627C6.25957 2.52336 6.27244 2.56196 6.28154 2.59839C6.30475 2.67331 6.32383 2.74946 6.33868 2.82648C6.34659 2.86265 6.35193 2.89934 6.35465 2.93627L6.35752 2.96608C6.36023 2.98575 6.36174 3.00574 6.36326 3.02572C6.36947 3.10613 6.37084 3.18684 6.36735 3.26743C6.36702 3.30041 6.37675 3.3327 6.39527 3.35998L6.30148 3.38326C5.8804 3.50265 5.46979 3.65643 5.07379 3.84305C4.90108 3.9143 4.55673 4.12279 4.38403 4.21315C6.86972 3.01139 9.86368 3.24653 12.2507 4.55028C15.8368 6.46681 18.206 10.3257 18.6025 14.343C19.0575 18.4051 17.1945 22.8114 13.2324 24.3907C14.7247 23.963 16.0368 23.0562 17.0347 21.8774C17.2198 22.1207 17.4351 22.3393 17.6755 22.528L18.0095 22.8073C17.501 23.4607 16.9312 24.0639 16.3077 24.6084L16.3154 24.6089ZM17.9602 22.3132C17.7061 22.1011 17.4495 21.8826 17.2688 21.5972C17.5446 21.2424 17.7924 20.8667 18.01 20.4734C18.1721 20.1804 18.3192 19.8793 18.4505 19.5713C18.451 19.5993 18.4592 19.6267 18.4742 19.6505C18.4892 19.6742 18.5104 19.6934 18.5356 19.7058C18.8956 19.8581 19.2567 20.0079 19.6189 20.1553C19.4417 20.5458 19.247 20.9282 19.0323 21.3C18.7851 21.7259 18.5139 22.1375 18.2202 22.5327L17.9602 22.3132ZM4.85159 3.73387C4.89596 3.7218 4.93378 3.69266 4.95679 3.65281C4.9798 3.61296 4.98613 3.56563 4.97439 3.52117L4.74377 2.675C4.73787 2.6529 4.72769 2.63218 4.71378 2.61403C4.69987 2.59587 4.68253 2.58065 4.66273 2.56922C4.64293 2.55779 4.62107 2.55038 4.59839 2.54741C4.57572 2.54444 4.55268 2.54597 4.53059 2.55192C4.50849 2.55784 4.48778 2.56806 4.46962 2.582C4.45147 2.59594 4.43623 2.61331 4.42478 2.63314C4.41334 2.65296 4.40591 2.67484 4.40292 2.69753C4.39993 2.72022 4.40143 2.74327 4.40735 2.76537L4.6384 3.61079C4.6443 3.63289 4.65448 3.65361 4.66839 3.67176C4.6823 3.68991 4.69965 3.70513 4.71945 3.71656C4.73925 3.72799 4.76111 3.73541 4.78378 3.73838C4.80645 3.74135 4.8295 3.73981 4.85159 3.73387ZM11.8485 6.8805C11.6943 6.79145 11.5109 6.7674 11.3388 6.81363C11.1667 6.85987 11.0199 6.9726 10.9308 7.12703C10.8419 7.28144 10.8178 7.46478 10.8639 7.63677C10.91 7.80876 11.0225 7.95534 11.1766 8.04431C11.3306 8.13324 11.5137 8.15727 11.6856 8.1111C11.8575 8.06492 12.0041 7.95234 12.0931 7.79811C12.1818 7.64395 12.206 7.46096 12.1602 7.2892C12.1144 7.11744 12.0024 6.97091 11.8488 6.88169L11.8485 6.8805ZM9.75589 10.1083C9.64323 10.0436 9.50943 10.0262 9.38387 10.06C9.25831 10.0939 9.15124 10.1762 9.08618 10.2889C9.02112 10.4016 9.00338 10.5355 9.03684 10.6611C9.07031 10.7868 9.15225 10.894 9.26469 10.9591C9.37737 11.0242 9.51131 11.0418 9.63705 11.008C9.76279 10.9742 9.87001 10.8919 9.93515 10.779C9.99994 10.6664 10.0175 10.5326 9.98395 10.4071C9.95041 10.2817 9.86852 10.1746 9.75621 10.1095L9.75589 10.1083Z" fill="#00305B"/>
</svg>
