<svg width="31" height="26" viewBox="0 0 31 26" fill="none" xmlns="http://www.w3.org/2000/svg">
<path fill-rule="evenodd" clip-rule="evenodd" d="M30.3464 1.04384C30.2371 0.863631 30.034 0.761551 29.8242 0.782033L5.71723 3.10146C5.06699 2.43805 4.11987 2.08264 3.13261 2.22781C1.49378 2.46903 0.356633 3.99855 0.597775 5.63747C1.16658 9.50196 2.47114 13.1614 4.47543 16.5141C6.47972 19.8668 9.0854 22.7483 12.2202 25.0789C12.5457 25.3209 12.9045 25.4869 13.2754 25.5803C14.4192 25.8681 15.6773 25.4641 16.4235 24.4602C16.9256 23.7848 17.1004 22.9658 16.9771 22.1937L30.3374 1.6279C30.4522 1.45111 30.4558 1.22411 30.3464 1.04384ZM9.08271 3.88112L11.6376 3.63539C11.839 3.99792 11.8716 4.4354 11.7151 4.83017C11.5772 5.17774 11.3122 5.45091 10.969 5.59927C10.6258 5.74762 10.2456 5.75336 9.8977 5.61556C9.55016 5.47773 9.27703 5.21286 9.12869 4.86958C8.99201 4.55331 8.97664 4.20556 9.08271 3.88112ZM15.542 23.8048C14.9151 24.6482 13.7187 24.8242 12.8756 24.1972C6.76716 19.656 2.79283 13.0079 1.68458 5.47749C1.61047 4.97388 1.7369 4.47158 2.04062 4.06302C2.34433 3.65451 2.78892 3.38872 3.29254 3.3146C3.79615 3.24049 4.2985 3.36693 4.70701 3.67064C5.11552 3.97435 5.38131 4.41894 5.45543 4.92255C5.92974 8.14589 7.01793 11.1982 8.68972 13.9947C10.3615 16.7911 12.5349 19.1946 15.1496 21.1385C15.9929 21.7654 16.169 22.9616 15.542 23.8048ZM24.3391 8.8449C24.2912 8.8316 24.2436 8.81668 24.1971 8.79828C23.8495 8.66045 23.5764 8.39553 23.4281 8.05232C23.2797 7.70909 23.274 7.32859 23.4118 6.98104C23.6963 6.26352 24.5113 5.91127 25.2291 6.19571C25.4505 6.2835 25.6432 6.42645 25.7925 6.60773L24.3391 8.8449ZM26.4072 5.66126C26.1833 5.45464 25.9219 5.28877 25.6339 5.17461C24.3533 4.66634 22.8984 5.29558 22.3907 6.57621C22.1447 7.19651 22.155 7.8755 22.4197 8.48808C22.6747 9.07812 23.1367 9.53793 23.7247 9.79071L21.887 12.6197L20.9047 11.3791C20.7164 11.1414 20.3709 11.1011 20.1332 11.2894C19.8954 11.4777 19.8553 11.8231 20.0435 12.0609L21.2556 13.5917L16.476 20.9491C16.2956 20.6902 16.072 20.4553 15.8052 20.2569C10.7492 16.4981 7.45965 10.9955 6.54243 4.76268C6.51057 4.54591 6.45547 4.33824 6.38125 4.14105L7.93549 3.99152C7.87713 4.43375 7.9389 4.88516 8.12046 5.30527C8.38514 5.91784 8.87262 6.39066 9.49294 6.63656C9.59685 6.67778 9.70224 6.71179 9.80887 6.73862C10.3387 6.87199 10.8948 6.82791 11.4048 6.60757C12.0174 6.3428 12.4902 5.85541 12.7362 5.23501C12.957 4.67809 12.9662 4.07373 12.7833 3.52513L19.9981 2.831L20.0965 3.49993C20.1299 3.72643 20.297 3.90017 20.506 3.95278C20.5739 3.96987 20.6462 3.97414 20.7198 3.96334C21.0199 3.9192 21.2274 3.64006 21.1832 3.34L21.0928 2.7257L28.7958 1.98457L26.4072 5.66126ZM5.43003 9.80233L5.42525 9.78867C5.32375 9.503 5.01022 9.35425 4.72449 9.45558C4.43924 9.55674 4.28988 9.87022 4.38998 10.1556C4.45253 10.338 4.60166 10.4664 4.77598 10.5103C4.87462 10.5352 4.98126 10.5329 5.08473 10.498C5.37221 10.4012 5.52679 10.0898 5.43003 9.80233ZM4.27882 5.09566C4.43621 6.16483 4.66304 7.23465 4.953 8.27529C5.03447 8.56747 4.86355 8.87031 4.57137 8.95178C4.47623 8.97829 4.37985 8.97804 4.29037 8.95552C4.10534 8.90895 3.94986 8.76708 3.89495 8.5701C3.59269 7.48537 3.35621 6.37018 3.19218 5.25562C3.14799 4.95555 3.3554 4.67645 3.65552 4.63232C3.95541 4.58814 4.2347 4.79549 4.27882 5.09566ZM18.2253 5.07787C18.1232 5.03734 18.0178 5.00333 17.9119 4.97668C16.702 4.67213 15.4424 5.31814 14.982 6.47936C14.4743 7.75994 15.1029 9.21488 16.3835 9.72263C16.4856 9.76315 16.591 9.79717 16.6969 9.82382C17.9067 10.1283 19.1663 9.48234 19.6268 8.32102C20.1345 7.04049 19.5058 5.58561 18.2253 5.07787ZM18.6058 7.9162C18.3477 8.56694 17.6424 8.92907 16.965 8.75857C16.9055 8.74358 16.846 8.72442 16.7884 8.70154C16.0708 8.417 15.7186 7.60179 16.0031 6.8842C16.2611 6.23351 16.9664 5.87143 17.6438 6.04193C17.7033 6.05691 17.7628 6.07607 17.8204 6.09895C18.5379 6.38354 18.8902 7.19872 18.6058 7.9162ZM16.1059 11.5667C16.2118 11.5933 16.3172 11.6273 16.4193 11.6679C17.6998 12.1757 18.3285 13.6305 17.8207 14.911C17.3603 16.0723 16.1006 16.7183 14.8907 16.4138C14.7849 16.3871 14.6795 16.3532 14.5775 16.3127C13.9571 16.0667 13.4697 15.5939 13.205 14.9813C12.9403 14.3687 12.93 13.6898 13.176 13.0694C13.6364 11.9081 14.896 11.2621 16.1059 11.5667ZM15.1589 15.3486C15.8363 15.5191 16.5417 15.157 16.7997 14.5062C17.0842 13.7887 16.7319 12.9735 16.0144 12.6889C15.9568 12.6661 15.8973 12.6469 15.8378 12.6319C15.1605 12.4614 14.4551 12.8236 14.1971 13.4742C14.0592 13.8219 14.065 14.2023 14.2134 14.5456C14.3617 14.8888 14.6349 15.1537 14.9824 15.2916C15.04 15.3144 15.0995 15.3336 15.1589 15.3486ZM13.4618 8.57715L11.879 7.94956C11.5973 7.83747 11.2779 7.97567 11.1661 8.25761C11.0542 8.53958 11.1922 8.85878 11.4741 8.97058L13.0568 9.59817C13.0797 9.60725 13.1027 9.61464 13.1259 9.62047C13.389 9.68671 13.667 9.54924 13.7698 9.29011C13.8817 9.0082 13.7438 8.68896 13.4618 8.57715ZM11.7743 11.1639L11.6424 12.2987C11.6074 12.6 11.3348 12.8158 11.0335 12.7808C11.0091 12.778 10.9853 12.7736 10.9621 12.7678C10.6989 12.7016 10.5192 12.4489 10.5514 12.1719L10.6833 11.0371C10.7183 10.7358 10.9909 10.52 11.2922 10.555C11.5935 10.5899 11.8093 10.8626 11.7743 11.1639Z" fill="#00305B"/>
</svg>
