<svg width="849" height="640" viewBox="0 0 849 640" fill="none" xmlns="http://www.w3.org/2000/svg">
<g clip-path="url(#clip0_1_3)">
<path d="M52.2655 533.719C31.2176 533.719 14.3793 529.861 0.627991 515.69L22.0266 494.294C30.6306 501.167 41.4847 504.593 52.476 503.905C65.7362 503.905 71.9804 499.485 71.9804 491.628C72.1609 488.696 71.2065 485.807 69.3145 483.56C66.7777 481.433 63.636 480.157 60.334 479.912L43.5657 477.667C33.3587 476.792 23.7326 472.548 16.2035 465.601C9.56656 458.088 6.185 448.247 6.80209 438.242C6.80209 413.338 25.6047 395.168 56.6154 395.168C76.1198 395.168 90.8534 399.728 102.5 411.444L81.452 432.489C77.9445 429.426 73.8374 427.126 69.3922 425.737C64.947 424.348 60.2611 423.9 55.6332 424.422C43.9867 424.422 39.1456 431.437 39.1456 437.049C39.1512 438.225 39.3897 439.389 39.8473 440.473C40.3049 441.556 40.9725 442.539 41.8117 443.363C44.4127 445.706 47.7214 447.113 51.2131 447.362L67.7007 449.747C77.6146 450.487 87.0201 454.425 94.5018 460.971C98.151 464.992 100.937 469.719 102.686 474.859C104.436 480 105.113 485.444 104.675 490.856C104.675 518.917 80.6804 533.719 51.985 533.719M191.322 532.597L185.008 512.323H142.912L135.896 532.597H100.816L150.419 396.291H176.869L226.472 532.597H191.322ZM164.732 447.993L152.524 484.332H176.869L164.732 447.993ZM232.296 532.597V396.291H265.762V502.922H323.012V532.807L232.296 532.597ZM370.159 532.597H345.253L300.281 396.291H334.94L357.952 472.476L380.473 396.291H415.553L370.159 532.597ZM475.399 532.597L469.085 512.323H426.989L419.973 532.597H384.893L434.426 396.291H460.315L509.918 532.597H475.399ZM448.809 447.993L436.601 484.332H460.315L448.809 447.993ZM603.862 519.198C598.922 523.747 593.13 527.274 586.82 529.574C580.51 531.873 573.807 532.901 567.098 532.597H516.583V396.291H567.098C573.809 395.971 580.516 396.991 586.828 399.292C593.14 401.593 598.931 405.127 603.862 409.69C619.788 425.614 617.894 443.012 617.894 464.409C617.894 485.805 619.648 503.273 603.862 519.198ZM580.92 433.822C579.167 431.231 576.753 429.155 573.928 427.811C571.103 426.466 567.97 425.902 564.853 426.176H550.119V502.922H564.853C567.97 503.196 571.103 502.632 573.928 501.287C576.753 499.943 579.167 497.867 580.92 495.276C583.586 491.417 584.568 487.84 584.568 464.619C584.568 441.399 583.586 437.821 580.92 434.033M717.31 518.636C707.038 528.444 693.381 533.916 679.178 533.916C664.975 533.916 651.318 528.444 641.046 518.636C627.014 504.606 627.014 485.104 627.014 464.619C627.014 444.135 626.453 424.983 641.046 410.672C651.318 400.865 664.975 395.392 679.178 395.392C693.381 395.392 707.038 400.865 717.31 410.672C731.342 424.703 731.342 444.205 731.342 464.619C731.342 485.034 731.904 504.255 717.31 518.636ZM692.544 431.156C690.918 429.2 688.864 427.645 686.54 426.61C684.216 425.576 681.685 425.092 679.143 425.194C676.604 425.107 674.078 425.599 671.756 426.632C669.435 427.665 667.378 429.212 665.743 431.156C662.726 435.155 660.761 439.785 660.761 464.619C660.761 489.453 662.726 493.943 665.743 497.942C667.361 499.92 669.409 501.504 671.731 502.574C674.053 503.644 676.588 504.171 679.143 504.115C681.701 504.187 684.241 503.667 686.566 502.596C688.89 501.525 690.936 499.932 692.544 497.942C695.631 493.943 697.595 489.523 697.595 464.619C697.595 439.715 695.631 435.155 692.544 431.156ZM809.64 532.807L785.997 481.877H774.701V532.597H741.235V396.291H795.187C801.176 395.885 807.183 396.72 812.834 398.745C818.484 400.769 823.654 403.939 828.022 408.056C832.389 412.172 835.859 417.147 838.213 422.667C840.568 428.188 841.756 434.135 841.703 440.136C841.759 447.556 839.705 454.839 835.779 461.136C831.854 467.433 826.22 472.485 819.533 475.703L849 532.597L809.64 532.807ZM793.153 426.526H774.21V453.816H793.153C795.181 454.2 797.269 454.132 799.268 453.617C801.266 453.102 803.127 452.153 804.717 450.836C806.306 449.52 807.586 447.869 808.464 446.001C809.343 444.133 809.798 442.095 809.798 440.031C809.798 437.967 809.343 435.928 808.464 434.061C807.586 432.193 806.306 430.542 804.717 429.225C803.127 427.909 801.266 426.959 799.268 426.444C797.269 425.929 795.181 425.861 793.153 426.246" fill="white"/>
<path d="M150.84 615.938H134.773V639.018H127.757V573.636H152.243C166.977 573.636 176.729 581.423 176.729 594.682C176.729 608.712 164.942 616.218 150.98 616.218M151.682 580.721H134.773V609.484H150.98C161.785 609.484 168.871 603.731 168.871 595.032C168.871 586.334 161.855 581.002 151.331 581.002M233.839 639.579L214.826 614.184H196.163V639.579H189.147V574.197H217.211C231.243 574.197 240.855 581.914 240.855 593.7C240.852 598.54 239.022 603.201 235.731 606.751C232.441 610.302 227.932 612.48 223.105 612.851L243.17 639.579H233.839ZM216.369 581.002H196.163V607.52H216.229C226.051 607.52 233.067 602.469 233.067 593.98C233.067 585.492 226.893 581.002 216.369 581.002ZM303.157 580.09H263.236V602.398H298.947V609.414H263.236V632.283H303.157V639.299H255.378V573.917H303.157V580.09ZM364.476 580.09H324.205V603.451H359.635V610.466H324.205V638.948H317.189V573.566H364.196L364.476 580.09ZM425.024 580.09H385.103V602.398H420.815V609.414H385.103V632.283H425.445V639.299H377.737V573.917H425.024V580.09ZM447.335 638.737H440.319V573.355H447.335V638.737ZM490.203 638.737H482.766V580.16H460.806V573.145H512.233V580.16H490.203V638.737ZM578.464 610.676C578.464 629.688 567.519 639.579 551.172 639.579C534.824 639.579 523.95 629.688 523.95 611.518V573.496H531.317V611.027C531.317 625.058 538.824 633.055 551.382 633.055C563.941 633.055 571.097 626.04 571.097 611.518V573.496H578.464V610.676ZM639.924 638.737L620.981 613.342H602.248V638.737H594.881V573.355H622.945C637.328 573.355 646.589 581.072 646.589 592.858C646.586 597.698 644.756 602.359 641.465 605.91C638.174 609.46 633.665 611.638 628.838 612.009L648.904 638.737H639.924ZM622.454 580.16H602.248V606.678H622.384C632.136 606.678 639.152 601.627 639.152 593.138C639.152 584.65 633.048 580.16 622.454 580.16ZM722.362 638.737H714.363L706.716 621.41H670.794L663.006 638.737H655.499L685.247 572.864H692.263L722.362 638.737ZM689.036 581.704L673.671 615.166H703.489L689.036 581.704Z" fill="white"/>
<path d="M423.481 138.481C423.202 138.471 422.924 138.519 422.664 138.621C422.404 138.723 422.168 138.878 421.971 139.075C421.773 139.273 421.619 139.509 421.516 139.768C421.414 140.028 421.366 140.306 421.376 140.585C421.376 141.144 421.598 141.679 421.993 142.073C422.387 142.468 422.923 142.69 423.481 142.69C424.039 142.69 424.574 142.468 424.969 142.073C425.364 141.679 425.586 141.144 425.586 140.585C425.596 140.306 425.548 140.028 425.445 139.768C425.343 139.509 425.188 139.273 424.991 139.075C424.794 138.878 424.557 138.723 424.298 138.621C424.038 138.519 423.76 138.471 423.481 138.481Z" fill="white"/>
<path d="M368.686 27.8506C369.539 27.5963 370.433 27.5171 371.317 27.6176C372.201 27.718 373.055 27.9961 373.828 28.4352C374.601 28.8742 375.278 29.4652 375.817 30.1725C376.356 30.8798 376.747 31.6887 376.965 32.5508L378.929 41.3198L381.455 40.7586C379.771 32.4105 378.859 28.1312 377.105 19.7129C370.089 21.2562 366.23 22.0981 359.074 24.2026L365.038 44.8274H366.16C365.178 41.3198 364.617 39.6362 363.635 36.1286C363.428 35.2712 363.396 34.381 363.539 33.5109C363.683 32.6407 363.999 31.8081 364.47 31.0624C364.941 30.3168 365.557 29.6732 366.281 29.1697C367.005 28.6662 367.823 28.3131 368.686 28.1313" fill="white"/>
<path d="M474.417 19.7831L469.997 40.8288L472.944 41.4602C473.715 37.9525 474.136 36.1988 474.908 32.621C475.611 31.1559 476.8 29.9802 478.274 29.2946C479.747 28.609 481.413 28.456 482.986 28.8617C484.56 29.2675 485.944 30.2069 486.902 31.5194C487.859 32.832 488.332 34.4362 488.238 36.0584C487.256 39.4959 486.695 41.2496 485.713 44.6871H486.695C489.08 36.4091 490.273 32.3404 492.729 24.0624C485.713 21.9578 481.713 21.0458 474.417 19.5024" fill="white"/>
<path d="M438.635 36.6196C439.127 28.061 439.407 23.7817 439.898 15.2231C430.556 14.55 421.177 14.55 411.834 15.2231C412.325 23.7817 412.536 28.1311 413.027 36.6897H417.447C417.447 33.1119 417.447 31.288 417.447 27.6401C417.447 23.9921 421.236 21.0457 426.147 21.0457C431.058 21.0457 434.987 24.1324 434.847 27.7102V36.6897H439.197" fill="white"/>
<path d="M486.835 58.9982C447.036 48.123 405.047 48.123 365.248 58.9982H486.835Z" fill="white"/>
<path d="M490.273 48.0546C448.091 36.4811 403.571 36.4811 361.389 48.0546C362.442 51.2115 362.933 52.8249 363.915 55.9818C404.458 44.7935 447.275 44.7935 487.818 55.9818C488.8 52.7548 489.361 51.2114 490.273 47.9844" fill="white"/>
<path d="M504.165 12.4873L502.2 11.7858C501.779 13.1889 501.639 13.8202 501.148 15.2232L496.377 13.6799C496.728 12.347 496.938 11.7156 497.289 10.3126L492.939 9.12002C492.518 10.4529 492.378 11.1544 492.027 12.4873L487.186 11.1544C487.186 9.82149 487.677 9.19015 488.028 7.7871L481.784 6.31396L479.118 18.0995C486.234 19.6866 493.26 21.6536 500.166 23.9923C501.639 19.3622 502.411 16.977 503.884 12.4873" fill="white"/>
<path d="M372.194 18.0995C371.072 13.3993 370.581 11.0843 369.528 6.31396L363.284 7.7871C363.284 9.19015 363.775 9.82149 364.126 11.1544L359.285 12.4873C358.864 11.1544 358.723 10.4529 358.373 9.12002L353.953 10.3126C354.373 11.7156 354.584 12.347 354.935 13.6799L350.164 15.2232L349.111 11.7858L347.147 12.4873C348.621 17.0472 349.322 19.5025 350.865 23.9923C357.771 21.6536 364.797 19.6866 371.913 18.0995" fill="white"/>
<path d="M384.823 39.9166L389.103 39.1449C388.541 35.5672 388.261 33.8133 387.629 30.2355C386.998 26.6578 390.436 23.2204 395.417 22.5189C400.399 21.8173 404.538 24.413 404.889 27.9907C405.239 31.5685 405.38 33.3924 405.73 36.9702L410.08 36.6194C409.449 27.9907 409.168 23.7816 408.537 15.1528C399.11 15.725 389.733 16.9438 380.473 18.8008C382.087 27.2191 382.858 31.4984 384.542 39.8465" fill="white"/>
<path d="M406.783 12.8377C406.783 8.06734 406.222 5.82245 405.801 0.771484L399.837 1.33272L400.188 4.84033L393.172 5.68213C393.172 4.27908 393.172 3.5776 392.751 2.1044L386.226 3.08652C386.226 4.48957 386.226 5.1911 386.787 6.59414C383.911 7.01506 382.508 7.29561 379.771 7.85683C379.771 6.45379 379.351 5.75226 379.14 4.34922L373.106 5.5419C374.158 10.2421 374.65 12.557 375.632 17.3976C385.955 15.0848 396.439 13.5605 406.993 12.8377" fill="white"/>
<path d="M478.977 5.68233L472.944 4.48975C472.944 5.82264 472.593 6.52421 472.382 7.92725L465.366 6.66446C465.366 5.33156 465.366 4.63011 465.928 3.22706L459.403 2.24493C459.403 3.64798 459.403 4.3495 458.982 5.75255L451.966 4.91065C451.966 3.5076 451.966 2.80608 452.387 1.40303C449.931 1.40303 448.668 0.982102 446.353 0.841797C445.932 5.68231 445.792 7.85704 445.371 12.908C455.912 13.5764 466.379 15.1252 476.662 17.5381C477.714 12.7677 478.205 10.5228 479.258 5.68233" fill="white"/>
<path d="M446.213 37.2511C446.564 33.6032 446.774 31.8494 447.125 28.2716C447.476 24.6938 451.755 22.1683 456.596 22.7997C461.437 23.4311 465.015 27.079 464.384 30.5866C463.753 34.0942 463.472 35.9182 462.841 39.496L467.191 40.2677C468.804 31.7792 469.576 27.5701 471.26 19.222C462.007 17.307 452.628 16.0644 443.196 15.5039C442.565 24.0625 442.284 28.3418 441.582 36.9705C443.336 36.9705 444.248 36.9705 445.932 37.3213" fill="white"/>
<path d="M441.722 12.6275C441.722 7.85718 442.214 5.61229 442.564 0.561325H436.46C436.46 1.96437 436.46 2.6659 436.46 4.06894H429.444C429.444 2.59574 429.444 1.96441 429.444 0.491211H422.429C422.429 1.96441 422.429 2.59574 422.429 4.06894C419.552 4.06894 418.149 4.06894 415.413 4.06894C415.413 2.59574 415.413 1.89426 415.413 0.491211C412.957 0.491211 411.764 0.491211 409.379 0.491211C409.379 5.33172 409.8 7.50646 410.151 12.5574C420.658 11.7156 431.215 11.7156 441.722 12.5574" fill="white"/>
<path d="M530.755 305.303H528.3L527.949 305.654C527.949 305.654 527.949 306.004 528.44 306.004C528.812 306.015 529.179 306.101 529.516 306.258C529.854 306.415 530.156 306.639 530.405 306.916C530.753 307.536 530.923 308.24 530.896 308.951V317.79V319.403C531.071 319.83 531.071 320.309 530.896 320.736C530.78 320.942 530.618 321.119 530.424 321.253C530.229 321.387 530.007 321.474 529.773 321.508V321.859L530.194 322.209H531.527H532.509H536.438L536.859 321.789L536.368 321.438C536.034 321.436 535.706 321.351 535.412 321.192C535.119 321.033 534.868 320.804 534.684 320.526C534.3 319.52 534.133 318.444 534.193 317.369V314.914C534.193 314.493 534.193 314.352 534.193 314.282H534.754H535.526C535.981 314.127 536.475 314.127 536.929 314.282C537.397 314.775 537.776 315.345 538.052 315.966C538.833 317.607 539.824 319.14 540.999 320.526C541.268 320.889 541.616 321.185 542.018 321.392C542.419 321.599 542.862 321.71 543.314 321.719C543.923 321.661 544.517 321.495 545.068 321.227C545.699 320.877 546.05 320.596 546.05 320.386H545.208C544.805 320.401 544.408 320.277 544.086 320.035C543.595 319.573 543.19 319.027 542.893 318.421L541.56 316.247L540.367 314.352V313.791C541.071 313.435 541.665 312.895 542.085 312.228C542.505 311.56 542.736 310.791 542.753 310.003C542.737 309.382 542.576 308.774 542.283 308.226C541.991 307.678 541.575 307.205 541.069 306.846C539.975 305.99 538.593 305.588 537.21 305.724H534.404C533.424 305.815 532.437 305.815 531.457 305.724M535.667 306.215C536.226 306.163 536.79 306.231 537.322 306.412C537.854 306.593 538.342 306.885 538.754 307.267C539.571 308.063 540.048 309.144 540.087 310.284C540.127 310.708 540.072 311.136 539.926 311.536C539.78 311.936 539.548 312.299 539.245 312.599C539.004 312.873 538.686 313.068 538.333 313.16H535.667C535.175 313.16 534.825 313.16 534.684 313.16C534.587 312.84 534.587 312.498 534.684 312.178V307.899C534.58 307.46 534.58 307.004 534.684 306.566C534.997 306.305 535.401 306.179 535.807 306.215" fill="white"/>
<path d="M496.868 301.445C495.244 301.324 493.628 301.113 492.027 300.813L487.467 300.042H486.204H485.572H485.151V300.463C485.806 300.548 486.406 300.872 486.835 301.374C487.081 301.982 487.081 302.661 486.835 303.269L485.362 312.88C485.262 313.473 485.122 314.059 484.941 314.633C484.815 315.014 484.626 315.369 484.38 315.686L483.397 316.106H483.047H483.748H486.414L488.519 316.527H489.852L491.536 316.878C492.254 317.022 492.993 317.022 493.711 316.878C494.316 316.614 494.846 316.204 495.254 315.686C495.736 315.041 496.071 314.298 496.237 313.511C495.416 314.527 494.303 315.267 493.048 315.631C491.794 315.994 490.458 315.965 489.221 315.545C488.8 315.545 488.519 315.545 488.379 315.545C488.239 315.545 488.379 315.124 487.958 314.774C487.866 313.934 487.866 313.087 487.958 312.248V311.196C488.031 310.534 488.148 309.878 488.309 309.232V308.6C488.56 308.524 488.829 308.524 489.08 308.6H489.922C490.499 308.621 491.069 308.74 491.606 308.951L492.308 309.372C492.637 309.897 492.807 310.506 492.799 311.126V311.617V310.985C492.799 310.494 492.799 310.003 492.799 309.372C492.799 308.741 492.799 307.758 492.799 307.478V306.917V306.496H492.378V307.057C492.183 307.416 491.886 307.709 491.523 307.896C491.16 308.084 490.749 308.158 490.343 308.109H489.291H488.379C488.242 308.112 488.107 308.081 487.985 308.02C487.862 307.959 487.757 307.869 487.677 307.758C487.577 307.272 487.577 306.771 487.677 306.285L488.098 303.619V303.128C488.098 302.427 488.098 302.076 488.87 302.006H489.712H491.185C492.16 302.069 493.103 302.384 493.921 302.918C494.18 303.151 494.37 303.452 494.469 303.786C494.568 304.12 494.573 304.475 494.483 304.812C494.483 305.163 494.483 305.373 494.483 305.373C494.483 305.373 495.044 305.373 495.114 304.531C495.169 303.995 495.169 303.454 495.114 302.918C495.114 302.497 495.114 302.146 495.114 302.006V301.515L496.868 301.445Z" fill="white"/>
<path d="M408.397 311.476H407.905C407.693 311.508 407.476 311.493 407.27 311.433C407.064 311.372 406.874 311.267 406.713 311.125C406.209 310.711 405.782 310.213 405.45 309.652L403.976 307.478L402.714 305.654V305.092C403.442 304.703 404.049 304.12 404.468 303.409C404.836 302.72 405.007 301.943 404.959 301.164C404.927 300.54 404.745 299.933 404.427 299.396C404.109 298.858 403.666 298.405 403.135 298.077C401.993 297.272 400.592 296.922 399.206 297.095C398.715 297.095 397.802 297.095 396.469 297.516H393.523C392.846 297.582 392.165 297.582 391.488 297.516H390.997C390.997 297.516 390.997 297.867 391.558 297.937C392.282 297.961 392.976 298.234 393.523 298.709C393.859 299.336 394.051 300.031 394.084 300.743L394.786 309.582V311.196C394.954 311.624 394.954 312.1 394.786 312.528C394.525 312.891 394.157 313.161 393.733 313.3V313.721H394.224H394.645H395.417H396.469H397.873H400.398V313.3C400.398 313.3 400.399 312.949 399.837 312.949C399.513 312.991 399.182 312.94 398.885 312.804C398.587 312.668 398.334 312.451 398.153 312.178C397.714 311.206 397.476 310.157 397.452 309.091V306.566V306.004H397.943H398.714C399.171 305.859 399.661 305.859 400.118 306.004C400.621 306.499 401.047 307.067 401.381 307.688C402.235 309.276 403.271 310.759 404.468 312.107C404.77 312.439 405.139 312.704 405.549 312.885C405.96 313.066 406.404 313.16 406.853 313.16C407.448 313.052 408.018 312.838 408.537 312.528C409.239 312.528 409.519 311.897 409.519 311.617L408.397 311.476ZM401.381 303.97L400.468 304.531H397.802C397.481 304.621 397.141 304.621 396.82 304.531C396.761 304.206 396.761 303.874 396.82 303.549V299.34C396.686 298.93 396.686 298.487 396.82 298.077C396.964 297.923 397.137 297.8 397.33 297.715C397.524 297.631 397.732 297.587 397.943 297.586C398.505 297.517 399.076 297.567 399.618 297.732C400.16 297.896 400.662 298.173 401.092 298.542C401.521 298.912 401.868 299.368 402.111 299.879C402.354 300.391 402.488 300.948 402.503 301.515C402.557 301.928 402.522 302.348 402.401 302.747C402.28 303.146 402.076 303.515 401.802 303.83" fill="white"/>
<path d="M560.643 318.492L562.327 317.72L563.73 317.369H564.362V316.948H563.801C562.398 317.299 561.556 316.948 561.205 316.036V315.195V313.511C561.205 312.435 561.345 311.804 561.626 311.617L562.537 311.056L564.081 310.494L566.747 309.582C566.93 309.608 567.105 309.671 567.262 309.767C567.419 309.864 567.554 309.992 567.659 310.144C568.48 310.852 569.19 311.68 569.764 312.599C569.866 312.918 569.866 313.262 569.764 313.581C569.714 313.772 569.626 313.952 569.506 314.108C569.385 314.265 569.235 314.396 569.063 314.493V314.844H569.553C570.401 314.36 571.294 313.961 572.22 313.651C573.142 313.259 574.108 312.977 575.096 312.809H575.517V312.459C574.985 312.566 574.436 312.566 573.904 312.459C573.384 312.184 572.91 311.829 572.5 311.406L562.748 301.164L562.257 300.673C561.696 300.112 561.415 299.901 561.275 299.901C561.134 299.901 561.275 300.322 561.275 300.954V302.217V304.812C561.302 305.279 561.302 305.748 561.275 306.215L560.854 314.633C560.854 315.966 560.854 316.808 560.854 317.229C560.733 317.681 560.461 318.077 560.082 318.351V318.843H560.503L561.556 318.422M562.397 309.372V305.794V305.233C562.397 304.602 562.397 304.251 562.397 304.251C562.397 304.251 562.959 304.251 563.66 305.233L566.467 308.179V308.6L563.099 309.793C562.608 309.793 562.257 309.793 562.187 309.793V309.162L562.397 309.372Z" fill="white"/>
<path d="M482.696 314.844H482.135C481.913 314.826 481.698 314.76 481.504 314.651C481.311 314.542 481.142 314.392 481.012 314.213C480.605 313.714 480.295 313.142 480.1 312.529L479.118 310.144L478.276 308.039V307.478V307.127C479.064 306.916 479.771 306.477 480.31 305.864C480.825 305.274 481.143 304.539 481.222 303.76C481.307 303.15 481.25 302.529 481.055 301.945C480.861 301.361 480.533 300.829 480.1 300.392C479.132 299.39 477.838 298.768 476.452 298.639H473.645H470.699H468.664H468.243C468.243 298.639 468.243 299.06 468.664 299.13C469.028 299.206 469.373 299.358 469.675 299.575C469.977 299.793 470.23 300.071 470.418 300.392C470.623 301.055 470.623 301.764 470.418 302.427L469.365 311.196V311.687V312.88C469.313 313.336 469.144 313.771 468.874 314.142C468.547 314.452 468.129 314.649 467.682 314.704L468.103 315.125H470.348H471.821C472.486 315.173 473.145 315.29 473.786 315.475H474.277H474.698C474.698 315.475 474.698 315.475 474.277 314.984C473.945 314.944 473.63 314.819 473.359 314.623C473.089 314.427 472.874 314.164 472.733 313.862C472.514 312.797 472.514 311.699 472.733 310.635V308.179V307.618H474.066C474.555 307.675 475.017 307.87 475.399 308.179C475.755 308.774 476.038 309.41 476.241 310.074C476.759 311.806 477.464 313.476 478.346 315.054C478.57 315.451 478.883 315.791 479.26 316.047C479.637 316.302 480.069 316.467 480.521 316.527C481.122 316.654 481.743 316.654 482.345 316.527C482.976 316.527 483.397 316.036 483.397 315.826L482.696 314.844ZM476.241 306.425H473.575C473.084 306.425 472.733 306.425 472.663 306.425C472.593 306.425 472.663 305.934 472.663 305.373L473.154 301.164C473.169 300.733 473.316 300.317 473.575 299.972C473.764 299.892 473.967 299.852 474.171 299.852C474.376 299.852 474.579 299.892 474.768 299.972C475.33 300.037 475.874 300.213 476.368 300.49C476.862 300.767 477.295 301.139 477.644 301.585C477.988 302.028 478.24 302.536 478.384 303.078C478.529 303.621 478.563 304.186 478.486 304.742C478.457 305.169 478.336 305.585 478.13 305.961C477.924 306.336 477.639 306.663 477.294 306.917C477.012 307.135 476.668 307.257 476.311 307.267" fill="white"/>
<path d="M458.21 301.234V300.392C458.217 299.588 458.41 298.796 458.771 298.077C458.98 297.864 459.232 297.697 459.51 297.588C459.788 297.479 460.086 297.431 460.385 297.446H460.806L460.385 297.095H457.508L456.807 297.446C456.396 297.967 456.042 298.532 455.754 299.13L450.633 308.741L450.142 309.232C450.142 309.232 450.142 309.232 449.651 308.46L445.301 297.165C445.251 296.924 445.119 296.708 444.927 296.554C444.735 296.4 444.494 296.318 444.248 296.323H441.582H440.881C440.53 296.323 440.319 296.324 440.319 296.674L440.74 297.025C441.113 297.019 441.481 297.105 441.812 297.277C442.142 297.448 442.425 297.699 442.635 298.007C442.898 298.339 443.085 298.725 443.182 299.137C443.279 299.549 443.284 299.978 443.196 300.392V301.164L442.424 309.232C442.424 310.015 442.231 310.785 441.863 311.476C441.529 312.007 441 312.385 440.389 312.529C439.873 312.449 439.388 312.231 438.986 311.897C438.528 311.507 438.187 310.997 438.004 310.424L432.532 297.586V296.885C432.251 296.183 432.04 295.833 431.9 295.833C431.9 295.833 431.9 295.832 431.409 296.815L430.778 298.007L429.655 300.322C429.655 300.322 429.655 300.953 429.094 301.585L425.656 309.302C425.399 310.125 425.02 310.905 424.533 311.617C424.285 311.991 423.912 312.264 423.481 312.388V312.739V313.09H424.674H426.498H427.901H428.532H429.024L428.532 312.669C427.129 312.669 426.428 311.897 426.428 310.845V310.073L426.849 309.161C427.176 308.179 427.527 307.618 427.901 307.478H428.953H429.445C430.378 307.397 431.317 307.397 432.251 307.478C432.251 307.478 432.742 307.829 432.953 308.32C433.463 309.262 433.819 310.281 434.005 311.336L433.584 312.248C433.347 312.574 432.997 312.799 432.602 312.879C433.558 312.771 434.522 312.771 435.478 312.879C436.483 312.819 437.49 312.819 438.495 312.879H438.916H443.476H444.318H445.09L445.581 312.529C445.581 312.529 445.581 312.529 445.02 312.108C444.525 311.949 444.091 311.642 443.777 311.228C443.463 310.813 443.284 310.312 443.266 309.793V308.109L443.827 301.936V301.515V301.024L447.195 310.003L447.686 311.336C448.107 312.248 448.317 312.739 448.528 312.739C448.738 312.739 448.949 312.739 449.159 312.038V311.617L454.281 302.146C454.281 301.725 454.702 301.515 454.772 301.515V309.723V310.284C454.868 310.699 454.868 311.131 454.772 311.547C454.454 311.789 454.099 311.978 453.72 312.108L453.369 312.459H456.596H458.631H459.403C459.964 312.459 460.245 312.459 460.245 312.459V312.038C459.867 312.03 459.497 311.93 459.167 311.747C458.837 311.563 458.556 311.302 458.35 310.985C457.96 310.205 457.813 309.325 457.929 308.46V300.322L458.21 301.234ZM431.9 305.303H428.322C427.761 305.303 427.48 305.303 427.48 304.812V304.461L428.953 301.234V300.673C428.953 300.112 429.374 299.831 429.515 299.831C429.655 299.831 429.936 300.322 430.286 301.164L431.83 304.952V305.303H431.9Z" fill="white"/>
<path d="M422.428 307.969L421.657 308.881C421.07 309.536 420.354 310.062 419.552 310.424C418.744 310.824 417.857 311.039 416.956 311.056C416.239 311.096 415.522 310.979 414.855 310.712C414.189 310.446 413.588 310.036 413.097 309.512C411.438 307.857 410.505 305.612 410.501 303.269C410.363 301.493 410.806 299.72 411.764 298.218C412.143 297.591 412.678 297.073 413.318 296.716C413.958 296.359 414.68 296.176 415.412 296.183C416.312 296.174 417.203 296.357 418.025 296.72C418.848 297.083 419.584 297.618 420.183 298.288C420.591 298.753 420.966 299.245 421.306 299.761C421.617 300.222 421.875 300.716 422.078 301.234V300.743V300.042V299.48V298.568V296.604C422.078 296.043 421.937 295.762 421.657 295.762V296.113H421.236H420.815L419.973 295.692C418.746 295.045 417.354 294.777 415.974 294.921C415.005 294.905 414.044 295.09 413.15 295.464C412.257 295.839 411.45 296.394 410.782 297.095C409.809 297.967 409.083 299.08 408.677 300.322C408.151 301.589 407.888 302.95 407.905 304.321C407.956 306.558 408.859 308.691 410.431 310.284C411.219 310.992 412.139 311.536 413.139 311.885C414.138 312.234 415.197 312.381 416.254 312.318C417.441 312.307 418.608 312.023 419.667 311.488C420.725 310.953 421.647 310.181 422.358 309.232C422.99 308.46 423.27 307.899 423.2 307.618L422.428 307.969Z" fill="white"/>
<path d="M527.668 317.65C526.936 318.672 525.924 319.46 524.754 319.921C523.584 320.381 522.306 320.494 521.073 320.245C520.8 320.336 520.505 320.336 520.231 320.245C520.11 320.155 520.009 320.039 519.936 319.905C519.864 319.772 519.821 319.625 519.81 319.474C519.618 318.643 519.618 317.779 519.81 316.948V315.826C519.759 315.195 519.759 314.562 519.81 313.932C519.73 313.705 519.73 313.457 519.81 313.23H520.652H521.424H523.108L523.88 313.651C524.244 314.115 524.463 314.676 524.511 315.264C524.511 315.615 524.511 315.826 524.862 315.826V313.511C524.808 312.927 524.808 312.34 524.862 311.757V310.634V310.284H524.441V310.845C524.28 311.225 524.004 311.544 523.651 311.758C523.298 311.972 522.888 312.07 522.476 312.038H520.652C520.231 312.038 519.951 312.037 519.881 311.687C519.753 311.204 519.753 310.696 519.881 310.213V307.548V307.057C519.881 306.355 519.88 305.934 520.582 305.864H521.354H522.827C523.81 305.831 524.782 306.074 525.634 306.566C525.912 306.774 526.131 307.053 526.266 307.373C526.402 307.694 526.45 308.044 526.405 308.389C526.405 308.81 526.405 308.951 526.405 308.951C526.405 308.951 526.826 308.951 526.897 308.039V305.513V305.092H522.056L517.495 304.742H516.232H515.671H515.25C514.667 304.806 514.079 304.806 513.496 304.742H512.303H511.04H510.409C510.964 304.882 511.458 305.203 511.812 305.654C511.897 305.853 511.941 306.068 511.941 306.285C511.941 306.502 511.897 306.717 511.812 306.916C511.394 308.409 510.704 309.812 509.778 311.055L506.129 316.738V316.247L504.445 309.231C504.058 307.765 503.846 306.258 503.814 304.742C503.823 304.613 503.857 304.486 503.915 304.371C503.973 304.255 504.053 304.152 504.15 304.067C504.248 303.982 504.362 303.918 504.485 303.877C504.608 303.836 504.737 303.82 504.866 303.83L505.428 303.479V303.128H504.375H503.112L501.148 302.777H499.745H499.324H498.973L499.394 303.268C499.646 303.351 499.878 303.489 500.072 303.67C500.265 303.852 500.417 304.074 500.516 304.321C500.99 305.317 501.298 306.383 501.429 307.478C501.429 308.881 502.06 310.354 502.481 312.108L504.305 319.123V319.895V320.596V320.947L505.007 320.456L505.989 318.983C505.989 318.983 506.48 318.141 507.392 316.808L510.128 312.528L512.584 308.6C513.031 307.79 513.573 307.037 514.198 306.355C514.507 306.02 514.935 305.819 515.39 305.794C515.952 305.835 516.478 306.085 516.864 306.495C517.048 307.09 517.048 307.725 516.864 308.319L516.162 318.071C516.259 318.651 516.259 319.244 516.162 319.824C516.103 320.202 515.959 320.562 515.741 320.877C515.472 321.137 515.129 321.309 514.759 321.368V321.719H518.197H520.231H521.705H523.389C524.084 321.851 524.798 321.851 525.493 321.719C526.101 321.45 526.597 320.979 526.897 320.386C527.389 319.735 527.681 318.955 527.738 318.141L527.668 317.65Z" fill="white"/>
<path d="M589.409 217.753H588.567C586.392 217.753 584.357 217.753 582.393 217.332H579.376H576.85H575.026L574.465 217.683V218.314V219.226V220.138C574.424 220.417 574.424 220.701 574.465 220.98H574.816L575.307 220.559C575.451 220.03 575.689 219.532 576.009 219.086C576.26 218.852 576.58 218.705 576.921 218.665C578.059 218.473 579.221 218.473 580.358 218.665C581.06 218.665 581.411 219.016 581.341 219.577L580.288 229.047V229.328C580.283 229.599 580.217 229.866 580.096 230.109C579.975 230.352 579.801 230.564 579.587 230.731C579.151 231.081 578.601 231.256 578.043 231.222H576.78L577.201 231.573H580.499H581.831H582.323H583.866H584.779H585.129L584.779 231.152C584.379 231.139 583.987 231.046 583.625 230.877C583.263 230.708 582.94 230.468 582.674 230.17C582.428 229.298 582.428 228.376 582.674 227.504L583.585 219.577C583.58 219.338 583.627 219.101 583.724 218.882C583.821 218.664 583.966 218.47 584.147 218.314C584.935 218.161 585.745 218.161 586.533 218.314C587.274 218.291 588.006 218.486 588.637 218.875C588.884 219.053 589.088 219.284 589.233 219.551C589.379 219.818 589.463 220.115 589.479 220.419L589.83 220.84C589.901 220.54 589.901 220.227 589.83 219.928V218.244C589.83 217.893 589.83 217.753 589.199 217.683" fill="white"/>
<path d="M542.963 274.927C542.837 274.927 542.713 274.953 542.597 275.003C542.482 275.053 542.378 275.126 542.292 275.219C542.206 275.311 542.141 275.42 542.099 275.539C542.058 275.658 542.041 275.784 542.051 275.909C542.051 277.212 542.568 278.461 543.489 279.382C544.41 280.303 545.66 280.82 546.962 280.82C548.265 280.82 549.514 280.303 550.435 279.382C551.356 278.461 551.874 277.212 551.874 275.909C551.874 275.649 551.77 275.399 551.586 275.215C551.402 275.031 551.152 274.927 550.891 274.927H542.963Z" fill="white"/>
<path d="M593.057 241.254V239.57C592.005 220.699 601.547 214.315 601.968 214.105L604.423 212.562L601.687 211.58C595.311 209.915 588.769 208.974 582.182 208.773C573.112 198.952 562.61 190.555 551.032 183.869C549.491 183.047 548.155 181.888 547.123 180.48C546.09 179.071 545.388 177.448 545.068 175.732V174.82C548.331 177.674 551.751 180.344 555.311 182.817C557.354 184.287 559.81 185.073 562.327 185.062C565.044 184.972 567.677 184.094 569.905 182.536C574.582 179.307 578.645 175.269 581.902 170.611L558.118 150.126C557.586 149.746 556.98 149.481 556.34 149.348C555.699 149.215 555.038 149.217 554.399 149.354C553.138 149.452 551.891 149.687 550.681 150.056C551.032 148.654 551.088 147.195 550.847 145.77C550.605 144.345 550.071 142.986 549.278 141.778L530.755 122.697L532.65 61.3833L424.744 62.0849L316.838 61.3833L318.732 122.486L299.929 141.778C299.151 142.993 298.626 144.352 298.385 145.774C298.144 147.196 298.192 148.653 298.527 150.056C297.318 149.681 296.07 149.445 294.808 149.354C294.168 149.226 293.509 149.228 292.87 149.36C292.231 149.493 291.625 149.753 291.09 150.126L267.305 170.611C270.601 175.235 274.658 179.268 279.302 182.536C281.55 184.107 284.209 184.985 286.95 185.062C289.465 185.058 291.916 184.274 293.966 182.817C297.514 180.326 300.933 177.657 304.209 174.82V175.732C303.904 177.454 303.208 179.083 302.174 180.494C301.14 181.905 299.796 183.059 298.246 183.869C286.68 190.574 276.181 198.968 267.095 208.773C260.929 209.027 254.81 209.968 248.853 211.58L246.328 212.562L248.643 214.105C251.265 216.343 253.38 219.116 254.844 222.237C256.308 225.359 257.088 228.757 257.132 232.204C256.011 239.681 256.153 247.293 257.553 254.723C257.553 255.846 258.185 257.74 258.465 258.932C255.99 256.976 254.049 254.426 252.822 251.52C251.596 248.613 251.124 245.444 251.449 242.306C251.449 242.306 244.433 259.283 249.274 271.7C251.8 278.154 254.747 287.134 256.29 292.746L256.921 295.131C257.356 296.768 257.684 298.432 257.904 300.112C257.974 304.145 259.067 308.095 261.079 311.592C263.091 315.088 265.958 318.018 269.41 320.105C278.04 325.016 294.247 330.909 322.451 330.909C335.186 330.849 347.899 329.817 360.477 327.822C381.388 324.785 402.491 323.261 423.621 323.262C431.619 323.262 439.688 323.262 447.686 323.894C460.876 324.595 473.996 325.928 486.765 327.822C499.348 329.78 512.058 330.812 524.792 330.909C552.856 330.909 569.203 324.946 577.833 320.035C581.293 317.974 584.167 315.06 586.182 311.572C588.196 308.085 589.283 304.139 589.338 300.112C589.565 298.41 589.893 296.723 590.321 295.061C592.041 290.16 594.032 285.359 596.285 280.68C597.618 277.663 598.88 274.717 599.933 272.051C605.265 259.564 597.898 242.026 597.898 242.026C598.224 245.163 597.751 248.333 596.524 251.239C595.298 254.146 593.357 256.695 590.882 258.652C591.233 257.459 591.584 255.565 591.794 254.443C592.655 250.007 593.032 245.491 592.917 240.973M543.384 140.585L545.91 143.391C546.678 144.839 547.12 146.436 547.204 148.072C547.289 149.708 547.015 151.343 546.401 152.862C546.289 153.297 546.295 153.753 546.418 154.185C546.542 154.616 546.778 155.007 547.103 155.317C547.412 155.562 547.795 155.695 548.19 155.695C548.585 155.695 548.968 155.562 549.278 155.317C550.797 154.143 552.625 153.436 554.539 153.283C555.711 153.2 556.875 153.522 557.837 154.195L560.643 156.72L576.359 171.102C574.073 173.894 571.319 176.268 568.221 178.117C566.559 179.304 564.579 179.964 562.537 180.011C560.805 179.998 559.117 179.46 557.697 178.468C552.724 174.905 548.033 170.965 543.665 166.682L543.174 168.015C542.741 169.032 542.412 170.089 542.191 171.172C541.767 172.676 541.625 174.246 541.77 175.802C542.112 178.22 543.013 180.525 544.401 182.534C545.79 184.544 547.628 186.202 549.769 187.377C559.612 193.367 568.765 200.425 577.061 208.423H576.78C569.284 208.283 561.809 209.276 554.61 211.369C551.944 212.211 549.628 213.053 547.594 213.894C545.696 211.42 543.633 209.076 541.42 206.879C537.752 203.677 534.791 199.747 532.726 195.339C530.66 190.93 529.535 186.14 529.422 181.274C529.619 175.201 531.436 169.292 534.684 164.157L535.877 162.262L536.438 161.421L537 160.438C532.89 156.659 529.068 152.579 525.563 148.232C524.265 146.58 523.41 144.624 523.078 142.55C522.747 140.475 522.95 138.35 523.669 136.376C524.788 132.812 526.47 129.449 528.651 126.415L543.384 140.585ZM526.546 205.336C528.019 207.932 533.562 215.578 537.42 211.299C537.982 210.667 538.052 210.387 538.052 210.247C539.675 211.933 541.198 213.713 542.612 215.578C540.999 216.28 539.525 217.051 538.122 217.753C536.91 218.354 535.738 219.034 534.614 219.787C532.31 218.09 530.401 215.912 529.02 213.405C527.639 210.898 526.819 208.121 526.616 205.266M531.106 222.313C529.834 223.323 528.638 224.425 527.528 225.61V219.086C528.527 220.283 529.657 221.365 530.896 222.313M524.651 183.589C524.651 184.01 524.651 184.431 524.651 184.851C524.617 185.272 524.617 185.694 524.651 186.114C524.817 187.319 525.052 188.514 525.353 189.692V197.479V197.9L524.932 198.672C524.682 199.12 524.471 199.59 524.301 200.074C524.049 200.587 523.86 201.129 523.739 201.688V202.319V203.372V208.282V209.335V210.106C523.739 210.527 523.739 210.948 523.739 211.369V212L524.16 213.333V213.824L524.862 215.298L524.441 229.328C521.594 232.643 519.058 236.212 516.864 239.991L519.67 148.092C519.908 148.673 520.189 149.236 520.512 149.775C520.87 150.341 521.269 150.88 521.705 151.389L524.301 154.476L526.546 157.001L526.125 171.031C525.873 171.768 525.662 172.517 525.493 173.276V173.767C525.493 174.329 525.493 174.96 525.143 175.521V176.293V177.976V178.678C525.143 179.52 525.143 180.362 525.143 181.133C525.143 181.905 525.143 183.098 525.143 184.01M535.737 208.703C535.737 209.054 534.474 208.703 533.772 208.142C531.653 206.418 529.889 204.297 528.58 201.898V197.198C530.507 200.791 532.863 204.135 535.596 207.16C535.596 207.721 536.087 208.282 535.596 208.563M424.814 64.8208L530.054 64.1192L528.37 119.82C525.574 123.458 523.219 127.414 521.354 131.606L523.178 71.6957L425.656 72.3271L328.134 71.6957L329.958 132.167C327.993 127.733 325.444 123.58 322.381 119.82L320.627 64.3999L424.814 64.8208ZM530.054 255.565C529.3 256.564 528.665 257.647 528.159 258.792C526.432 262.992 525.619 267.512 525.774 272.051C524.417 273.767 522.94 275.385 521.354 276.891C518.72 274.855 516.625 272.206 515.25 269.175C514.617 264.769 515.025 260.276 516.443 256.056C517.147 254.85 517.944 253.701 518.828 252.619C522.798 250.849 526.643 248.81 530.334 246.515C530.003 247.853 529.769 249.213 529.633 250.584C529.537 252.186 529.679 253.794 530.054 255.355M518.127 279.557L517.706 279.908L517.214 280.399L516.653 281.311C516.439 281.729 516.297 282.179 516.232 282.644C514.14 284.476 511.772 285.967 509.216 287.064H508.725L500.937 290.501L494.974 289.659L486.274 288.396C494.623 285.45 501.288 282.504 505.778 280.469H506.27C509.624 279.057 512.43 276.595 514.268 273.454C515.534 275.475 517.121 277.276 518.968 278.785C518.578 278.984 518.223 279.245 517.916 279.557M522.687 291.413H552.013C546.401 292.255 540.648 292.886 535.035 293.237H529.984C522.072 293.074 514.177 292.442 506.34 291.343L509.918 289.729H510.409C512.417 288.811 514.322 287.683 516.092 286.362C516.219 287.247 516.556 288.089 517.074 288.817C518.541 290.383 520.546 291.336 522.687 291.483M473.575 196.637C474.557 197.83 474.838 203.652 465.436 204.424C465.436 205.827 467.261 211.439 448.247 210.036C448.247 211.018 447.546 212.632 451.405 212.772C455.263 212.913 461.367 212.211 455.123 216.56C448.879 220.91 446.143 215.157 444.809 223.576C444.809 226.592 443.897 230.1 443.897 230.1L459.683 258.161C459.683 258.161 455.825 256.898 454 258.862C452.878 260.366 451.379 261.547 449.654 262.286C447.93 263.025 446.041 263.296 444.178 263.071C442.608 264.713 440.635 265.913 438.456 266.553C436.277 267.194 433.968 267.251 431.76 266.719C429.87 268.318 427.491 269.224 425.016 269.288C422.541 269.352 420.119 268.569 418.149 267.07C416.25 267.219 414.343 266.936 412.569 266.244C410.795 265.551 409.201 264.467 407.905 263.071C406.043 263.296 404.153 263.025 402.429 262.286C400.704 261.547 399.205 260.366 398.083 258.862C396.259 256.898 392.4 258.161 392.4 258.161L408.186 230.1C408.186 230.1 407.555 226.592 407.204 223.576C405.941 214.877 403.345 220.629 396.96 216.56C390.576 212.491 396.961 212.913 400.679 212.772C404.398 212.632 403.836 211.018 403.836 210.036C384.893 211.159 386.296 205.827 386.647 204.424C377.246 203.793 377.456 197.83 378.508 196.637C366.441 189.622 370.51 186.886 371.492 186.676C359.776 178.398 364.827 176.503 366.16 176.503C358.372 167.103 362.231 167.454 363.564 167.384C354.514 155.949 359.986 154.896 361.46 154.896C350.936 143.742 357.32 144.303 358.934 144.163C347.358 129.151 353.321 131.045 355.215 130.694C345.182 120.171 350.585 119.469 350.585 119.469H352.269C352.269 119.469 351.918 118.557 350.374 114.98C340.271 94.2848 356.899 106.561 356.899 106.561C356.899 106.561 393.453 129.361 398.434 137.288C400.571 139.82 401.743 143.025 401.743 146.338C401.743 149.65 400.571 152.856 398.434 155.388C394.435 160.438 396.329 155.949 395.066 164.718C393.803 173.487 398.574 173.627 398.574 173.627L411.063 174.329V173.487L418.079 146.268L412.957 141.568H412.045V147.039H410.642V141.568H408.397C408.397 141.568 407.835 140.305 410.151 139.673H410.642V120.943C410.642 120.943 399.837 116.734 413.097 101.721C416.114 109.227 418.921 116.453 412.536 120.943C412.491 121.324 412.346 121.688 412.115 121.995V139.463C413.258 139.338 414.41 139.338 415.553 139.463C415.785 139.079 416.101 138.753 416.478 138.51C416.855 138.267 417.283 138.113 417.728 138.06C418.378 138.088 419.025 137.968 419.622 137.709C419.744 136.531 420.3 135.44 421.182 134.649C422.064 133.858 423.209 133.424 424.393 133.43C428.743 133.43 429.234 137.639 430.848 142.69L440.951 174.75L453.65 174.048C453.65 174.048 458.491 174.048 457.158 165.139C455.825 156.229 457.789 160.859 453.79 155.808C451.653 153.277 450.481 150.071 450.481 146.759C450.481 143.446 451.653 140.24 453.79 137.709C458.771 129.782 495.395 106.982 495.395 106.982C495.395 106.982 511.882 94.7056 501.849 115.401C500.306 118.978 499.955 119.89 499.955 119.89H501.849C501.849 119.89 507.251 120.592 497.219 131.115C499.113 131.466 505.077 129.571 493.5 144.584C495.114 144.584 501.429 144.163 490.975 155.317C492.448 155.317 497.99 156.37 488.87 167.804C490.132 167.804 494.061 167.804 486.274 176.924C487.607 176.924 492.588 178.818 480.872 187.096C481.714 187.096 485.783 190.323 473.856 197.058M340.762 287.554H340.341C337.766 286.374 335.397 284.787 333.326 282.854C333.106 282.022 332.701 281.249 332.143 280.593C331.584 279.937 330.886 279.416 330.098 279.066C332.073 277.445 333.757 275.5 335.079 273.314C336.872 276.86 339.851 279.665 343.499 281.241H343.99C348.761 283.345 355.777 286.572 365.038 289.659L358.022 290.501L349.883 291.483L341.394 287.765M344.27 292.185C335.843 293.236 327.364 293.821 318.873 293.938H312.909C306.875 293.588 301.122 292.886 295.72 292.044H327.292C329.424 291.864 331.418 290.917 332.905 289.378C333.41 288.566 333.745 287.659 333.887 286.713C335.671 288.144 337.627 289.346 339.71 290.29H340.201L344.27 292.115M318.452 246.445C321.398 248.339 325.117 250.374 327.993 251.847L330.379 253.04C330.918 253.564 331.389 254.153 331.782 254.793C333.824 259.741 334.408 265.169 333.466 270.437C332.199 272.864 330.458 275.011 328.344 276.751C326.874 275.387 325.514 273.909 324.275 272.331C324.486 267.796 323.695 263.269 321.96 259.073C321.235 257.443 320.239 255.948 319.013 254.653C319.443 251.859 319.226 249.003 318.381 246.305M394.505 113.015C402.152 115.611 409.519 118.137 408.537 125.994C410.291 128.028 407.344 127.397 407.344 127.397C407.344 127.397 397.031 132.798 394.294 113.015M430.918 117.435C426.779 124.45 422.709 131.045 415.202 128.659C412.816 129.992 414.079 127.186 414.079 127.186C414.079 127.186 410.922 115.962 430.918 117.435ZM325.678 200.846C325.249 199.8 324.732 198.791 324.135 197.83L323.784 188.85C324.475 186.195 324.783 183.455 324.696 180.713C324.679 177.597 324.206 174.501 323.293 171.522L322.872 156.37L327.502 150.968C328.43 149.807 329.208 148.535 329.818 147.18L332.694 242.587C330.617 238.285 328.051 234.236 325.047 230.521L324.626 214.315C325.726 212.266 326.388 210.01 326.569 207.691C326.75 205.373 326.447 203.042 325.678 200.846ZM314.593 220.138C313.54 219.388 312.438 218.709 311.295 218.104L307.086 215.999C308.623 214 310.287 212.102 312.067 210.317C312.067 210.317 312.067 210.738 312.699 211.369C316.277 215.648 322.1 208.002 323.573 205.406C323.313 208.39 322.382 211.277 320.852 213.852C319.321 216.427 317.23 218.623 314.733 220.278M322.31 227.294C321.083 225.881 319.746 224.567 318.311 223.365C319.78 222.201 321.121 220.884 322.31 219.437V227.294ZM314.102 208.633C313.971 208.422 313.902 208.18 313.902 207.932C313.902 207.684 313.971 207.441 314.102 207.23C316.896 204.048 319.255 200.51 321.118 196.707V201.618C319.721 204.118 317.892 206.351 315.715 208.212C314.944 208.844 314.032 209.124 313.681 208.773M299.649 187.728C301.79 186.553 303.627 184.894 305.016 182.885C306.404 180.876 307.305 178.571 307.647 176.153C307.896 174.619 307.896 173.056 307.647 171.522C307.426 170.44 307.097 169.382 306.665 168.366L306.174 167.033C301.82 171.331 297.128 175.272 292.142 178.818C290.741 179.797 289.08 180.335 287.371 180.362C285.327 180.328 283.343 179.667 281.688 178.468C278.582 176.6 275.808 174.23 273.479 171.452L289.265 157.071L292.001 154.546C292.963 153.873 294.128 153.551 295.299 153.634C297.235 153.785 299.086 154.492 300.631 155.668C300.946 155.902 301.327 156.028 301.718 156.028C302.11 156.028 302.492 155.902 302.806 155.668C303.144 155.367 303.389 154.977 303.513 154.542C303.637 154.107 303.635 153.646 303.508 153.213C302.853 151.706 302.551 150.07 302.624 148.429C302.697 146.788 303.143 145.185 303.929 143.742L306.524 140.936L321.749 126.415C323.905 129.453 325.563 132.816 326.66 136.376C327.414 138.345 327.636 140.477 327.303 142.558C326.971 144.639 326.096 146.596 324.766 148.232C321.281 152.595 317.458 156.677 313.33 160.438L313.961 161.421L314.523 162.262L315.646 164.157C318.876 169.304 320.713 175.202 320.977 181.274C320.855 186.146 319.719 190.939 317.641 195.348C315.564 199.756 312.59 203.684 308.91 206.879C306.616 209.061 304.482 211.406 302.525 213.894C300.42 213.053 298.105 212.141 295.509 211.299C288.525 209.211 281.259 208.218 273.971 208.353H272.988C281.296 200.37 290.448 193.313 300.281 187.307M252.782 213.053C259.708 211.634 266.761 210.929 273.83 210.948C280.807 210.777 287.767 211.7 294.457 213.684C311.295 219.296 316.487 224.067 320.346 228.486C326.136 234.77 330.534 242.204 333.255 250.304C332.594 249.231 331.868 248.2 331.08 247.217C322.1 236.343 304.139 234.028 290.598 234.028C280.473 234.062 270.382 235.191 260.5 237.396C260.894 233.018 260.401 228.606 259.051 224.424C257.701 220.241 255.521 216.374 252.642 213.053M316.487 252.057C315.264 251.322 313.903 250.844 312.488 250.654C309.474 249.897 306.69 248.414 304.379 246.336C302.068 244.257 300.3 241.646 299.228 238.728C299.203 238.238 299.203 237.746 299.228 237.255C303.202 237.52 307.146 238.13 311.015 239.079C311.723 239.754 312.38 240.481 312.979 241.254L314.523 243.92C315.853 246.418 316.483 249.23 316.347 252.057M253.344 271.419V270.788L252.923 269.876L252.502 268.824V268.193C252.502 267.772 252.501 267.351 252.151 266.93V266.369C252.151 265.877 252.151 265.457 252.151 264.895V264.404C252.151 263.843 252.151 263.282 252.151 262.721C252.151 262.089 252.151 261.458 252.151 260.826C252.116 260.172 252.116 259.516 252.151 258.862C252.116 258.372 252.116 257.879 252.151 257.389C253.354 259.499 254.988 261.333 256.946 262.771C258.904 264.21 261.143 265.22 263.516 265.737L265.481 266.158H265.972H267.656H268.428C268.988 266.201 269.551 266.201 270.111 266.158H274.812L267.797 262.65C266.688 262.146 265.741 261.345 265.06 260.336C263.708 258.178 262.735 255.806 262.183 253.32C261.355 249.093 260.978 244.789 261.061 240.482H261.762L267.024 239.36H268.919C270.673 239.36 272.427 238.728 274.392 238.518L278.531 238.097L282.6 237.676C285.547 237.676 288.494 237.676 291.37 237.676H295.229C295.301 238.39 295.442 239.094 295.65 239.781V240.412C296.9 244.153 299.083 247.513 301.992 250.177C304.901 252.84 308.441 254.719 312.278 255.635C317.961 256.477 320.276 263.212 320.627 269.666V270.648L317.54 273.454H320.697V274.156C321.258 275.138 321.89 275.699 322.942 277.312L316.417 280.609H328.274C329.607 280.609 330.659 282.574 330.659 284.117C330.659 285.66 329.607 287.414 328.274 287.414H290.528C288.118 287.166 285.756 286.576 283.512 285.66L282.881 285.169L278.32 280.82H267.516C265.644 280.482 263.827 279.892 262.114 279.066L261.061 278.435H260.71L259.728 277.874C259.301 277.609 258.902 277.304 258.535 276.962L257.693 276.12V275.769L256.852 274.927V274.576C256.462 274.139 256.11 273.67 255.799 273.173C255.454 272.684 255.149 272.168 254.887 271.63M595.373 280.118C593.059 284.933 591.021 289.875 589.269 294.921C588.809 296.695 588.48 298.5 588.286 300.322C588.225 303.917 587.261 307.439 585.483 310.565C583.706 313.691 581.171 316.32 578.113 318.211C569.764 322.982 554.048 328.664 526.476 328.664C513.883 328.591 501.313 327.583 488.87 325.647C475.96 323.753 462.7 322.42 449.44 321.719C441.442 321.298 433.303 321.087 425.305 321.087C403.985 321.065 382.693 322.613 361.6 325.717C349.153 327.621 336.585 328.629 323.994 328.734C296.421 328.734 280.706 323.052 272.357 318.281C269.261 316.413 266.699 313.78 264.917 310.634C263.135 307.489 262.194 303.937 262.183 300.322C261.954 298.5 261.603 296.695 261.131 294.921L260.5 292.605C259.517 288.957 258.044 283.836 256.5 278.575C268.498 289.799 292.703 295.131 313.751 296.394C315.716 296.394 317.75 296.394 319.925 296.394C333.146 295.997 346.334 294.85 359.425 292.956C372.896 291.273 388.19 289.379 405.169 288.326C413.869 287.625 422.639 287.344 431.269 287.344C453.03 287.555 474.746 289.384 496.237 292.816C507.844 294.713 519.562 295.862 531.317 296.253H536.508C557.556 295.061 582.603 289.869 595.442 279.206L595.373 280.118ZM599.862 257.319V258.792C599.897 259.446 599.897 260.102 599.862 260.756C599.862 261.388 599.862 262.019 599.862 262.65V264.334V264.685C599.902 265.175 599.902 265.668 599.862 266.158V266.719C599.778 267.149 599.661 267.571 599.512 267.982V268.613V269.666L599.091 270.578V271.209L598.179 272.752L597.127 274.156L596.775 274.506L595.934 275.348V275.699L595.021 276.541L593.829 277.452L592.846 278.014L591.865 278.505C590.129 279.337 588.288 279.927 586.392 280.259H575.587L571.027 284.608L570.396 285.099C568.155 286.023 565.791 286.614 563.38 286.853H526.546C525.213 286.853 524.16 285.099 524.16 283.556C524.16 282.013 525.213 280.048 526.546 280.048H538.333L531.808 276.751C532.93 275.138 533.561 274.576 534.123 273.594V272.893H537.28L534.193 270.087V269.105C534.544 262.51 536.859 255.776 542.612 255.074C546.446 254.151 549.983 252.271 552.891 249.608C555.799 246.945 557.984 243.588 559.24 239.851V239.22C559.277 238.519 559.277 237.816 559.24 237.115H563.239C566.186 237.115 569.133 237.115 572.079 237.115L576.85 237.536L580.218 237.887L586.672 238.799H587.374C589.549 239.149 591.584 239.57 593.408 239.991C593.537 244.363 593.208 248.736 592.426 253.04C591.852 255.529 590.856 257.902 589.479 260.055C588.798 261.064 587.851 261.865 586.743 262.37L579.727 265.877H584.357H586.182H586.813H588.567H588.988L590.952 265.456C593.336 264.94 595.584 263.931 597.554 262.493C599.524 261.055 601.171 259.221 602.389 257.108M536.227 253.531C535.961 250.432 536.568 247.321 537.981 244.551L539.525 241.675C540.546 240.892 541.625 240.188 542.753 239.57C546.66 238.712 550.622 238.126 554.61 237.816C554.61 238.448 554.61 239.009 554.61 239.36C553.516 242.276 551.732 244.884 549.41 246.961C547.089 249.038 544.299 250.522 541.279 251.286C539.38 251.56 537.588 252.335 536.087 253.531M594.25 238.027C584.037 235.812 573.619 234.684 563.169 234.66C549.137 234.66 530.755 236.975 521.494 247.848C520.684 248.831 519.934 249.861 519.249 250.935C522.038 242.773 526.589 235.324 532.579 229.118C536.579 224.698 541.911 219.928 559.17 214.315C566.011 212.363 573.105 211.441 580.218 211.58C587.566 211.555 594.899 212.26 602.108 213.684C599.154 216.967 596.908 220.822 595.508 225.01C594.108 229.197 593.584 233.628 593.969 238.027" fill="white"/>
<path d="M566.888 222.313C565.865 222.022 564.877 221.622 563.941 221.12C563.498 220.771 563.199 220.272 563.099 219.718C563.109 219.413 563.191 219.114 563.337 218.846C563.483 218.579 563.69 218.348 563.941 218.174C564.473 217.73 565.142 217.482 565.835 217.473C566.961 217.484 568.059 217.826 568.992 218.455C569.884 219.065 570.55 219.953 570.886 220.98L571.237 221.401V220.91V219.928V218.946V217.683V217.332H570.746H569.904H569.062C568.297 217.191 567.512 217.191 566.747 217.332C565.524 217.301 564.339 217.755 563.449 218.595C563.036 218.964 562.709 219.419 562.491 219.928C562.273 220.437 562.169 220.988 562.187 221.542C562.191 221.99 562.286 222.432 562.467 222.842C562.648 223.252 562.911 223.622 563.239 223.927C564.348 224.786 565.61 225.429 566.957 225.821L568.922 226.452C569.562 226.717 570.173 227.046 570.746 227.434C571.058 227.842 571.252 228.327 571.307 228.837C571.307 229.209 571.219 229.575 571.048 229.904C570.877 230.234 570.629 230.518 570.325 230.732C569.724 231.316 568.919 231.642 568.08 231.643C566.921 231.625 565.804 231.204 564.923 230.451C563.94 229.659 563.188 228.617 562.748 227.434L562.397 227.855C562.478 228.528 562.644 229.188 562.888 229.819C563.097 230.264 563.239 230.737 563.309 231.222V231.714H563.941H565.274C566.17 231.944 567.086 232.085 568.01 232.134C569.367 232.113 570.667 231.588 571.658 230.661C572.137 230.259 572.518 229.753 572.773 229.182C573.029 228.611 573.151 227.989 573.131 227.364C573.066 226.306 572.617 225.308 571.869 224.558C570.676 223.664 569.316 223.02 567.869 222.664" fill="white"/>
<path d="M560.293 227.855C559.521 229.679 557.486 230.801 554.119 231.152C553.825 231.266 553.5 231.266 553.207 231.152L552.645 230.521C552.308 229.893 552.117 229.198 552.084 228.486V227.504C552.039 226.944 552.039 226.381 552.084 225.82V225.189C552.084 225.189 552.084 225.189 552.786 225.189H553.698H555.381H556.294C556.722 225.534 557.039 225.998 557.206 226.522L557.627 226.873V226.311C557.656 225.844 557.656 225.376 557.627 224.908C557.471 224.38 557.354 223.84 557.275 223.295V222.313H556.925V222.874C556.818 223.257 556.588 223.594 556.272 223.835C555.955 224.076 555.568 224.206 555.171 224.207H554.119H553.277C553.151 224.288 553.005 224.332 552.856 224.332C552.706 224.332 552.56 224.288 552.435 224.207C552.214 223.843 552.07 223.437 552.013 223.014V220.699V220.278C552.013 219.647 552.014 219.296 552.505 219.086H553.277H554.82C555.812 218.853 556.845 218.853 557.837 219.086C558.134 219.206 558.392 219.408 558.578 219.669C558.765 219.93 558.873 220.239 558.889 220.559V220.98C558.889 220.98 559.31 220.629 559.24 220.068C559.17 219.507 559.24 219.366 559.24 218.805C559.24 218.244 559.24 218.104 559.24 217.893H558.819C557.174 218.211 555.51 218.422 553.838 218.524L549.137 218.945H547.874H546.892C547.575 218.863 548.267 219.011 548.857 219.366C549.207 219.366 549.418 220.068 549.558 220.91L550.751 229.258C550.817 229.77 550.817 230.289 550.751 230.801C550.819 231.125 550.819 231.459 550.751 231.783C550.537 232.056 550.242 232.252 549.909 232.344V232.695H550.611L553.417 232.274C554.117 232.216 554.821 232.216 555.521 232.274H556.995C557.577 232.348 558.167 232.348 558.749 232.274C559.504 232.232 560.243 232.041 560.924 231.713C561.453 231.426 561.854 230.95 562.047 230.38C562.395 229.737 562.542 229.004 562.468 228.276L560.293 227.855Z" fill="white"/>
<path d="M550.611 312.95L552.575 313.441C553.269 313.55 553.923 313.84 554.469 314.282C554.907 314.665 555.204 315.184 555.311 315.756C555.434 316.571 555.232 317.402 554.75 318.071C554.53 318.414 554.242 318.709 553.905 318.939C553.567 319.168 553.186 319.326 552.786 319.404C552.208 319.492 551.617 319.463 551.051 319.319C550.484 319.174 549.953 318.916 549.488 318.562C548.336 317.793 547.415 316.726 546.822 315.475C546.822 315.475 546.471 315.475 546.822 316.177C547.06 316.849 547.341 317.505 547.664 318.141C547.935 318.661 548.17 319.201 548.365 319.754V320.316C548.365 320.316 548.365 320.316 548.997 320.316H550.33C551.214 320.442 552.112 320.442 552.996 320.316C553.666 320.201 554.302 319.94 554.86 319.553C555.418 319.165 555.883 318.659 556.223 318.071C556.629 317.51 556.913 316.871 557.058 316.195C557.203 315.519 557.205 314.819 557.065 314.142C556.84 312.947 556.223 311.861 555.311 311.055C554.08 310.195 552.661 309.641 551.172 309.442C550.114 309.28 549.078 308.997 548.085 308.6C547.571 308.231 547.219 307.678 547.103 307.057C547.031 306.736 547.038 306.402 547.124 306.084C547.209 305.767 547.371 305.474 547.594 305.233C547.782 304.94 548.029 304.689 548.318 304.495C548.608 304.302 548.935 304.171 549.278 304.11C550.381 303.937 551.509 304.188 552.435 304.812C553.497 305.366 554.321 306.289 554.75 307.408L555.171 307.828C555.171 307.828 555.171 307.828 555.171 307.267V306.215L554.82 305.022V304.601V303.619V303.269L554.399 303.619H553.557H552.715C551.958 303.41 551.158 303.41 550.4 303.619C549.794 303.708 549.215 303.931 548.706 304.27C548.196 304.61 547.769 305.059 547.453 305.583C546.817 306.635 546.592 307.884 546.822 309.091C546.959 310.114 547.488 311.044 548.295 311.687C549.472 312.441 550.781 312.965 552.154 313.23" fill="white"/>
<path d="M267.376 225.961L269.27 226.452C269.929 226.604 270.55 226.89 271.094 227.294C271.464 227.643 271.689 228.119 271.726 228.626C271.798 228.981 271.778 229.347 271.667 229.691C271.556 230.035 271.359 230.345 271.094 230.591C270.61 231.206 269.905 231.608 269.13 231.713C268.032 231.828 266.93 231.528 266.043 230.871C264.992 230.138 264.146 229.148 263.587 227.995C263.587 227.995 263.587 227.995 263.587 228.556C263.791 229.163 264.049 229.75 264.358 230.31C264.358 230.942 264.78 231.433 264.92 231.783V232.275C264.92 232.275 264.92 232.275 265.551 232.275H266.814C267.676 232.39 268.549 232.39 269.41 232.275C270.666 232.133 271.814 231.5 272.603 230.514C273.392 229.528 273.758 228.269 273.62 227.013C273.438 225.93 272.894 224.94 272.076 224.207C270.902 223.399 269.558 222.871 268.147 222.663C267.152 222.491 266.184 222.185 265.271 221.752C265.026 221.614 264.817 221.423 264.659 221.192C264.501 220.96 264.398 220.696 264.358 220.419C264.334 220.126 264.371 219.83 264.468 219.552C264.565 219.274 264.719 219.02 264.92 218.805C265.349 218.303 265.949 217.978 266.604 217.893C267.67 217.827 268.731 218.087 269.646 218.638C270.561 219.19 271.286 220.006 271.726 220.98V221.401V220.84V219.857V218.805V218.384V217.543H271.374H271.024H270.252H269.41C268.692 217.402 267.953 217.402 267.235 217.543C266.659 217.591 266.098 217.759 265.591 218.037C265.083 218.315 264.64 218.696 264.289 219.156C263.956 219.59 263.715 220.088 263.583 220.619C263.45 221.15 263.427 221.703 263.517 222.243C263.548 222.697 263.677 223.139 263.895 223.538C264.113 223.938 264.415 224.286 264.78 224.558C265.883 225.306 267.122 225.831 268.428 226.101" fill="white"/>
<path d="M302.245 280.82C302.89 280.82 303.529 280.693 304.124 280.446C304.72 280.199 305.262 279.838 305.718 279.382C306.174 278.926 306.536 278.384 306.782 277.789C307.029 277.193 307.156 276.554 307.156 275.909C307.166 275.784 307.149 275.658 307.108 275.539C307.066 275.42 307.001 275.311 306.915 275.219C306.829 275.126 306.726 275.053 306.61 275.003C306.495 274.953 306.37 274.927 306.244 274.927H298.316C298.19 274.927 298.065 274.953 297.95 275.003C297.834 275.053 297.731 275.126 297.645 275.219C297.559 275.311 297.494 275.42 297.452 275.539C297.411 275.658 297.394 275.784 297.404 275.909C297.404 277.2 297.912 278.438 298.817 279.357C299.723 280.276 300.955 280.802 302.245 280.82Z" fill="white"/>
<path d="M290.037 231.573C291.154 231.634 292.271 231.467 293.32 231.081C294.37 230.695 295.33 230.098 296.141 229.328C296.772 228.697 297.123 228.205 297.123 227.995H296.772L296 228.697C295.371 229.228 294.661 229.654 293.896 229.959C293.079 230.224 292.228 230.366 291.37 230.38C289.986 230.295 288.684 229.694 287.721 228.697C287.004 227.944 286.452 227.05 286.102 226.071C285.751 225.092 285.61 224.051 285.687 223.014C285.712 221.456 286.255 219.95 287.23 218.735C287.669 218.203 288.23 217.785 288.865 217.516C289.5 217.247 290.191 217.136 290.879 217.191C291.729 217.214 292.564 217.42 293.327 217.795C294.09 218.17 294.763 218.706 295.299 219.366C295.716 219.754 296.071 220.203 296.351 220.699C296.621 221.104 296.811 221.556 296.912 222.032H297.333V218.244C297.333 217.823 297.333 217.542 297.333 217.542H296.912L296.141 217.121C294.997 216.441 293.683 216.101 292.352 216.139C290.827 216.027 289.302 216.375 287.977 217.138C286.651 217.901 285.585 219.044 284.915 220.419C284.344 221.502 284.032 222.702 284.003 223.926C283.931 224.898 284.062 225.873 284.389 226.791C284.715 227.709 285.229 228.549 285.897 229.258C287.355 230.697 289.321 231.503 291.37 231.503" fill="white"/>
<path d="M279.443 314.563C279.266 314.04 279.266 313.473 279.443 312.95V311.757L283.021 301.936C283.021 301.234 283.582 300.813 283.793 300.743C284.003 300.673 284.424 300.743 285.056 300.743V300.252L283.231 299.761H282.389L280.776 299.27C280.292 299.097 279.823 298.886 279.373 298.639H278.881H278.461V298.989C278.653 299.155 278.866 299.296 279.092 299.41C279.356 299.508 279.597 299.658 279.802 299.851C280.007 300.044 280.171 300.275 280.285 300.533C280.403 301.064 280.403 301.615 280.285 302.146L276.847 311.336V312.388C276.716 312.895 276.449 313.355 276.075 313.721C275.681 313.98 275.213 314.103 274.742 314.072H274.321V314.493H275.163L276.987 315.054C277.787 315.34 278.561 315.692 279.302 316.107C279.302 316.107 280.074 316.107 280.215 316.527C280.355 316.948 280.986 316.527 281.056 316.527C281.127 316.527 281.056 316.106 280.635 316.036C280.143 315.846 279.724 315.501 279.443 315.054" fill="white"/>
<path d="M274.111 217.543C274.643 217.537 275.162 217.71 275.584 218.034C275.744 218.228 275.863 218.452 275.936 218.693C276.008 218.934 276.032 219.187 276.005 219.437L276.567 227.995V229.328C276.693 229.763 276.693 230.226 276.567 230.661C276.318 231.035 275.945 231.308 275.514 231.433H276.286H278.11H280.635C280.912 231.504 281.201 231.504 281.477 231.433C282.039 231.433 282.32 231.433 282.32 231.433C282.32 231.433 282.319 231.082 281.688 231.433C281.165 231.453 280.648 231.306 280.215 231.012C279.812 230.729 279.536 230.302 279.443 229.819V228.767L278.812 219.507C278.683 219.12 278.683 218.701 278.812 218.314C278.812 218.314 279.303 217.963 279.864 217.823H279.443H277.619H276.777H275.163H273.128H273.83" fill="white"/>
<path d="M349.743 319.544C349.246 319.189 348.857 318.703 348.62 318.141L341.604 305.864V305.233C341.254 304.531 341.043 304.25 340.833 304.25C340.642 304.554 340.5 304.885 340.412 305.233L339.991 306.355L339.008 308.81C338.916 309.268 338.775 309.715 338.588 310.143L335.992 318.141C335.787 319.003 335.456 319.831 335.009 320.596C334.797 320.962 334.479 321.255 334.097 321.438V321.859H335.22C335.851 321.816 336.484 321.816 337.114 321.859C337.556 321.788 338.006 321.788 338.447 321.859H339.149L339.5 321.508C339.5 321.508 339.5 321.157 339.008 321.157C337.605 321.157 336.833 320.596 336.763 319.544V318.702V317.79C336.763 316.808 337.395 316.176 337.675 316.036H338.658H340.342C341.275 315.954 342.214 315.954 343.148 316.036C343.148 316.036 343.639 316.036 343.92 316.738C344.484 317.661 344.932 318.651 345.253 319.684V320.666C345.015 320.975 344.7 321.217 344.341 321.368L347.147 320.947C348.15 320.847 349.161 320.847 350.164 320.947H350.655V320.596C350.135 320.54 349.632 320.373 349.182 320.105M342.166 314.633L338.588 314.984C338.026 314.984 337.816 314.984 337.746 314.633V313.511L338.868 310.143V309.582C338.868 309.021 338.868 308.67 339.289 308.67C339.71 308.67 339.781 309.091 340.201 309.933L342.166 313.581V314.633Z" fill="white"/>
<path d="M326.38 321.087C325.952 320.712 325.637 320.227 325.468 319.684L320.276 306.636V306.004C319.948 305.303 319.738 304.952 319.644 304.952C319.644 304.952 319.645 305.303 319.013 305.864L318.452 306.987L317.329 309.302C317.089 309.707 316.878 310.129 316.698 310.564L313.19 318.211C312.628 319.404 312.208 320.175 311.997 320.526C311.729 320.897 311.326 321.149 310.874 321.228V321.648H313.892H315.365H315.926L316.347 321.298L315.926 320.947C314.523 320.947 313.892 320.105 313.892 319.053V318.281L314.312 317.299C314.518 316.68 314.881 316.124 315.365 315.685H316.487H318.101C319.035 315.608 319.974 315.608 320.908 315.685C321.225 315.884 321.471 316.179 321.609 316.527C322.096 317.493 322.405 318.539 322.521 319.614V320.526C322.253 320.802 321.913 320.997 321.539 321.087V321.438C322.493 321.304 323.461 321.304 324.416 321.438C325.418 321.334 326.429 321.334 327.432 321.438H327.853V321.017C327.321 320.943 326.828 320.696 326.45 320.316M320.206 314.212H316.627C316.066 314.212 315.786 314.212 315.786 313.721L317.329 310.494V310.003C317.329 309.372 317.75 309.161 317.82 309.161C317.891 309.161 318.241 309.582 318.662 310.494L320.065 314.282C320.065 314.282 320.066 314.282 319.574 314.282" fill="white"/>
<path d="M390.506 313.511C390.025 313.148 389.62 312.696 389.313 312.178L382.297 300.182V299.621C381.876 298.989 381.595 298.639 381.455 298.639C381.315 298.639 381.455 298.989 381.104 299.691L380.683 300.884L379.841 303.409C379.813 303.853 379.813 304.298 379.841 304.742L377.526 312.809C377.347 313.682 377.064 314.53 376.684 315.335C376.436 315.69 376.127 315.998 375.772 316.247V316.668H376.895L378.719 316.247H380.824V315.826H380.333C378.929 315.826 378.158 315.335 378.017 314.283V313.511V312.529C378.017 311.547 378.508 310.915 378.859 310.775H379.841H381.525H384.262C384.448 310.837 384.62 310.938 384.765 311.071C384.91 311.204 385.025 311.366 385.103 311.547C385.722 312.399 386.196 313.347 386.507 314.353V315.335C386.29 315.681 385.971 315.95 385.595 316.107H386.016C386.918 315.79 387.866 315.624 388.822 315.615C389.822 315.468 390.839 315.468 391.839 315.615H392.26V315.265C391.713 315.229 391.183 315.06 390.716 314.774M383.7 309.723L380.052 310.144C379.491 310.144 379.21 310.144 379.21 310.144V309.512L380.262 306.075V305.513C380.262 304.882 380.262 304.602 380.683 304.602C381.104 304.602 381.175 304.602 381.595 305.794L383.7 309.302V309.653V309.723Z" fill="white"/>
<path d="M364.266 303.339C363.226 302.704 362.069 302.284 360.864 302.103C359.659 301.922 358.431 301.985 357.25 302.287L354.444 302.848L352.409 303.409H351.286H349.462C349.257 303.34 349.036 303.34 348.831 303.409V303.76H349.252C349.883 303.51 350.585 303.51 351.216 303.76C351.687 304.204 351.985 304.801 352.058 305.444L353.812 316.037C353.999 316.582 353.999 317.175 353.812 317.72C353.812 318.071 353.391 318.281 352.97 318.492V318.843L353.321 319.193H354.023C354.946 318.949 355.883 318.762 356.829 318.632H358.653H360.688C362.673 318.332 364.488 317.338 365.81 315.826C366.738 314.793 367.411 313.557 367.777 312.217C368.142 310.877 368.189 309.471 367.914 308.11C367.787 307.044 367.418 306.023 366.834 305.123C366.25 304.223 365.468 303.468 364.547 302.918M364.547 315.125C364.138 315.868 363.553 316.499 362.844 316.964C362.134 317.428 361.322 317.712 360.477 317.79C358.793 317.79 357.741 317.79 357.32 316.808V315.756L355.566 305.163C355.566 304.251 355.566 303.76 355.566 303.549C356.056 303.184 356.64 302.965 357.25 302.918C358.194 302.76 359.16 302.797 360.089 303.026C361.018 303.255 361.89 303.672 362.652 304.251C364.235 305.604 365.24 307.512 365.459 309.583C365.918 311.461 365.642 313.444 364.687 315.125" fill="white"/>
<path d="M310.524 317.51C310.524 317.51 310.524 317.51 309.822 318.211C309.008 318.951 308.031 319.488 306.971 319.781C305.911 320.073 304.796 320.112 303.718 319.895C303.322 319.943 302.921 319.943 302.525 319.895C302.525 319.895 302.104 318.773 302.525 317.229L303.929 306.636C303.929 305.584 304.56 305.093 305.332 305.093H305.893C305.893 305.093 305.893 304.742 305.191 304.672H303.297H301.403H300.35H299.86H299.368H298.947L299.368 305.163H300.07C301.122 305.163 301.543 306.285 301.403 307.548L300.14 317.72C300.112 318.41 299.919 319.084 299.579 319.685C299.473 319.913 299.305 320.106 299.094 320.242C298.883 320.379 298.637 320.453 298.386 320.456H298.035L298.386 320.807H299.017C300.045 320.734 301.077 320.734 302.104 320.807H303.578H304.911H306.314H307.437C307.888 320.902 308.357 320.881 308.799 320.746C309.24 320.611 309.641 320.367 309.962 320.035C310.702 319.357 311.175 318.436 311.295 317.44V316.879" fill="white"/>
<path d="M295.579 316.317C294.711 317.002 293.683 317.458 292.592 317.642C291.501 317.826 290.381 317.732 289.336 317.369L288.213 316.948C288.213 316.948 288.213 315.756 288.213 314.283L290.668 303.9C290.668 302.848 291.51 302.427 292.282 302.567H292.913C292.913 302.567 292.914 302.146 292.282 302.006C291.651 301.866 290.949 302.006 290.318 302.006L288.493 301.655H287.441H286.95H286.529H286.038L286.459 302.076H287.09C287.578 302.279 287.967 302.663 288.176 303.147C288.386 303.631 288.399 304.178 288.213 304.672L285.757 314.634C285.665 315.342 285.4 316.016 284.985 316.598C284.844 316.777 284.663 316.922 284.456 317.019C284.249 317.116 284.021 317.164 283.793 317.159H283.372V317.58H284.074L287.02 318.141L288.493 318.562L289.757 318.913H291.159L292.282 319.264C292.719 319.394 293.179 319.424 293.629 319.351C294.078 319.278 294.505 319.104 294.878 318.843C295.689 318.211 296.259 317.319 296.492 316.317C296.492 316.317 296.492 315.826 296.492 315.756C296.492 315.686 296.071 315.756 295.65 316.317" fill="white"/>
</g>
<defs>
<clipPath id="clip0_1_3">
<rect width="848.372" height="640" fill="white" transform="translate(0.62793)"/>
</clipPath>
</defs>
</svg>
