<svg width="24" height="31" viewBox="0 0 24 31" fill="none" xmlns="http://www.w3.org/2000/svg">
<path d="M23.8476 13.0611C23.7866 12.9896 23.7107 12.9323 23.6251 12.8931C23.5395 12.8538 23.4464 12.8338 23.3522 12.8342H22.9965C23.1188 12.4543 23.1813 12.0579 23.1818 11.6589C23.1777 11.1083 23.0722 10.5632 22.8707 10.0505C22.578 9.30748 22.1356 8.63212 21.5707 8.06602C21.3058 7.7973 21.014 7.55626 20.6998 7.34665C20.404 7.14779 20.084 6.98698 19.7477 6.86806C19.3008 6.7151 18.9392 6.58584 18.6627 6.45854C18.4904 6.38303 18.3278 6.28729 18.1782 6.17336C18.0923 6.10609 18.0157 6.02778 17.9504 5.94048C17.8343 5.77569 17.7487 5.59155 17.6977 5.39676C17.6098 5.07391 17.5527 4.74351 17.5273 4.40997C17.4173 3.24654 17.0537 2.30416 16.4978 1.62722C16.2338 1.30026 15.9045 1.03144 15.5308 0.837787C15.1721 0.653222 14.7744 0.556476 14.3706 0.555567C13.8446 0.561242 13.3315 0.718564 12.8933 1.00851C12.5891 1.21166 12.3048 1.44294 12.0442 1.69926C11.6677 2.0624 11.3358 2.41961 11.0078 2.67815C10.8582 2.79955 10.6953 2.90381 10.5223 2.98899C10.3631 3.06552 10.1924 3.11552 10.017 3.13701C9.44978 3.19693 8.88928 3.30858 8.34255 3.47054C7.96877 3.58264 7.60934 3.73761 7.27149 3.93236C7.02206 4.07887 6.79177 4.25553 6.58586 4.45832C6.29952 4.7465 6.06672 5.08293 5.89824 5.45202L3.84728 1.14764C3.67998 0.795405 3.41312 0.499443 3.07941 0.296041C2.75991 0.101713 2.39264 -0.000747905 2.01827 4.10995e-06C1.58176 -0.00049919 1.15701 0.140859 0.808496 0.402616C0.553025 0.592818 0.346556 0.840727 0.206087 1.12593C0.0704795 1.40251 8.9423e-07 1.70625 4.91236e-06 2.01404C-0.000819339 2.38536 0.102098 2.74957 0.297245 3.06596L3.63723 8.48344C3.50248 8.59988 3.37566 8.71829 3.25875 8.83868C2.80297 9.29905 2.45012 9.85023 2.22336 10.456C2.04418 10.9434 1.95359 11.4586 1.95585 11.9777C1.9559 12.2666 1.98209 12.5549 2.03412 12.8391H1.0126C0.918362 12.8384 0.825126 12.8584 0.739508 12.8976C0.65389 12.9368 0.57799 12.9944 0.5172 13.0661C0.456626 13.1369 0.4123 13.2201 0.387315 13.3097C0.36233 13.3993 0.357287 13.4933 0.372541 13.5851L2.18967 24.5049C2.49036 26.3199 3.42947 27.9691 4.83908 29.1577C6.24676 30.348 8.03362 31.0011 9.88027 31H14.4776C16.3242 31.0011 18.1111 30.348 19.5188 29.1577C20.9284 27.9691 21.8675 26.3199 22.1682 24.5049L23.9913 13.5812C24.0066 13.4893 24.0017 13.3952 23.9769 13.3054C23.9521 13.2156 23.908 13.1323 23.8476 13.0611ZM1.39604 2.39001C1.32533 2.27545 1.28794 2.14358 1.28805 2.00911C1.28812 1.89692 1.31387 1.78623 1.36334 1.68544C1.41379 1.58206 1.48857 1.49235 1.58132 1.42394C1.70677 1.32852 1.86042 1.27716 2.01827 1.2779C2.15535 1.27741 2.28985 1.315 2.40666 1.38644C2.52738 1.45999 2.62355 1.56745 2.68309 1.69531L5.24629 7.07331C5.22747 7.10883 5.20865 7.14535 5.18883 7.1789C5.11115 7.30702 5.01943 7.42616 4.91537 7.53414C4.84493 7.60563 4.76908 7.67161 4.68847 7.7315L1.39604 2.39001ZM3.32216 11.2711C3.41732 10.8558 3.59743 10.4644 3.85125 10.1215C4.21189 9.64792 4.66313 9.25016 5.17892 8.95117C5.49202 8.76325 5.77161 8.52481 6.00624 8.24562C6.1814 8.03367 6.33073 7.8018 6.45111 7.55486C6.61837 7.18778 6.76458 6.81154 6.88904 6.42795C6.96888 6.19424 7.07142 5.96884 7.1952 5.75496C7.28523 5.60472 7.39484 5.46701 7.52118 5.34544C7.77949 5.10858 8.08264 4.92542 8.4129 4.80666C8.97784 4.60233 9.56639 4.46971 10.1646 4.41194C10.5794 4.3614 10.9786 4.22348 11.3358 4.00735C11.578 3.86185 11.8062 3.69437 12.0174 3.50705C12.3246 3.23865 12.5931 2.95741 12.8497 2.70677C13.0753 2.47555 13.3232 2.26699 13.5898 2.0841C13.8195 1.92815 14.0897 1.84209 14.3676 1.83642C14.5682 1.83754 14.7656 1.88661 14.9433 1.9795C15.2901 2.17262 15.572 2.46336 15.7537 2.81532C16.0354 3.34719 16.2031 3.93154 16.2462 4.53134C16.2812 5.01443 16.3747 5.49154 16.5246 5.95232C16.6243 6.24407 16.7716 6.51745 16.9605 6.76149C17.0972 6.93404 17.2558 7.08827 17.4322 7.22034C17.6986 7.41375 17.9878 7.57414 18.2932 7.69795C18.6063 7.83117 18.9471 7.95057 19.3286 8.08181C19.6484 8.19801 19.9475 8.3646 20.2143 8.57521C20.6969 8.95216 21.1008 9.41946 21.4033 9.95079C21.5561 10.2167 21.6771 10.4996 21.7639 10.7935C21.8481 11.0737 21.8918 11.3645 21.8937 11.6569C21.8949 12.0656 21.7977 12.4686 21.6104 12.8322H14.0664C13.9148 12.8323 13.768 12.8857 13.652 12.983C13.536 13.0803 13.4582 13.2153 13.4323 13.3641C13.3947 13.5008 13.3426 13.6331 13.2767 13.7588C13.1595 13.9931 12.9901 14.1977 12.7813 14.3568C12.6741 14.4349 12.5555 14.4961 12.4296 14.5384C12.2815 14.5864 12.1266 14.61 11.9709 14.6084C11.634 14.6084 11.1852 14.5098 10.6045 14.2068C10.2306 14.0072 9.84054 13.8391 9.43838 13.7045C9.13429 13.5998 8.81579 13.5426 8.49414 13.5348C8.3107 13.5334 8.12827 13.5621 7.95416 13.6197C7.82295 13.6646 7.70033 13.7313 7.59152 13.817C7.43207 13.9419 7.30782 14.1058 7.23087 14.2927C7.16339 14.4598 7.12972 14.6385 7.13179 14.8186C7.13342 14.9854 7.15673 15.1512 7.20115 15.312C7.24553 15.4696 7.30492 15.6226 7.3785 15.7689C7.5182 16.0452 7.68664 16.3708 7.81644 16.7034C7.8794 16.8619 7.9317 17.0244 7.97298 17.1899C8.00833 17.3303 8.02728 17.4744 8.02946 17.6191C8.03024 17.7012 8.02093 17.7831 8.00171 17.8629C7.97609 17.966 7.92539 18.0612 7.85408 18.1402C7.7431 18.2574 7.60788 18.3494 7.45776 18.4095C7.41446 18.4306 7.3672 18.4424 7.31905 18.4441C7.29733 18.4445 7.27575 18.4405 7.25564 18.4322C7.22889 18.4227 7.20381 18.4091 7.18133 18.3918C7.10504 18.3322 7.04024 18.2593 6.99011 18.1767C6.85617 17.9542 6.7604 17.7111 6.70673 17.4573C6.62372 17.0921 6.58317 16.7186 6.58586 16.3442C6.58586 16.2278 6.58586 16.1074 6.59576 15.984C6.59576 15.8942 6.6027 15.8064 6.6027 15.7215C6.61127 15.2359 6.51744 14.7538 6.32726 14.3065C6.21086 14.0433 6.05335 13.8002 5.86059 13.5861C5.64665 13.3493 5.39028 13.1542 5.10461 13.0108C4.9734 12.9424 4.83479 12.8891 4.69145 12.8519C4.64255 12.8397 4.59226 12.8337 4.54184 12.8342H3.35287C3.28116 12.5526 3.24488 12.2632 3.24488 11.9727C3.24446 11.7357 3.27037 11.4994 3.32216 11.2682V11.2711ZM20.9039 24.2967C20.6531 25.8116 19.8692 27.188 18.6925 28.1798C17.5174 29.1741 16.0254 29.7194 14.4835 29.7182H9.88622C8.34432 29.7194 6.85231 29.1741 5.6773 28.1798C4.4989 27.1867 3.71448 25.8079 3.46483 24.2908L1.77155 14.117H2.75443C2.84579 14.1372 2.9405 14.1372 3.03185 14.117H4.43582C4.46356 14.1279 4.49923 14.1437 4.5349 14.1644C4.61837 14.208 4.69678 14.2606 4.76873 14.3213C4.92039 14.4495 5.04213 14.6091 5.12542 14.789C5.25501 15.0825 5.31729 15.4011 5.30772 15.7215C5.30772 15.7827 5.30772 15.8459 5.30772 15.913C5.2998 16.059 5.29583 16.2031 5.29583 16.3442C5.29373 16.7597 5.33222 17.1745 5.41077 17.5826C5.46417 17.8526 5.54313 18.1169 5.64658 18.372C5.7829 18.7253 5.99646 19.0438 6.27178 19.3046C6.41126 19.4313 6.57142 19.5334 6.74538 19.6065C6.92545 19.6819 7.11878 19.7208 7.3141 19.721C7.54248 19.7193 7.76795 19.6699 7.97595 19.5759C8.19116 19.4825 8.39278 19.3607 8.57539 19.2138C8.82483 19.0114 9.02162 18.7521 9.14906 18.4579C9.25862 18.1912 9.31353 17.9053 9.31056 17.6172C9.30847 17.3727 9.27788 17.1293 9.21941 16.8919C9.13668 16.5637 9.02426 16.2436 8.88353 15.9357C8.75571 15.6475 8.62295 15.391 8.52387 15.1926C8.48774 15.1224 8.45886 15.0486 8.43767 14.9726C8.42348 14.9244 8.41549 14.8747 8.41389 14.8245C8.43854 14.8214 8.46335 14.8198 8.4882 14.8196C8.67582 14.8283 8.86112 14.8645 9.03809 14.9272C9.37033 15.0395 9.69249 15.1794 10.0012 15.3456C10.7185 15.7196 11.3724 15.8932 11.9649 15.8932C12.3531 15.8956 12.7372 15.8138 13.0905 15.6534C13.3242 15.546 13.5408 15.4051 13.7335 15.235C13.9893 15.0072 14.2047 14.738 14.3706 14.4387C14.4294 14.3332 14.4823 14.2244 14.5291 14.1131H22.5962L20.9039 24.2967ZM12.2572 8.43804C12.6694 8.84657 12.921 9.44161 13.1251 9.99125C13.9396 9.57581 14.8799 9.3005 15.8003 9.35082C16.6118 9.38832 17.3242 9.79488 17.8324 10.4501C17.3222 8.73507 15.403 8.37785 13.8504 8.78441C13.7702 8.80414 13.6919 8.82585 13.6146 8.84854C12.6733 6.85424 10.2627 6.39341 8.30787 7.28744C9.69598 7.26573 11.2555 7.4029 12.2572 8.43212V8.43804Z" fill="#00305B"/>
</svg>
