<svg width="191" height="44" viewBox="0 0 191 44" fill="none" xmlns="http://www.w3.org/2000/svg">
<circle cx="21.9333" cy="21.9333" r="21.9333" fill="#F6A828"/>
<path fill-rule="evenodd" clip-rule="evenodd" d="M37.3732 24.4347H35.2568C35.1165 24.4347 34.9819 24.4904 34.8827 24.5897C34.7835 24.6889 34.7277 24.8235 34.7277 24.9638V26.5511H33.6695V16.4983C33.6687 15.7969 33.3898 15.1245 32.8938 14.6286C32.3979 14.1326 31.7254 13.8536 31.0241 13.8529H30.495V12.7947H33.1404C33.2808 12.7947 33.4153 12.7389 33.5146 12.6397C33.6138 12.5405 33.6695 12.4059 33.6695 12.2656V10.1492C33.6695 10.0089 33.6138 9.87431 33.5146 9.77508C33.4153 9.67586 33.2808 9.62012 33.1404 9.62012H6.68582C6.54549 9.62012 6.41091 9.67586 6.31169 9.77508C6.21247 9.87431 6.15672 10.0089 6.15672 10.1492V12.2656C6.15672 12.4059 6.21247 12.5405 6.31169 12.6397C6.41091 12.7389 6.54549 12.7947 6.68582 12.7947H7.21491V26.5511H6.68582C6.54549 26.5511 6.41091 26.6068 6.31169 26.706C6.21247 26.8053 6.15672 26.9398 6.15672 27.0802V29.1965C6.15672 29.3369 6.21247 29.4714 6.31169 29.5707C6.41091 29.6699 6.54549 29.7256 6.68582 29.7256H12.5359C12.6659 30.8896 13.2204 31.9648 14.0934 32.7457C14.9663 33.5265 16.0964 33.9582 17.2677 33.9582C18.4389 33.9582 19.569 33.5265 20.4419 32.7457C21.3149 31.9648 21.8694 30.8896 21.9994 29.7256H35.2568L34.3044 30.9955C34.2358 31.087 34.1986 31.1984 34.1986 31.3129V33.4293C34.1986 33.5696 34.2544 33.7042 34.3536 33.8034C34.4528 33.9026 34.5874 33.9584 34.7277 33.9584C34.868 33.9584 35.0026 33.9026 35.1018 33.8034C35.2011 33.7042 35.2568 33.5696 35.2568 33.4293V31.4892L36.5795 29.7256H37.3732C37.5135 29.7256 37.6481 29.6699 37.7473 29.5707C37.8465 29.4714 37.9023 29.3369 37.9023 29.1965V24.9638C37.9023 24.8235 37.8465 24.6889 37.7473 24.5897C37.6481 24.4904 37.5135 24.4347 37.3732 24.4347ZM35.7859 25.4929H36.8441V26.5511H35.7859V25.4929ZM30.495 26.5511V25.4929H32.6113V26.5511H30.495ZM30.495 17.0274H32.6113V18.0856H30.495V17.0274ZM30.495 19.1438H32.6113V20.202H30.495V19.1438ZM30.495 21.2602H32.6113V22.3183H30.495V21.2602ZM30.495 23.3765H32.6113V24.4347H30.495V23.3765ZM31.0241 14.911C31.3522 14.9115 31.6721 15.0134 31.94 15.2028C32.2079 15.3923 32.4106 15.66 32.5203 15.9692H30.495V14.911H31.0241ZM7.21491 10.6783H32.6113V11.7365H7.21491V10.6783ZM8.27309 15.9692H9.86037C10.2812 15.9697 10.6847 16.1371 10.9822 16.4347C11.2798 16.7322 11.4472 17.1357 11.4476 17.5565V19.6729C11.4472 20.0937 11.2798 20.4972 10.9822 20.7947C10.6847 21.0923 10.2812 21.2597 9.86037 21.2602H8.27309V15.9692ZM8.27309 22.3183H9.86037C10.5617 22.3175 11.2342 22.0386 11.7301 21.5426C12.2261 21.0467 12.505 20.3743 12.5058 19.6729V17.5565C12.505 16.8551 12.2261 16.1827 11.7301 15.6867C11.2342 15.1908 10.5617 14.9118 9.86037 14.911H8.27309V12.7947H29.4368V26.5511H28.3786V15.4401C28.3786 15.2998 28.3229 15.1652 28.2236 15.066C28.1244 14.9668 27.9898 14.911 27.8495 14.911H25.2041C25.0637 14.911 24.9291 14.9668 24.8299 15.066C24.7307 15.1652 24.675 15.2998 24.675 15.4401V26.5511H23.7189L23.054 24.778C23.0162 24.6772 22.9485 24.5903 22.86 24.5289C22.7714 24.4676 22.6663 24.4347 22.5586 24.4347H11.9767C11.869 24.4347 11.7639 24.4676 11.6754 24.5289C11.5868 24.5903 11.5191 24.6772 11.4813 24.778L10.8164 26.5511H8.27309V22.3183ZM27.3204 26.5511H25.7331V15.9692H27.3204V26.5511ZM20.256 25.4929H22.1919L23.3824 28.6674H21.9994C21.8594 27.4209 21.2328 26.28 20.256 25.4929ZM12.3434 25.4929H14.2793C13.3025 26.28 12.6759 27.4209 12.5359 28.6674H11.1529L12.3434 25.4929ZM7.21491 27.6093H10.4196L10.0228 28.6674H7.21491V27.6093ZM17.2677 32.9002C16.5352 32.9002 15.8191 32.683 15.21 32.276C14.601 31.869 14.1263 31.2906 13.8459 30.6139C13.5656 29.9371 13.4923 29.1924 13.6352 28.474C13.7781 27.7556 14.1308 27.0956 14.6488 26.5777C15.1668 26.0597 15.8267 25.707 16.5451 25.5641C17.2636 25.4212 18.0082 25.4945 18.685 25.7748C19.3617 26.0551 19.9402 26.5298 20.3471 27.1389C20.7541 27.748 20.9713 28.464 20.9713 29.1965C20.9702 30.1785 20.5796 31.1199 19.8853 31.8142C19.191 32.5085 18.2496 32.8991 17.2677 32.9002ZM36.8441 28.6674H24.5125L24.1157 27.6093H36.8441V28.6674ZM16.2096 22.3184H20.9714C21.6728 22.3176 22.3452 22.0386 22.8411 21.5427C23.3371 21.0467 23.6161 20.3743 23.6168 19.6729V17.5566C23.6161 16.8552 23.3371 16.1828 22.8411 15.6868C22.3452 15.1909 21.6728 14.9119 20.9714 14.9111H16.2096C15.5082 14.9119 14.8357 15.1909 14.3398 15.6868C13.8438 16.1828 13.5649 16.8552 13.5641 17.5566V19.6729C13.5649 20.3743 13.8438 21.0467 14.3398 21.5427C14.8357 22.0386 15.5082 22.3176 16.2096 22.3184ZM14.6223 17.5566C14.6227 17.1357 14.7901 16.7323 15.0877 16.4347C15.3853 16.1371 15.7887 15.9698 16.2096 15.9693H20.9714C21.3922 15.9698 21.7957 16.1371 22.0932 16.4347C22.3908 16.7323 22.5582 17.1357 22.5587 17.5566V19.6729C22.5582 20.0938 22.3908 20.4972 22.0932 20.7948C21.7957 21.0923 21.3922 21.2597 20.9714 21.2602H16.2096C15.7887 21.2597 15.3853 21.0923 15.0877 20.7948C14.7901 20.4972 14.6227 20.0938 14.6223 19.6729V17.5566ZM15.7979 26.9971C16.2329 26.7065 16.7444 26.5513 17.2676 26.5513C17.969 26.5521 18.6414 26.8311 19.1374 27.327C19.6333 27.823 19.9123 28.4954 19.9131 29.1968C19.9131 29.72 19.7579 30.2315 19.4673 30.6665C19.1766 31.1015 18.7634 31.4406 18.28 31.6408C17.7966 31.8411 17.2647 31.8935 16.7515 31.7914C16.2384 31.6893 15.767 31.4374 15.397 31.0674C15.027 30.6974 14.7751 30.226 14.673 29.7129C14.5709 29.1997 14.6233 28.6678 14.8236 28.1844C15.0238 27.701 15.3629 27.2878 15.7979 26.9971ZM16.3858 30.5165C16.6468 30.6909 16.9537 30.784 17.2676 30.784C17.6885 30.7835 18.0919 30.6162 18.3895 30.3186C18.687 30.021 18.8544 29.6176 18.8549 29.1968C18.8549 28.8828 18.7618 28.5759 18.5874 28.3149C18.413 28.0539 18.1651 27.8504 17.8751 27.7303C17.585 27.6102 17.2659 27.5787 16.958 27.64C16.6501 27.7012 16.3673 27.8524 16.1453 28.0744C15.9233 28.2964 15.7721 28.5792 15.7109 28.8871C15.6496 29.195 15.6811 29.5141 15.8012 29.8042C15.9213 30.0942 16.1248 30.3421 16.3858 30.5165Z" fill="#00305B"/>
<path d="M54.5266 27V17.805H50.9266V16.5H59.6116V17.805H56.0116V27H54.5266ZM60.8449 27V19.05H62.2249V21.21L62.0899 20.67C62.3099 20.12 62.6799 19.7 63.1999 19.41C63.7199 19.12 64.3599 18.975 65.1199 18.975V20.37C65.0599 20.36 64.9999 20.355 64.9399 20.355C64.8899 20.355 64.8399 20.355 64.7899 20.355C64.0199 20.355 63.4099 20.585 62.9599 21.045C62.5099 21.505 62.2849 22.17 62.2849 23.04V27H60.8449ZM71.2437 27V25.32L71.1687 25.005V22.14C71.1687 21.53 70.9887 21.06 70.6287 20.73C70.2787 20.39 69.7487 20.22 69.0387 20.22C68.5687 20.22 68.1087 20.3 67.6587 20.46C67.2087 20.61 66.8287 20.815 66.5187 21.075L65.9187 19.995C66.3287 19.665 66.8187 19.415 67.3887 19.245C67.9687 19.065 68.5737 18.975 69.2037 18.975C70.2937 18.975 71.1337 19.24 71.7237 19.77C72.3137 20.3 72.6087 21.11 72.6087 22.2V27H71.2437ZM68.6337 27.09C68.0437 27.09 67.5237 26.99 67.0737 26.79C66.6337 26.59 66.2937 26.315 66.0537 25.965C65.8137 25.605 65.6937 25.2 65.6937 24.75C65.6937 24.32 65.7937 23.93 65.9937 23.58C66.2037 23.23 66.5387 22.95 66.9987 22.74C67.4687 22.53 68.0987 22.425 68.8887 22.425H71.4087V23.46H68.9487C68.2287 23.46 67.7437 23.58 67.4937 23.82C67.2437 24.06 67.1187 24.35 67.1187 24.69C67.1187 25.08 67.2737 25.395 67.5837 25.635C67.8937 25.865 68.3237 25.98 68.8737 25.98C69.4137 25.98 69.8837 25.86 70.2837 25.62C70.6937 25.38 70.9887 25.03 71.1687 24.57L71.4537 25.56C71.2637 26.03 70.9287 26.405 70.4487 26.685C69.9687 26.955 69.3637 27.09 68.6337 27.09ZM75.2736 27V19.05H76.7136V27H75.2736ZM75.9936 17.52C75.7136 17.52 75.4786 17.43 75.2886 17.25C75.1086 17.07 75.0186 16.85 75.0186 16.59C75.0186 16.32 75.1086 16.095 75.2886 15.915C75.4786 15.735 75.7136 15.645 75.9936 15.645C76.2736 15.645 76.5036 15.735 76.6836 15.915C76.8736 16.085 76.9686 16.3 76.9686 16.56C76.9686 16.83 76.8786 17.06 76.6986 17.25C76.5186 17.43 76.2836 17.52 75.9936 17.52ZM79.463 27V15.87H80.903V27H79.463ZM87.1925 27.09C86.3425 27.09 85.5925 26.915 84.9425 26.565C84.3025 26.215 83.8025 25.735 83.4425 25.125C83.0925 24.515 82.9175 23.815 82.9175 23.025C82.9175 22.235 83.0875 21.535 83.4275 20.925C83.7775 20.315 84.2525 19.84 84.8525 19.5C85.4625 19.15 86.1475 18.975 86.9075 18.975C87.6775 18.975 88.3575 19.145 88.9475 19.485C89.5375 19.825 89.9975 20.305 90.3275 20.925C90.6675 21.535 90.8375 22.25 90.8375 23.07C90.8375 23.13 90.8325 23.2 90.8225 23.28C90.8225 23.36 90.8175 23.435 90.8075 23.505H84.0425V22.47H90.0575L89.4725 22.83C89.4825 22.32 89.3775 21.865 89.1575 21.465C88.9375 21.065 88.6325 20.755 88.2425 20.535C87.8625 20.305 87.4175 20.19 86.9075 20.19C86.4075 20.19 85.9625 20.305 85.5725 20.535C85.1825 20.755 84.8775 21.07 84.6575 21.48C84.4375 21.88 84.3275 22.34 84.3275 22.86V23.1C84.3275 23.63 84.4475 24.105 84.6875 24.525C84.9375 24.935 85.2825 25.255 85.7225 25.485C86.1625 25.715 86.6675 25.83 87.2375 25.83C87.7075 25.83 88.1325 25.75 88.5125 25.59C88.9025 25.43 89.2425 25.19 89.5325 24.87L90.3275 25.8C89.9675 26.22 89.5175 26.54 88.9775 26.76C88.4475 26.98 87.8525 27.09 87.1925 27.09ZM92.837 27V19.05H94.217V21.21L94.082 20.67C94.302 20.12 94.672 19.7 95.192 19.41C95.712 19.12 96.352 18.975 97.112 18.975V20.37C97.052 20.36 96.992 20.355 96.932 20.355C96.882 20.355 96.832 20.355 96.782 20.355C96.012 20.355 95.402 20.585 94.952 21.045C94.502 21.505 94.277 22.17 94.277 23.04V27H92.837ZM103.228 27V16.5H107.938C109.148 16.5 110.078 16.745 110.728 17.235C111.378 17.715 111.703 18.375 111.703 19.215C111.703 19.785 111.573 20.265 111.313 20.655C111.063 21.045 110.723 21.345 110.293 21.555C109.863 21.765 109.398 21.87 108.898 21.87L109.168 21.42C109.768 21.42 110.298 21.525 110.758 21.735C111.218 21.945 111.583 22.255 111.853 22.665C112.123 23.065 112.258 23.565 112.258 24.165C112.258 25.065 111.918 25.765 111.238 26.265C110.568 26.755 109.568 27 108.238 27H103.228ZM104.728 25.785H108.178C109.008 25.785 109.643 25.645 110.083 25.365C110.523 25.085 110.743 24.645 110.743 24.045C110.743 23.435 110.523 22.99 110.083 22.71C109.643 22.43 109.008 22.29 108.178 22.29H104.593V21.075H107.803C108.563 21.075 109.153 20.935 109.573 20.655C109.993 20.375 110.203 19.955 110.203 19.395C110.203 18.835 109.993 18.415 109.573 18.135C109.153 17.855 108.563 17.715 107.803 17.715H104.728V25.785ZM117.715 27.09C117.035 27.09 116.435 26.965 115.915 26.715C115.405 26.465 115.005 26.085 114.715 25.575C114.435 25.055 114.295 24.405 114.295 23.625V19.05H115.735V23.46C115.735 24.24 115.92 24.825 116.29 25.215C116.67 25.605 117.2 25.8 117.88 25.8C118.38 25.8 118.815 25.7 119.185 25.5C119.555 25.29 119.84 24.99 120.04 24.6C120.24 24.2 120.34 23.72 120.34 23.16V19.05H121.78V27H120.415V24.855L120.64 25.425C120.38 25.955 119.99 26.365 119.47 26.655C118.95 26.945 118.365 27.09 117.715 27.09ZM124.522 27V19.05H125.902V21.21L125.767 20.67C125.987 20.12 126.357 19.7 126.877 19.41C127.397 19.12 128.037 18.975 128.797 18.975V20.37C128.737 20.36 128.677 20.355 128.617 20.355C128.567 20.355 128.517 20.355 128.467 20.355C127.697 20.355 127.087 20.585 126.637 21.045C126.187 21.505 125.962 22.17 125.962 23.04V27H124.522ZM133.978 30C133.248 30 132.538 29.895 131.848 29.685C131.168 29.485 130.613 29.195 130.183 28.815L130.873 27.705C131.243 28.025 131.698 28.275 132.238 28.455C132.778 28.645 133.343 28.74 133.933 28.74C134.873 28.74 135.563 28.52 136.003 28.08C136.443 27.64 136.663 26.97 136.663 26.07V24.39L136.813 22.815L136.738 21.225V19.05H138.103V25.92C138.103 27.32 137.753 28.35 137.053 29.01C136.353 29.67 135.328 30 133.978 30ZM133.798 26.67C133.028 26.67 132.338 26.51 131.728 26.19C131.128 25.86 130.648 25.405 130.288 24.825C129.938 24.245 129.763 23.575 129.763 22.815C129.763 22.045 129.938 21.375 130.288 20.805C130.648 20.225 131.128 19.775 131.728 19.455C132.338 19.135 133.028 18.975 133.798 18.975C134.478 18.975 135.098 19.115 135.658 19.395C136.218 19.665 136.663 20.085 136.993 20.655C137.333 21.225 137.503 21.945 137.503 22.815C137.503 23.675 137.333 24.39 136.993 24.96C136.663 25.53 136.218 25.96 135.658 26.25C135.098 26.53 134.478 26.67 133.798 26.67ZM133.963 25.41C134.493 25.41 134.963 25.3 135.373 25.08C135.783 24.86 136.103 24.555 136.333 24.165C136.573 23.775 136.693 23.325 136.693 22.815C136.693 22.305 136.573 21.855 136.333 21.465C136.103 21.075 135.783 20.775 135.373 20.565C134.963 20.345 134.493 20.235 133.963 20.235C133.433 20.235 132.958 20.345 132.538 20.565C132.128 20.775 131.803 21.075 131.563 21.465C131.333 21.855 131.218 22.305 131.218 22.815C131.218 23.325 131.333 23.775 131.563 24.165C131.803 24.555 132.128 24.86 132.538 25.08C132.958 25.3 133.433 25.41 133.963 25.41ZM144.2 27.09C143.52 27.09 142.92 26.965 142.4 26.715C141.89 26.465 141.49 26.085 141.2 25.575C140.92 25.055 140.78 24.405 140.78 23.625V19.05H142.22V23.46C142.22 24.24 142.405 24.825 142.775 25.215C143.155 25.605 143.685 25.8 144.365 25.8C144.865 25.8 145.3 25.7 145.67 25.5C146.04 25.29 146.325 24.99 146.525 24.6C146.725 24.2 146.825 23.72 146.825 23.16V19.05H148.265V27H146.9V24.855L147.125 25.425C146.865 25.955 146.475 26.365 145.955 26.655C145.435 26.945 144.85 27.09 144.2 27.09ZM154.546 27.09C153.696 27.09 152.946 26.915 152.296 26.565C151.656 26.215 151.156 25.735 150.796 25.125C150.446 24.515 150.271 23.815 150.271 23.025C150.271 22.235 150.441 21.535 150.781 20.925C151.131 20.315 151.606 19.84 152.206 19.5C152.816 19.15 153.501 18.975 154.261 18.975C155.031 18.975 155.711 19.145 156.301 19.485C156.891 19.825 157.351 20.305 157.681 20.925C158.021 21.535 158.191 22.25 158.191 23.07C158.191 23.13 158.186 23.2 158.176 23.28C158.176 23.36 158.171 23.435 158.161 23.505H151.396V22.47H157.411L156.826 22.83C156.836 22.32 156.731 21.865 156.511 21.465C156.291 21.065 155.986 20.755 155.596 20.535C155.216 20.305 154.771 20.19 154.261 20.19C153.761 20.19 153.316 20.305 152.926 20.535C152.536 20.755 152.231 21.07 152.011 21.48C151.791 21.88 151.681 22.34 151.681 22.86V23.1C151.681 23.63 151.801 24.105 152.041 24.525C152.291 24.935 152.636 25.255 153.076 25.485C153.516 25.715 154.021 25.83 154.591 25.83C155.061 25.83 155.486 25.75 155.866 25.59C156.256 25.43 156.596 25.19 156.886 24.87L157.681 25.8C157.321 26.22 156.871 26.54 156.331 26.76C155.801 26.98 155.206 27.09 154.546 27.09ZM160.191 27V19.05H161.571V21.21L161.436 20.67C161.656 20.12 162.026 19.7 162.546 19.41C163.066 19.12 163.706 18.975 164.466 18.975V20.37C164.406 20.36 164.346 20.355 164.286 20.355C164.236 20.355 164.186 20.355 164.136 20.355C163.366 20.355 162.756 20.585 162.306 21.045C161.856 21.505 161.631 22.17 161.631 23.04V27H160.191ZM169.561 27V25.98L173.836 21.855C174.216 21.495 174.496 21.18 174.676 20.91C174.866 20.63 174.991 20.375 175.051 20.145C175.121 19.905 175.156 19.675 175.156 19.455C175.156 18.915 174.966 18.49 174.586 18.18C174.206 17.87 173.651 17.715 172.921 17.715C172.361 17.715 171.856 17.81 171.406 18C170.956 18.18 170.566 18.465 170.236 18.855L169.216 17.97C169.616 17.46 170.151 17.07 170.821 16.8C171.501 16.52 172.246 16.38 173.056 16.38C173.786 16.38 174.421 16.5 174.961 16.74C175.501 16.97 175.916 17.305 176.206 17.745C176.506 18.185 176.656 18.705 176.656 19.305C176.656 19.645 176.611 19.98 176.521 20.31C176.431 20.64 176.261 20.99 176.011 21.36C175.761 21.73 175.401 22.145 174.931 22.605L171.121 26.28L170.761 25.695H177.106V27H169.561Z" fill="white"/>
</svg>
